<?xml version="1.0" encoding="utf-8"?>
<!-- Generator: Adobe Illustrator 16.0.0, SVG Export Plug-In . SVG Version: 6.00 Build 0)  -->
<!DOCTYPE svg PUBLIC "-//W3C//DTD SVG 1.1//EN" "http://www.w3.org/Graphics/SVG/1.1/DTD/svg11.dtd">
<svg version="1.1" id="Capa_1" xmlns="http://www.w3.org/2000/svg" xmlns:xlink="http://www.w3.org/1999/xlink" x="0px" y="0px"
	 width="500px" height="500px" viewBox="0 0 500 500" enable-background="new 0 0 500 500" xml:space="preserve">
<g>
	<path fill="#FEE69D" d="M446.947,252.959c0,111.374-90.281,201.655-201.652,201.655c-111.367,0-201.648-90.281-201.648-201.655
		c0-111.367,90.281-201.647,201.648-201.647C356.666,51.312,446.947,141.592,446.947,252.959z"/>
	<g>
		<g>
			<path fill="#E4E6ED" d="M354.588,34.123H175.879c-3.078,0-5.582,2.455-5.582,5.48v306.817c0,3.027,2.504,5.48,5.582,5.48h223.382
				c3.088,0,5.584-2.453,5.584-5.48V83.435L354.588,34.123z M354.588,34.123"/>
			<path fill="#D8DEEC" d="M404.846,83.435h-44.674c-3.084,0-5.584-2.456-5.584-5.481v-43.83L404.846,83.435z M404.846,83.435"/>
		</g>
		<g>
			<path fill="#ABD377" d="M333.357,116.008h-68.674c-3.611,0-6.543-2.871-6.543-6.414c0-3.544,2.932-6.419,6.543-6.419h68.674
				c3.609,0,6.539,2.875,6.539,6.419C339.896,113.137,336.967,116.008,333.357,116.008L333.357,116.008z M333.357,116.008"/>
			<path fill="#ABD377" d="M218.896,99.97c-14.449,0-26.164,11.489-26.164,25.666c0,14.177,11.715,25.667,26.164,25.667
				c14.452,0,26.165-11.49,26.165-25.667C245.06,111.459,233.348,99.97,218.896,99.97L218.896,99.97z M234.29,119.349
				l-17.443,17.107c-0.639,0.63-1.471,0.941-2.31,0.941c-0.837,0-1.675-0.312-2.314-0.941l-8.722-8.554
				c-1.274-1.254-1.274-3.281,0-4.535c1.279-1.252,3.352-1.252,4.626,0l6.41,6.288l15.132-14.844c1.274-1.25,3.346-1.25,4.621,0
				C235.566,116.061,235.566,118.099,234.29,119.349L234.29,119.349z M234.29,119.349"/>
			<path fill="#AFB9D2" d="M366.057,132.051h-65.404c-1.805,0-3.27-1.438-3.27-3.206c0-1.774,1.465-3.21,3.27-3.21h65.404
				c1.811,0,3.271,1.436,3.271,3.21C369.328,130.613,367.867,132.051,366.057,132.051L366.057,132.051z M366.057,132.051"/>
			<path fill="#AFB9D2" d="M287.578,132.051h-26.164c-1.813,0-3.273-1.438-3.273-3.206c0-1.774,1.461-3.21,3.273-3.21h26.164
				c1.799,0,3.27,1.436,3.27,3.21C290.848,130.613,289.377,132.051,287.578,132.051L287.578,132.051z M287.578,132.051"/>
			<path fill="#C7CFE2" d="M379.141,144.883h-19.625c-1.805,0-3.268-1.436-3.268-3.206c0-1.772,1.463-3.212,3.268-3.212h19.625
				c1.799,0,3.275,1.44,3.275,3.212C382.416,143.447,380.939,144.883,379.141,144.883L379.141,144.883z M379.141,144.883"/>
			<path fill="#C7CFE2" d="M346.436,144.883h-85.021c-1.813,0-3.273-1.436-3.273-3.206c0-1.772,1.461-3.212,3.273-3.212h85.021
				c1.807,0,3.271,1.44,3.271,3.212C349.707,143.447,348.242,144.883,346.436,144.883L346.436,144.883z M346.436,144.883"/>
			<path fill="#ABD377" d="M333.357,183.384h-68.674c-3.611,0-6.543-2.872-6.543-6.414c0-3.546,2.932-6.414,6.543-6.414h68.674
				c3.609,0,6.539,2.868,6.539,6.414C339.896,180.513,336.967,183.384,333.357,183.384L333.357,183.384z M333.357,183.384"/>
			<path fill="#ABD377" d="M218.896,167.347c-14.449,0-26.164,11.491-26.164,25.664c0,14.176,11.715,25.669,26.164,25.669
				c14.452,0,26.165-11.493,26.165-25.669C245.06,178.838,233.348,167.347,218.896,167.347L218.896,167.347z M234.29,186.727
				l-17.443,17.111c-0.639,0.623-1.471,0.937-2.31,0.937c-0.837,0-1.675-0.314-2.314-0.937l-8.722-8.556
				c-1.274-1.255-1.274-3.284,0-4.543c1.279-1.247,3.352-1.247,4.626,0l6.41,6.292l15.132-14.844c1.274-1.254,3.346-1.254,4.621,0
				C235.566,183.441,235.566,185.471,234.29,186.727L234.29,186.727z M234.29,186.727"/>
			<path fill="#AFB9D2" d="M366.057,199.428h-65.404c-1.805,0-3.27-1.436-3.27-3.21c0-1.772,1.465-3.208,3.27-3.208h65.404
				c1.811,0,3.271,1.436,3.271,3.208C369.328,197.992,367.867,199.428,366.057,199.428L366.057,199.428z M366.057,199.428"/>
			<path fill="#AFB9D2" d="M287.578,199.428h-26.164c-1.813,0-3.273-1.436-3.273-3.21c0-1.772,1.461-3.208,3.273-3.208h26.164
				c1.799,0,3.27,1.436,3.27,3.208C290.848,197.992,289.377,199.428,287.578,199.428L287.578,199.428z M287.578,199.428"/>
			<path fill="#C7CFE2" d="M379.141,212.26h-19.625c-1.805,0-3.268-1.436-3.268-3.21c0-1.77,1.463-3.208,3.268-3.208h19.625
				c1.799,0,3.275,1.438,3.275,3.208C382.416,210.824,380.939,212.26,379.141,212.26L379.141,212.26z M379.141,212.26"/>
			<path fill="#C7CFE2" d="M346.436,212.26h-85.021c-1.813,0-3.273-1.436-3.273-3.21c0-1.77,1.461-3.208,3.273-3.208h85.021
				c1.807,0,3.271,1.438,3.271,3.208C349.707,210.824,348.242,212.26,346.436,212.26L346.436,212.26z M346.436,212.26"/>
			<path fill="#F0F3FA" d="M323.543,250.766h-58.859c-3.611,0-6.543-2.876-6.543-6.42c0-3.543,2.932-6.415,6.543-6.415h58.863
				c3.605,0,6.539,2.872,6.539,6.415C330.086,247.89,327.152,250.766,323.543,250.766L323.543,250.766z M323.543,250.766"/>
			<path fill="#F0F3FA" d="M218.896,234.722c-14.449,0-26.164,11.491-26.164,25.665c0,14.176,11.715,25.672,26.164,25.672
				c14.452,0,26.165-11.496,26.165-25.672C245.06,246.213,233.348,234.722,218.896,234.722L218.896,234.722z M218.896,234.722"/>
			<path fill="#AFB9D2" d="M366.057,266.805h-65.404c-1.805,0-3.27-1.438-3.27-3.205c0-1.771,1.465-3.213,3.27-3.213h65.404
				c1.811,0,3.271,1.441,3.271,3.213C369.328,265.367,367.867,266.805,366.057,266.805L366.057,266.805z M366.057,266.805"/>
			<path fill="#AFB9D2" d="M287.578,266.805h-26.164c-1.813,0-3.273-1.438-3.273-3.205c0-1.771,1.461-3.213,3.273-3.213h26.164
				c1.799,0,3.27,1.441,3.27,3.213C290.848,265.367,289.377,266.805,287.578,266.805L287.578,266.805z M287.578,266.805"/>
			<path fill="#C7CFE2" d="M379.141,279.635h-19.625c-1.805,0-3.268-1.432-3.268-3.203c0-1.77,1.463-3.211,3.268-3.211h19.625
				c1.799,0,3.275,1.441,3.275,3.211C382.416,278.203,380.939,279.635,379.141,279.635L379.141,279.635z M379.141,279.635"/>
			<path fill="#C7CFE2" d="M346.436,279.635h-85.021c-1.813,0-3.273-1.432-3.273-3.203c0-1.77,1.461-3.211,3.273-3.211h85.021
				c1.807,0,3.271,1.441,3.271,3.211C349.707,278.203,348.242,279.635,346.436,279.635L346.436,279.635z M346.436,279.635"/>
		</g>
	</g>
	<g>
		<path fill="#FFF0E7" d="M242.377,350.835c0,61.35-49.728,111.08-111.076,111.08s-111.075-49.73-111.075-111.08
			c0-61.343,49.727-111.076,111.075-111.076S242.377,289.492,242.377,350.835L242.377,350.835z M242.377,350.835"/>
		<path fill="#FEE2C7" d="M186.838,350.835c0,30.676-24.867,55.545-55.537,55.545c-30.671,0-55.54-24.869-55.54-55.545
			c0-30.672,24.869-55.536,55.54-55.536C161.971,295.299,186.838,320.163,186.838,350.835L186.838,350.835z M186.838,350.835"/>
		<path fill="#717588" d="M111.465,378.606c-2.031,0-4.06-0.777-5.61-2.324c-3.097-3.102-3.097-8.119,0-11.219l75.374-75.374
			c3.1-3.098,8.121-3.098,11.224,0c3.096,3.096,3.096,8.117,0,11.219l-75.375,75.374
			C115.528,377.833,113.496,378.606,111.465,378.606L111.465,378.606z M111.465,378.606"/>
		<path fill="#474756" d="M186.838,358.769h-79.339c-4.381,0-7.934-3.545-7.934-7.934c0-4.385,3.553-7.932,7.934-7.932h79.339
			c4.386,0,7.938,3.547,7.938,7.932C194.775,355.224,191.224,358.769,186.838,358.769L186.838,358.769z M186.838,358.769"/>
		<path fill="#5C5E6F" d="M147.17,350.835c0,8.764-7.104,15.867-15.869,15.867c-8.764,0-15.87-7.104-15.87-15.867
			s7.106-15.865,15.87-15.865C140.066,334.97,147.17,342.071,147.17,350.835L147.17,350.835z M147.17,350.835"/>
		<path fill="#FEDCB9" d="M131.301,469.849c-65.623,0-119.011-53.387-119.011-119.014c0-65.628,53.389-119.01,119.011-119.01
			c65.621,0,119.013,53.382,119.013,119.01C250.314,416.462,196.922,469.849,131.301,469.849L131.301,469.849z M131.301,247.693
			c-56.877,0-103.147,46.268-103.147,103.142c0,56.875,46.271,103.145,103.147,103.145c56.875,0,103.148-46.271,103.148-103.145
			C234.449,293.961,188.176,247.693,131.301,247.693L131.301,247.693z M131.301,247.693"/>
		<path fill="#E0BE91" d="M234.449,342.903h-15.873c-4.378,0-7.934,3.553-7.934,7.932c0,4.383,3.556,7.934,7.934,7.934h15.873
			c4.38,0,7.932-3.545,7.932-7.934C242.377,346.45,238.829,342.903,234.449,342.903L234.449,342.903z M234.449,342.903"/>
		<path fill="#E0BE91" d="M44.033,342.905H28.16c-4.378,0-7.933,3.555-7.933,7.932c0,4.385,3.555,7.936,7.933,7.936h15.873
			c4.378,0,7.932-3.547,7.932-7.936C51.963,346.452,48.411,342.905,44.033,342.905L44.033,342.905z M44.033,342.905"/>
		<path fill="#E0BE91" d="M139.236,263.561v-15.867c0-4.384-3.555-7.935-7.935-7.935c-4.378,0-7.933,3.551-7.933,7.935v15.867
			c0,4.381,3.549,7.932,7.933,7.932C135.686,271.492,139.236,267.941,139.236,263.561L139.236,263.561z M139.236,263.561"/>
		<path fill="#E0BE91" d="M139.236,453.979v-15.867c0-4.381-3.555-7.934-7.935-7.934c-4.378,0-7.933,3.553-7.933,7.934v15.867
			c0,4.381,3.549,7.936,7.933,7.936C135.686,461.915,139.236,458.36,139.236,453.979L139.236,453.979z M139.236,453.979"/>
	</g>
</g>
</svg>
