<?xml version="1.0" encoding="utf-8"?>
<!-- Generator: Adobe Illustrator 16.0.0, SVG Export Plug-In . SVG Version: 6.00 Build 0)  -->
<!DOCTYPE svg PUBLIC "-//W3C//DTD SVG 1.1//EN" "http://www.w3.org/Graphics/SVG/1.1/DTD/svg11.dtd">
<svg version="1.1" id="Capa_1" xmlns="http://www.w3.org/2000/svg" xmlns:xlink="http://www.w3.org/1999/xlink" x="0px" y="0px"
	 width="200px" height="200px" viewBox="0 0 200 200" enable-background="new 0 0 200 200" xml:space="preserve">
<g>
	<g>
		<defs>
			<rect id="SVGID_1_" x="-46.317" y="-88.636" width="281.966" height="501.271"/>
		</defs>
		<clipPath id="SVGID_2_">
			<use xlink:href="#SVGID_1_"  overflow="visible"/>
		</clipPath>
		<path clip-path="url(#SVGID_2_)" fill="#97C2E2" d="M180.218,104.495c0,43.843-35.539,79.381-79.381,79.381
			c-43.84,0-79.379-35.538-79.379-79.381c0-43.84,35.54-79.379,79.379-79.379C144.679,25.116,180.218,60.655,180.218,104.495"/>
		<path clip-path="url(#SVGID_2_)" fill="#EEF0F5" d="M143.861,18.35h-70.35c-1.212,0-2.197,0.966-2.197,2.157v120.779
			c0,1.192,0.985,2.157,2.197,2.157h87.935c1.216,0,2.198-0.965,2.198-2.157V37.761L143.861,18.35z"/>
		<path clip-path="url(#SVGID_2_)" fill="#E5E8F3" d="M163.645,37.762h-17.586c-1.214,0-2.197-0.967-2.197-2.158V18.35
			L163.645,37.762z"/>
		<path clip-path="url(#SVGID_2_)" fill="#BCCF77" d="M135.503,50.584H108.47c-1.422,0-2.576-1.13-2.576-2.525
			c0-1.395,1.154-2.527,2.576-2.527h27.033c1.421,0,2.574,1.132,2.574,2.527C138.077,49.454,136.924,50.584,135.503,50.584"/>
		<path clip-path="url(#SVGID_2_)" fill="#BCCF77" d="M90.444,44.271c-5.688,0-10.299,4.522-10.299,10.103
			s4.611,10.104,10.299,10.104c5.689,0,10.3-4.523,10.3-10.104S96.134,44.271,90.444,44.271 M96.505,51.899l-6.866,6.734
			c-0.252,0.248-0.58,0.371-0.91,0.371s-0.659-0.123-0.91-0.371l-3.434-3.367c-0.502-0.494-0.502-1.292,0-1.785
			c0.502-0.493,1.318-0.493,1.82,0l2.523,2.475l5.957-5.844c0.502-0.491,1.317-0.491,1.819,0
			C97.008,50.604,97.008,51.407,96.505,51.899"/>
		<path clip-path="url(#SVGID_2_)" fill="#BCC2D8" d="M148.375,56.899h-25.746c-0.711,0-1.288-0.566-1.288-1.262
			c0-0.698,0.577-1.263,1.288-1.263h25.746c0.713,0,1.288,0.565,1.288,1.263C149.663,56.333,149.088,56.899,148.375,56.899"/>
		<path clip-path="url(#SVGID_2_)" fill="#BCC2D8" d="M117.481,56.899h-10.299c-0.714,0-1.289-0.566-1.289-1.262
			c0-0.698,0.575-1.263,1.289-1.263h10.299c0.708,0,1.287,0.565,1.287,1.263C118.769,56.333,118.189,56.899,117.481,56.899"/>
		<path clip-path="url(#SVGID_2_)" fill="#D5DAEA" d="M153.526,61.951h-7.726c-0.711,0-1.287-0.565-1.287-1.262
			s0.576-1.264,1.287-1.264h7.726c0.708,0,1.288,0.567,1.288,1.264S154.234,61.951,153.526,61.951"/>
		<path clip-path="url(#SVGID_2_)" fill="#D5DAEA" d="M140.651,61.951h-33.469c-0.714,0-1.289-0.565-1.289-1.262
			s0.575-1.264,1.289-1.264h33.469c0.712,0,1.288,0.567,1.288,1.264S141.363,61.951,140.651,61.951"/>
		<path clip-path="url(#SVGID_2_)" fill="#BCCF77" d="M135.503,77.107H108.47c-1.422,0-2.576-1.13-2.576-2.525
			c0-1.396,1.154-2.525,2.576-2.525h27.033c1.421,0,2.574,1.129,2.574,2.525C138.077,75.977,136.924,77.107,135.503,77.107"/>
		<path clip-path="url(#SVGID_2_)" fill="#BCCF77" d="M90.444,70.794c-5.688,0-10.299,4.523-10.299,10.102
			c0,5.581,4.611,10.105,10.299,10.105c5.689,0,10.3-4.524,10.3-10.105C100.744,75.317,96.134,70.794,90.444,70.794 M96.505,78.422
			l-6.866,6.736c-0.252,0.245-0.58,0.369-0.91,0.369s-0.659-0.124-0.91-0.369l-3.434-3.368c-0.502-0.495-0.502-1.293,0-1.789
			c0.502-0.491,1.318-0.491,1.82,0l2.523,2.477l5.957-5.843c0.502-0.494,1.317-0.494,1.819,0
			C97.008,77.129,97.008,77.928,96.505,78.422"/>
		<path clip-path="url(#SVGID_2_)" fill="#BCC2D8" d="M148.375,83.422h-25.746c-0.711,0-1.288-0.565-1.288-1.264
			c0-0.697,0.577-1.263,1.288-1.263h25.746c0.713,0,1.288,0.565,1.288,1.263C149.663,82.857,149.088,83.422,148.375,83.422"/>
		<path clip-path="url(#SVGID_2_)" fill="#BCC2D8" d="M117.481,83.422h-10.299c-0.714,0-1.289-0.565-1.289-1.264
			c0-0.697,0.575-1.263,1.289-1.263h10.299c0.708,0,1.287,0.565,1.287,1.263C118.769,82.857,118.189,83.422,117.481,83.422"/>
		<path clip-path="url(#SVGID_2_)" fill="#D5DAEA" d="M153.526,88.474h-7.726c-0.711,0-1.287-0.565-1.287-1.264
			c0-0.696,0.576-1.263,1.287-1.263h7.726c0.708,0,1.288,0.566,1.288,1.263C154.814,87.909,154.234,88.474,153.526,88.474"/>
		<path clip-path="url(#SVGID_2_)" fill="#D5DAEA" d="M140.651,88.474h-33.469c-0.714,0-1.289-0.565-1.289-1.264
			c0-0.696,0.575-1.263,1.289-1.263h33.469c0.712,0,1.288,0.566,1.288,1.263C141.939,87.909,141.363,88.474,140.651,88.474"/>
		<path clip-path="url(#SVGID_2_)" fill="#F9FAFD" d="M131.64,103.632h-23.17c-1.422,0-2.576-1.133-2.576-2.527
			s1.154-2.525,2.576-2.525h23.172c1.419,0,2.573,1.13,2.573,2.525S133.061,103.632,131.64,103.632"/>
		<path clip-path="url(#SVGID_2_)" fill="#F9FAFD" d="M90.444,97.316c-5.688,0-10.299,4.524-10.299,10.104
			c0,5.579,4.611,10.105,10.299,10.105c5.689,0,10.3-4.526,10.3-10.105C100.744,101.84,96.134,97.316,90.444,97.316"/>
		<path clip-path="url(#SVGID_2_)" fill="#BCC2D8" d="M148.375,109.945h-25.746c-0.711,0-1.288-0.566-1.288-1.262
			c0-0.697,0.577-1.264,1.288-1.264h25.746c0.713,0,1.288,0.566,1.288,1.264C149.663,109.379,149.088,109.945,148.375,109.945"/>
		<path clip-path="url(#SVGID_2_)" fill="#BCC2D8" d="M117.481,109.945h-10.299c-0.714,0-1.289-0.566-1.289-1.262
			c0-0.697,0.575-1.264,1.289-1.264h10.299c0.708,0,1.287,0.566,1.287,1.264C118.769,109.379,118.189,109.945,117.481,109.945"/>
		<path clip-path="url(#SVGID_2_)" fill="#D5DAEA" d="M153.526,114.996h-7.726c-0.711,0-1.287-0.563-1.287-1.262
			c0-0.696,0.576-1.264,1.287-1.264h7.726c0.708,0,1.288,0.567,1.288,1.264C154.814,114.433,154.234,114.996,153.526,114.996"/>
		<path clip-path="url(#SVGID_2_)" fill="#D5DAEA" d="M140.651,114.996h-33.469c-0.714,0-1.289-0.563-1.289-1.262
			c0-0.696,0.575-1.264,1.289-1.264h33.469c0.712,0,1.288,0.567,1.288,1.264C141.939,114.433,141.363,114.996,140.651,114.996"/>
		<path clip-path="url(#SVGID_2_)" fill="#FCF7F1" d="M99.688,143.023c0,24.151-19.575,43.728-43.726,43.728
			c-24.149,0-43.725-19.576-43.725-43.728c0-24.147,19.576-43.725,43.725-43.725C80.113,99.299,99.688,118.876,99.688,143.023"/>
		<path clip-path="url(#SVGID_2_)" fill="#F7E9D2" d="M77.825,143.023c0,12.076-9.789,21.865-21.862,21.865S34.1,155.1,34.1,143.023
			c0-12.074,9.79-21.861,21.863-21.861S77.825,130.949,77.825,143.023"/>
		<path clip-path="url(#SVGID_2_)" fill="#767788" d="M48.154,153.955c-0.799,0-1.598-0.305-2.209-0.914
			c-1.219-1.221-1.219-3.196,0-4.416l29.672-29.672c1.221-1.219,3.197-1.219,4.418,0c1.219,1.22,1.219,3.195,0,4.416l-29.671,29.672
			C49.754,153.652,48.954,153.955,48.154,153.955"/>
		<path clip-path="url(#SVGID_2_)" fill="#494954" d="M77.825,146.147H46.594c-1.725,0-3.123-1.396-3.123-3.124
			c0-1.726,1.398-3.122,3.123-3.122h31.231c1.727,0,3.125,1.396,3.125,3.122C80.95,144.752,79.552,146.147,77.825,146.147"/>
		<path clip-path="url(#SVGID_2_)" fill="#5E5F6E" d="M62.21,143.023c0,3.45-2.797,6.246-6.247,6.246s-6.247-2.796-6.247-6.246
			c0-3.449,2.797-6.245,6.247-6.245S62.21,139.574,62.21,143.023"/>
		<path clip-path="url(#SVGID_2_)" fill="#F5E3C3" d="M55.963,189.874c-25.832,0-46.849-21.017-46.849-46.851
			s21.017-46.848,46.849-46.848s46.85,21.014,46.85,46.848S81.795,189.874,55.963,189.874 M55.963,102.422
			c-22.39,0-40.604,18.214-40.604,40.602c0,22.39,18.214,40.604,40.604,40.604c22.389,0,40.604-18.215,40.604-40.604
			C96.567,120.636,78.352,102.422,55.963,102.422"/>
		<path clip-path="url(#SVGID_2_)" fill="#DCC596" d="M96.567,139.901h-6.249c-1.723,0-3.123,1.399-3.123,3.122
			c0,1.726,1.4,3.124,3.123,3.124h6.249c1.725,0,3.122-1.396,3.122-3.124C99.688,141.298,98.292,139.901,96.567,139.901"/>
		<path clip-path="url(#SVGID_2_)" fill="#DCC596" d="M21.609,139.902h-6.248c-1.724,0-3.124,1.399-3.124,3.122
			c0,1.726,1.4,3.124,3.124,3.124h6.248c1.724,0,3.123-1.396,3.123-3.124C24.731,141.299,23.333,139.902,21.609,139.902"/>
		<path clip-path="url(#SVGID_2_)" fill="#DCC596" d="M59.087,108.668v-6.246c0-1.725-1.399-3.123-3.124-3.123
			c-1.723,0-3.123,1.398-3.123,3.123v6.246c0,1.725,1.397,3.123,3.123,3.123C57.689,111.791,59.087,110.393,59.087,108.668"/>
		<path clip-path="url(#SVGID_2_)" fill="#DCC596" d="M59.087,183.627v-6.247c0-1.724-1.399-3.123-3.124-3.123
			c-1.723,0-3.123,1.399-3.123,3.123v6.247c0,1.724,1.397,3.124,3.123,3.124C57.689,186.751,59.087,185.351,59.087,183.627"/>
	</g>
</g>
</svg>
