<?xml version="1.0" encoding="utf-8"?>
<!-- Generator: Adobe Illustrator 16.0.0, SVG Export Plug-In . SVG Version: 6.00 Build 0)  -->
<!DOCTYPE svg PUBLIC "-//W3C//DTD SVG 1.1//EN" "http://www.w3.org/Graphics/SVG/1.1/DTD/svg11.dtd">
<svg version="1.1" id="Capa_1" xmlns="http://www.w3.org/2000/svg" xmlns:xlink="http://www.w3.org/1999/xlink" x="0px" y="0px"
	 width="200px" height="200px" viewBox="0 0 200 200" enable-background="new 0 0 200 200" xml:space="preserve">
<g>
	<g>
		<defs>
			<rect id="SVGID_1_" x="-44.128" y="-89.32" width="281.966" height="501.271"/>
		</defs>
		<clipPath id="SVGID_2_">
			<use xlink:href="#SVGID_1_"  overflow="visible"/>
		</clipPath>
		<path clip-path="url(#SVGID_2_)" fill="#EFCB29" d="M180.449,104.138c0,43.813-35.517,79.327-79.327,79.327
			c-43.813,0-79.328-35.515-79.328-79.327c0-43.812,35.516-79.327,79.328-79.327C144.933,24.811,180.449,60.326,180.449,104.138"/>
		<path clip-path="url(#SVGID_2_)" fill="#36404F" d="M160.55,70.482c0-3.179-2.578-5.756-5.758-5.756h-112.9
			c-3.181,0-5.758,2.578-5.758,5.756v71.647H160.55V70.482z"/>
		<rect x="43.685" y="72.306" clip-path="url(#SVGID_2_)" fill="#56657B" width="109.314" height="62.243"/>
		<path clip-path="url(#SVGID_2_)" fill="#434F64" d="M168.712,140.561c0,6.174-5.004,11.178-11.177,11.178H39.148
			c-6.174,0-11.177-5.004-11.177-11.178H168.712z"/>
		<rect x="43.685" y="129.678" clip-path="url(#SVGID_2_)" fill="#779ACD" width="109.314" height="4.871"/>
		<path clip-path="url(#SVGID_2_)" fill="#ADC668" d="M182.942,53.921c0-14.013-16.265-25.412-36.257-25.412
			c-19.994,0-36.26,11.398-36.26,25.412c0,7.95,5.109,15.243,14.044,20.096c-1.492,5.45-3.874,12.469-6.983,16.221
			c-0.208,0.252-0.244,0.603-0.094,0.893c0.142,0.264,0.418,0.433,0.717,0.433c0.026,0,0.05-0.003,0.073-0.003
			c0.678-0.062,16.612-1.636,26.809-12.259c0.56,0.018,1.126,0.024,1.69,0.024C166.678,79.326,182.942,67.928,182.942,53.921"/>
		<path clip-path="url(#SVGID_2_)" fill="#F6F8F9" d="M151.411,54.695c0,2.291-1.855,4.147-4.146,4.147
			c-2.289,0-4.146-1.856-4.146-4.147c0-2.29,1.857-4.146,4.146-4.146C149.556,50.549,151.411,52.405,151.411,54.695"/>
		<path clip-path="url(#SVGID_2_)" fill="#F6F8F9" d="M164.838,54.695c0,2.291-1.856,4.147-4.146,4.147
			c-2.291,0-4.147-1.856-4.147-4.147c0-2.29,1.856-4.146,4.147-4.146C162.981,50.549,164.838,52.405,164.838,54.695"/>
		<path clip-path="url(#SVGID_2_)" fill="#F6F8F9" d="M137.985,54.695c0,2.291-1.857,4.147-4.147,4.147
			c-2.289,0-4.146-1.856-4.146-4.147c0-2.29,1.857-4.146,4.146-4.146C136.128,50.549,137.985,52.405,137.985,54.695"/>
	</g>
	<g>
		<defs>
			<rect id="SVGID_3_" x="10.767" y="111.688" width="50.473" height="56.746"/>
		</defs>
		<clipPath id="SVGID_4_">
			<use xlink:href="#SVGID_3_"  overflow="visible"/>
		</clipPath>
		<polygon clip-path="url(#SVGID_4_)" fill="#EDC976" points="36.011,118.559 10.767,137.09 36.011,155.623 61.255,137.09 		"/>
	</g>
	<g>
		<defs>
			<rect id="SVGID_5_" x="-44.128" y="-89.32" width="281.966" height="501.271"/>
		</defs>
		<clipPath id="SVGID_6_">
			<use xlink:href="#SVGID_5_"  overflow="visible"/>
		</clipPath>
		<path clip-path="url(#SVGID_6_)" fill="#F9FAFD" d="M58.099,111.731H13.922c-0.581,0-1.052,0.437-1.052,0.976v39.988h46.281
			v-39.988C59.151,112.168,58.68,111.731,58.099,111.731"/>
		<path clip-path="url(#SVGID_6_)" fill="#D5DAEA" d="M52.84,135.139H19.181c-0.581,0-1.051-0.436-1.051-0.975
			s0.47-0.975,1.051-0.975H52.84c0.581,0,1.053,0.436,1.053,0.975S53.421,135.139,52.84,135.139"/>
		<path clip-path="url(#SVGID_6_)" fill="#D5DAEA" d="M52.84,139.041H19.181c-0.581,0-1.051-0.437-1.051-0.975
			c0-0.539,0.47-0.976,1.051-0.976H52.84c0.581,0,1.053,0.437,1.053,0.976C53.892,138.604,53.421,139.041,52.84,139.041"/>
		<path clip-path="url(#SVGID_6_)" fill="#D5DAEA" d="M52.84,142.943H19.181c-0.581,0-1.051-0.438-1.051-0.977
			s0.47-0.975,1.051-0.975H52.84c0.581,0,1.053,0.436,1.053,0.975S53.421,142.943,52.84,142.943"/>
		<path clip-path="url(#SVGID_6_)" fill="#D5DAEA" d="M52.84,146.844H19.181c-0.581,0-1.051-0.438-1.051-0.975
			c0-0.539,0.47-0.976,1.051-0.976H52.84c0.581,0,1.053,0.437,1.053,0.976C53.893,146.406,53.421,146.844,52.84,146.844"/>
	</g>
	<g>
		<defs>
			<rect id="SVGID_7_" x="10.767" y="111.688" width="50.473" height="56.746"/>
		</defs>
		<clipPath id="SVGID_8_">
			<use xlink:href="#SVGID_7_"  overflow="visible"/>
		</clipPath>
		<path clip-path="url(#SVGID_8_)" fill="#D5DAEA" d="M52.84,150.744H19.181c-0.581,0-1.051-0.436-1.051-0.975
			s0.47-0.975,1.051-0.975H52.84c0.581,0,1.053,0.436,1.053,0.975C53.892,150.309,53.421,150.744,52.84,150.744"/>
		<path clip-path="url(#SVGID_8_)" fill="#F5DE89" d="M10.767,137.091l25.244,18.531l25.244-18.531v29.261
			c0,1.076-0.941,1.949-2.104,1.949H12.87c-1.161,0-2.104-0.873-2.104-1.949V137.091z"/>
	</g>
	<g>
		<defs>
			<rect id="SVGID_9_" x="-44.128" y="-89.32" width="281.966" height="501.271"/>
		</defs>
		<clipPath id="SVGID_10_">
			<use xlink:href="#SVGID_9_"  overflow="visible"/>
		</clipPath>
		<path clip-path="url(#SVGID_10_)" fill="#EDC976" d="M40.58,153.125c-2.677-1.967-6.462-1.967-9.14,0l-19.979,14.664
			c0.373,0.314,0.865,0.512,1.408,0.512h46.281c0.543,0,1.035-0.197,1.408-0.512L40.58,153.125z"/>
		<path clip-path="url(#SVGID_10_)" fill="#BCC2D8" d="M52.84,118.559h-7.362c-0.581,0-1.053-0.436-1.053-0.975
			s0.472-0.976,1.053-0.976h7.362c0.581,0,1.052,0.437,1.052,0.976S53.421,118.559,52.84,118.559"/>
		<path clip-path="url(#SVGID_10_)" fill="#BCC2D8" d="M52.84,122.461H41.271c-0.582,0-1.053-0.438-1.053-0.976
			s0.471-0.976,1.053-0.976H52.84c0.581,0,1.052,0.438,1.052,0.976S53.421,122.461,52.84,122.461"/>
		<path clip-path="url(#SVGID_10_)" fill="#BCC2D8" d="M45.478,129.288H26.544c-0.58,0-1.053-0.437-1.053-0.976
			s0.473-0.976,1.053-0.976h18.934c0.58,0,1.051,0.437,1.051,0.976S46.058,129.288,45.478,129.288"/>
	</g>
	<g>
		<defs>
			<rect id="SVGID_11_" x="45.13" y="134.494" width="50.474" height="56.746"/>
		</defs>
		<clipPath id="SVGID_12_">
			<use xlink:href="#SVGID_11_"  overflow="visible"/>
		</clipPath>
		<polygon clip-path="url(#SVGID_12_)" fill="#EDC976" points="70.374,141.365 45.13,159.896 70.374,178.428 95.618,159.896 		"/>
	</g>
	<g>
		<defs>
			<rect id="SVGID_13_" x="-44.128" y="-89.32" width="281.966" height="501.271"/>
		</defs>
		<clipPath id="SVGID_14_">
			<use xlink:href="#SVGID_13_"  overflow="visible"/>
		</clipPath>
		<path clip-path="url(#SVGID_14_)" fill="#F9FAFD" d="M92.463,134.537H48.286c-0.581,0-1.053,0.438-1.053,0.977v39.988h46.281
			v-39.988C93.515,134.975,93.044,134.537,92.463,134.537"/>
		<path clip-path="url(#SVGID_14_)" fill="#D5DAEA" d="M87.204,157.945H53.545c-0.581,0-1.052-0.436-1.052-0.976
			c0-0.538,0.471-0.975,1.052-0.975h33.659c0.58,0,1.053,0.437,1.053,0.975C88.257,157.51,87.784,157.945,87.204,157.945"/>
		<path clip-path="url(#SVGID_14_)" fill="#D5DAEA" d="M87.204,161.848H53.545c-0.581,0-1.052-0.438-1.052-0.976
			c0-0.54,0.471-0.976,1.052-0.976h33.659c0.58,0,1.053,0.436,1.053,0.976C88.255,161.41,87.784,161.848,87.204,161.848"/>
		<path clip-path="url(#SVGID_14_)" fill="#D5DAEA" d="M87.204,165.748H53.545c-0.581,0-1.052-0.436-1.052-0.975
			s0.471-0.975,1.052-0.975h33.659c0.58,0,1.053,0.436,1.053,0.975S87.784,165.748,87.204,165.748"/>
		<path clip-path="url(#SVGID_14_)" fill="#D5DAEA" d="M87.204,169.65H53.545c-0.581,0-1.052-0.439-1.052-0.975
			c0-0.541,0.471-0.977,1.052-0.977h33.659c0.58,0,1.053,0.436,1.053,0.977C88.257,169.211,87.784,169.65,87.204,169.65"/>
	</g>
	<g>
		<defs>
			<rect id="SVGID_15_" x="45.13" y="134.494" width="50.474" height="56.746"/>
		</defs>
		<clipPath id="SVGID_16_">
			<use xlink:href="#SVGID_15_"  overflow="visible"/>
		</clipPath>
		<path clip-path="url(#SVGID_16_)" fill="#D5DAEA" d="M87.204,173.551H53.545c-0.581,0-1.052-0.436-1.052-0.975
			s0.471-0.975,1.052-0.975h33.659c0.58,0,1.053,0.436,1.053,0.975C88.255,173.115,87.784,173.551,87.204,173.551"/>
		<path clip-path="url(#SVGID_16_)" fill="#F5DE89" d="M45.13,159.896l25.244,18.531l25.244-18.531v29.26
			c0,1.078-0.941,1.951-2.104,1.951H47.233c-1.16,0-2.104-0.873-2.104-1.951V159.896z"/>
	</g>
</g>
</svg>
