<?xml version="1.0" encoding="utf-8"?>
<!-- Generator: Adobe Illustrator 16.0.0, SVG Export Plug-In . SVG Version: 6.00 Build 0)  -->
<!DOCTYPE svg PUBLIC "-//W3C//DTD SVG 1.1//EN" "http://www.w3.org/Graphics/SVG/1.1/DTD/svg11.dtd">
<svg version="1.1" id="Capa_1" xmlns="http://www.w3.org/2000/svg" xmlns:xlink="http://www.w3.org/1999/xlink" x="0px" y="0px"
	 width="500px" height="500px" viewBox="0 0 500 500" enable-background="new 0 0 500 500" xml:space="preserve">
<g>
	<path fill="#FFC71E" d="M446.586,251.985c0,111.333-90.251,201.578-201.581,201.578s-201.58-90.245-201.58-201.578
		c0-111.331,90.25-201.579,201.58-201.579S446.586,140.654,446.586,251.985z"/>
	<g>
		<path fill="#313F52" d="M396.019,166.464c0-8.078-6.55-14.628-14.63-14.628H94.495c-8.082,0-14.631,6.55-14.631,14.628v182.063
			h316.154V166.464z"/>
		<rect x="99.052" y="171.098" fill="#4C657C" width="277.779" height="158.167"/>
		<path fill="#3D4E66" d="M416.758,344.54c0,15.688-12.715,28.403-28.399,28.403H87.525c-15.688,0-28.401-12.716-28.401-28.403
			H416.758z"/>
		<rect x="99.052" y="316.887" fill="#4E98D2" width="277.779" height="12.379"/>
	</g>
	<g>
		<path fill="#99CC66" d="M452.921,124.38c0-35.609-41.33-64.573-92.134-64.573c-50.807,0-92.139,28.964-92.139,64.573
			c0,20.203,12.984,38.733,35.687,51.065c-3.792,13.85-9.845,31.686-17.744,41.221c-0.53,0.641-0.622,1.53-0.24,2.266
			c0.359,0.671,1.063,1.103,1.822,1.103c0.068,0,0.126-0.008,0.187-0.008c1.723-0.157,42.215-4.157,68.123-31.153
			c1.423,0.047,2.86,0.062,4.295,0.062C411.591,188.936,452.921,159.973,452.921,124.38z"/>
		<circle fill="#EEF0F1" cx="362.26" cy="126.347" r="10.536"/>
		<circle fill="#EEF0F1" cx="396.378" cy="126.347" r="10.538"/>
		<path fill="#EEF0F1" d="M338.681,126.347c0,5.819-4.722,10.538-10.54,10.538c-5.817,0-10.537-4.718-10.537-10.538
			s4.72-10.537,10.537-10.537C333.959,115.811,338.681,120.528,338.681,126.347z"/>
	</g>
	<g>
		<g>
			<defs>
				<rect id="SVGID_1_" x="15.403" y="271.169" width="128.258" height="144.199"/>
			</defs>
			<clipPath id="SVGID_2_">
				<use xlink:href="#SVGID_1_"  overflow="visible"/>
			</clipPath>
			<path clip-path="url(#SVGID_2_)" fill="#FEC470" d="M79.55,288.632l-64.146,47.09l64.146,47.092l64.151-47.092L79.55,288.632z
				 M79.55,288.632"/>
		</g>
		<path fill="#F0F3FA" d="M135.681,271.282H23.421c-1.478,0-2.673,1.109-2.673,2.479v101.616h117.604V273.761
			C138.353,272.392,137.155,271.282,135.681,271.282L135.681,271.282z M135.681,271.282"/>
		<path fill="#C7CFE2" d="M122.315,330.764h-85.53c-1.476,0-2.672-1.108-2.672-2.478c0-1.368,1.196-2.479,2.672-2.479h85.53
			c1.478,0,2.676,1.111,2.676,2.479C124.991,329.655,123.793,330.764,122.315,330.764L122.315,330.764z M122.315,330.764"/>
		<path fill="#C7CFE2" d="M122.315,340.679h-85.53c-1.476,0-2.672-1.111-2.672-2.479c0-1.37,1.196-2.479,2.672-2.479h85.53
			c1.478,0,2.676,1.108,2.676,2.479C124.989,339.567,123.793,340.679,122.315,340.679L122.315,340.679z M122.315,340.679"/>
		<path fill="#C7CFE2" d="M122.315,350.594h-85.53c-1.476,0-2.672-1.111-2.672-2.479c0-1.37,1.196-2.478,2.672-2.478h85.53
			c1.478,0,2.676,1.107,2.676,2.478C124.991,349.482,123.793,350.594,122.315,350.594L122.315,350.594z M122.315,350.594"/>
		<path fill="#C7CFE2" d="M122.315,360.506h-85.53c-1.476,0-2.672-1.11-2.672-2.479s1.196-2.478,2.672-2.478h85.53
			c1.478,0,2.676,1.109,2.676,2.478S123.793,360.506,122.315,360.506L122.315,360.506z M122.315,360.506"/>
		<g>
			<defs>
				<rect id="SVGID_3_" x="15.403" y="271.169" width="128.258" height="144.199"/>
			</defs>
			<clipPath id="SVGID_4_">
				<use xlink:href="#SVGID_3_"  overflow="visible"/>
			</clipPath>
			<path clip-path="url(#SVGID_4_)" fill="#C7CFE2" d="M122.315,370.42h-85.53c-1.476,0-2.672-1.109-2.672-2.478
				c0-1.37,1.196-2.479,2.672-2.479h85.53c1.478,0,2.676,1.108,2.676,2.479C124.989,369.311,123.793,370.42,122.315,370.42
				L122.315,370.42z M122.315,370.42"/>
			<path clip-path="url(#SVGID_4_)" fill="#FFD782" d="M15.403,335.722l64.146,47.092l64.151-47.092v74.354
				c0,2.737-2.396,4.957-5.348,4.957H20.748c-2.95,0-5.345-2.22-5.345-4.957V335.722z M15.403,335.722"/>
		</g>
		<path fill="#FEC470" d="M91.163,376.468c-6.803-4.997-16.42-4.997-23.227,0l-50.767,37.266c0.949,0.798,2.197,1.3,3.579,1.3
			h117.604c1.382,0,2.63-0.502,3.579-1.3L91.163,376.468z M91.163,376.468"/>
		<path fill="#AFB9D2" d="M122.315,288.632h-18.708c-1.476,0-2.673-1.11-2.673-2.479c0-1.367,1.197-2.479,2.673-2.479h18.708
			c1.478,0,2.674,1.111,2.674,2.479C124.989,287.521,123.793,288.632,122.315,288.632L122.315,288.632z M122.315,288.632"/>
		<path fill="#AFB9D2" d="M122.315,298.549H92.916c-1.479,0-2.674-1.112-2.674-2.48s1.195-2.479,2.674-2.479h29.399
			c1.478,0,2.674,1.11,2.674,2.479S123.793,298.549,122.315,298.549L122.315,298.549z M122.315,298.549"/>
		<path fill="#AFB9D2" d="M103.606,315.896H55.495c-1.474,0-2.674-1.11-2.674-2.479c0-1.369,1.2-2.479,2.674-2.479h48.112
			c1.477,0,2.673,1.11,2.673,2.479C106.279,314.785,105.083,315.896,103.606,315.896L103.606,315.896z M103.606,315.896"/>
	</g>
	<g>
		<g>
			<defs>
				<rect id="SVGID_5_" x="102.725" y="329.124" width="128.258" height="144.197"/>
			</defs>
			<clipPath id="SVGID_6_">
				<use xlink:href="#SVGID_5_"  overflow="visible"/>
			</clipPath>
			<path clip-path="url(#SVGID_6_)" fill="#FEC470" d="M166.872,346.584l-64.147,47.09l64.147,47.093l64.15-47.093L166.872,346.584z
				 M166.872,346.584"/>
		</g>
		<path fill="#F0F3FA" d="M223.002,329.234H110.745c-1.478,0-2.674,1.111-2.674,2.479v101.615h117.603V331.714
			C225.674,330.346,224.478,329.234,223.002,329.234L223.002,329.234z M223.002,329.234"/>
		<path fill="#C7CFE2" d="M209.639,388.718h-85.531c-1.478,0-2.673-1.109-2.673-2.479c0-1.369,1.195-2.477,2.673-2.477h85.533
			c1.474,0,2.672,1.107,2.672,2.477C212.313,387.608,211.115,388.718,209.639,388.718L209.639,388.718z M209.639,388.718"/>
		<path fill="#C7CFE2" d="M209.639,398.63h-85.531c-1.478,0-2.673-1.107-2.673-2.476c0-1.373,1.195-2.48,2.673-2.48h85.533
			c1.474,0,2.672,1.107,2.672,2.48C212.311,397.522,211.115,398.63,209.639,398.63L209.639,398.63z M209.639,398.63"/>
		<path fill="#C7CFE2" d="M209.639,408.544h-85.531c-1.478,0-2.673-1.108-2.673-2.478c0-1.37,1.195-2.478,2.673-2.478h85.533
			c1.474,0,2.672,1.107,2.672,2.478C212.313,407.436,211.115,408.544,209.639,408.544L209.639,408.544z M209.639,408.544"/>
		<path fill="#C7CFE2" d="M209.639,418.459h-85.531c-1.478,0-2.673-1.113-2.673-2.478c0-1.37,1.195-2.479,2.673-2.479h85.533
			c1.474,0,2.672,1.108,2.672,2.479C212.313,417.346,211.115,418.459,209.639,418.459L209.639,418.459z M209.639,418.459"/>
		<g>
			<defs>
				<rect id="SVGID_7_" x="102.725" y="329.124" width="128.258" height="144.197"/>
			</defs>
			<clipPath id="SVGID_8_">
				<use xlink:href="#SVGID_7_"  overflow="visible"/>
			</clipPath>
			<path clip-path="url(#SVGID_8_)" fill="#C7CFE2" d="M209.639,428.372h-85.531c-1.478,0-2.673-1.11-2.673-2.474
				c0-1.372,1.195-2.48,2.673-2.48h85.533c1.474,0,2.672,1.108,2.672,2.48C212.311,427.262,211.115,428.372,209.639,428.372
				L209.639,428.372z M209.639,428.372"/>
			<path clip-path="url(#SVGID_8_)" fill="#FFD782" d="M102.725,393.674l64.147,47.093l64.15-47.093v74.354
				c0,2.737-2.395,4.956-5.348,4.956H108.071c-2.951,0-5.346-2.219-5.346-4.956V393.674z M102.725,393.674"/>
		</g>
		<path fill="#FEC470" d="M178.486,434.419c-6.804-4.995-16.421-4.995-23.226,0l-50.768,37.27c0.948,0.799,2.198,1.296,3.579,1.296
			h117.603c1.383,0,2.631-0.499,3.58-1.296L178.486,434.419z M178.486,434.419"/>
		<path fill="#AFB9D2" d="M209.639,346.584h-18.712c-1.474,0-2.673-1.109-2.673-2.479c0-1.368,1.199-2.478,2.673-2.478h18.712
			c1.476,0,2.672,1.109,2.672,2.478C212.311,345.475,211.115,346.584,209.639,346.584L209.639,346.584z M209.639,346.584"/>
		<path fill="#AFB9D2" d="M209.639,356.499h-29.4c-1.479,0-2.675-1.111-2.675-2.478c0-1.37,1.196-2.479,2.675-2.479h29.4
			c1.476,0,2.672,1.109,2.672,2.479C212.311,355.388,211.115,356.499,209.639,356.499L209.639,356.499z M209.639,356.499"/>
		<path fill="#AFB9D2" d="M190.927,373.847h-48.109c-1.476,0-2.675-1.107-2.675-2.478c0-1.368,1.199-2.478,2.675-2.478h48.109
			c1.479,0,2.674,1.109,2.674,2.478C193.601,372.739,192.405,373.847,190.927,373.847L190.927,373.847z M190.927,373.847"/>
	</g>
	<g>
		<path fill="#F0F3FA" d="M242.59,231.979c0,4.29-3.477,7.772-7.771,7.772c-4.288,0-7.769-3.482-7.769-7.772
			s3.481-7.772,7.769-7.772C239.114,224.206,242.59,227.688,242.59,231.979z"/>
		<path fill="#F0F3FA" d="M259.343,245.323c-0.02,0-0.045-0.008-0.061-0.008h-9.083c-0.018,0-0.041,0.008-0.053,0.008
			c-0.064,0.016-6.499,1.665-6.499,11.082c0,8.244,3.124,9.397,4.044,9.558l0.246,11.619c0.006,0.138,0.119,0.253,0.247,0.253
			h13.111c0.142,0,0.251-0.115,0.257-0.253l0.241-11.619c0.92-0.16,4.042-1.313,4.042-9.558
			C265.836,246.988,259.397,245.339,259.343,245.323z"/>
		<path fill="#F0F3FA" d="M261.932,236.873c0,3.822-3.101,6.929-6.931,6.929c-3.831,0-6.931-3.107-6.931-6.929
			c0-3.832,3.1-6.934,6.931-6.934C258.831,229.938,261.932,233.041,261.932,236.873z"/>
		<path fill="#F0F3FA" d="M245.833,247.156c-2.072-4.681-5.948-5.694-5.999-5.707c-0.027,0-0.044-0.011-0.07-0.011h-10.173
			c-0.018,0-0.035,0.011-0.059,0.011c-0.059,0.013-3.861,1.014-5.943,5.589c1.664,1.797,3.208,4.723,3.208,9.42
			c0,3.602-0.58,5.966-1.354,7.543c0.55,0.383,1.041,0.531,1.329,0.578l0.279,13.034c0.006,0.149,0.131,0.274,0.284,0.274h14.692
			c0.155,0,0.274-0.125,0.282-0.274l0.277-13.034c0.317-0.051,0.862-0.211,1.468-0.671c-0.754-1.58-1.314-3.913-1.314-7.45
			C242.74,251.865,244.209,248.972,245.833,247.156z"/>
		<g>
			<path fill="#F0F3FA" d="M219.345,245.323c-0.018,0-0.035-0.008-0.055-0.008h-9.079c-0.021,0-0.045,0.008-0.057,0.008
				c-0.064,0.016-6.503,1.665-6.503,11.082c0,8.244,3.117,9.397,4.041,9.558l0.249,11.619c0.006,0.138,0.114,0.253,0.25,0.253
				h13.114c0.132,0,0.25-0.115,0.25-0.253l0.244-11.619c0.921-0.16,4.041-1.313,4.041-9.558
				C225.842,246.988,219.411,245.339,219.345,245.323z"/>
			<path fill="#F0F3FA" d="M221.809,236.873c0,3.822-3.107,6.929-6.935,6.929c-3.829,0-6.932-3.107-6.932-6.929
				c0-3.832,3.104-6.934,6.932-6.934C218.702,229.938,221.809,233.041,221.809,236.873z"/>
		</g>
	</g>
</g>
</svg>
