<?xml version="1.0" encoding="utf-8"?>
<!-- Generator: Adobe Illustrator 16.0.0, SVG Export Plug-In . SVG Version: 6.00 Build 0)  -->
<!DOCTYPE svg PUBLIC "-//W3C//DTD SVG 1.1//EN" "http://www.w3.org/Graphics/SVG/1.1/DTD/svg11.dtd">
<svg version="1.1" id="Capa_1" xmlns="http://www.w3.org/2000/svg" xmlns:xlink="http://www.w3.org/1999/xlink" x="0px" y="0px"
	 width="200px" height="200px" viewBox="0 0 200 200" enable-background="new 0 0 200 200" xml:space="preserve">
<g>
	<g>
		<defs>
			<rect id="SVGID_1_" x="-28.931" y="-89.488" width="281.966" height="501.271"/>
		</defs>
		<clipPath id="SVGID_2_">
			<use xlink:href="#SVGID_1_"  overflow="visible"/>
		</clipPath>
		<path clip-path="url(#SVGID_2_)" fill="#F8E78D" d="M180.806,103.693c0,44.024-35.688,79.711-79.712,79.711
			c-44.023,0-79.712-35.687-79.712-79.711s35.688-79.711,79.712-79.711C145.118,23.982,180.806,59.669,180.806,103.693"/>
		<path clip-path="url(#SVGID_2_)" fill="#CD6C66" d="M197.192,85.909l-6.748,5.398V73.838h6.352c0.878,0,1.588,0.709,1.588,1.587
			v8.002C198.384,84.393,197.947,85.305,197.192,85.909"/>
		<path clip-path="url(#SVGID_2_)" fill="#E7B85A" d="M197.192,77.968l-6.748,5.399V65.896h6.354c0.875,0,1.586,0.71,1.586,1.588
			v8.004C198.384,76.452,197.947,77.365,197.192,77.968"/>
		<path clip-path="url(#SVGID_2_)" fill="#F9E76E" d="M197.192,70.025l-6.748,5.399V57.955h6.352c0.878,0,1.588,0.71,1.588,1.587
			v8.003C198.384,68.51,197.947,69.422,197.192,70.025"/>
		<path clip-path="url(#SVGID_2_)" fill="#BCCF77" d="M197.192,62.085l-6.748,5.399V50.014h6.352c0.878,0,1.588,0.71,1.588,1.588
			v8.003C198.384,60.569,197.947,61.482,197.192,62.085"/>
		<path clip-path="url(#SVGID_2_)" fill="#8DC4EB" d="M197.192,54.144l-6.748,5.398v-17.47h6.352c0.878,0,1.588,0.71,1.588,1.588
			v8.003C198.384,52.629,197.947,53.541,197.192,54.144"/>
		<path clip-path="url(#SVGID_2_)" fill="#DFA461" d="M192.032,129.426h-68.294c-0.878,0-1.588-0.711-1.588-1.588V38.896
			c0-0.876,0.71-1.588,1.588-1.588h68.294c0.877,0,1.589,0.712,1.589,1.588v88.942C193.621,128.715,192.909,129.426,192.032,129.426
			"/>
		<path clip-path="url(#SVGID_2_)" fill="#5E5F6E" d="M143.092,131.093h-12.705c-0.878,0-1.588-0.711-1.588-1.588V40.563
			c0-0.876,0.71-1.588,1.588-1.588h12.705V131.093z"/>
		<path clip-path="url(#SVGID_2_)" fill="#767788" d="M125.325,53.19h-6.353c-0.877,0-1.588-0.711-1.588-1.589
			s0.711-1.587,1.588-1.587h6.353c0.878,0,1.588,0.71,1.588,1.587S126.203,53.19,125.325,53.19"/>
		<path clip-path="url(#SVGID_2_)" fill="#767788" d="M125.325,45.248h-6.353c-0.877,0-1.588-0.709-1.588-1.588
			c0-0.876,0.711-1.587,1.588-1.587h6.353c0.878,0,1.588,0.71,1.588,1.587C126.913,44.538,126.203,45.248,125.325,45.248"/>
		<path clip-path="url(#SVGID_2_)" fill="#767788" d="M131.974,126.328h-6.353c-0.877,0-1.588-0.712-1.588-1.589
			s0.711-1.588,1.588-1.588h6.353c0.878,0,1.588,0.711,1.588,1.588C133.562,125.618,132.852,126.328,131.974,126.328"/>
		<path clip-path="url(#SVGID_2_)" fill="#767788" d="M125.325,61.13h-6.353c-0.877,0-1.588-0.709-1.588-1.588
			c0-0.877,0.711-1.588,1.588-1.588h6.353c0.878,0,1.588,0.711,1.588,1.588C126.913,60.421,126.203,61.13,125.325,61.13"/>
		<path clip-path="url(#SVGID_2_)" fill="#767788" d="M125.325,69.072h-6.353c-0.877,0-1.588-0.712-1.588-1.588
			c0-0.878,0.711-1.588,1.588-1.588h6.353c0.878,0,1.588,0.71,1.588,1.588C126.913,68.36,126.203,69.072,125.325,69.072"/>
		<path clip-path="url(#SVGID_2_)" fill="#767788" d="M125.325,77.013h-6.353c-0.877,0-1.588-0.71-1.588-1.589
			c0-0.876,0.711-1.587,1.588-1.587h6.353c0.878,0,1.588,0.711,1.588,1.587C126.913,76.303,126.203,77.013,125.325,77.013"/>
		<path clip-path="url(#SVGID_2_)" fill="#767788" d="M125.325,84.955h-6.353c-0.877,0-1.588-0.711-1.588-1.588
			c0-0.878,0.711-1.588,1.588-1.588h6.353c0.878,0,1.588,0.71,1.588,1.588C126.913,84.244,126.203,84.955,125.325,84.955"/>
		<path clip-path="url(#SVGID_2_)" fill="#767788" d="M125.325,92.895h-6.353c-0.877,0-1.588-0.71-1.588-1.588
			c0-0.876,0.711-1.589,1.588-1.589h6.353c0.878,0,1.588,0.713,1.588,1.589C126.913,92.185,126.203,92.895,125.325,92.895"/>
		<path clip-path="url(#SVGID_2_)" fill="#767788" d="M125.325,100.837h-6.353c-0.877,0-1.588-0.711-1.588-1.588
			c0-0.878,0.711-1.588,1.588-1.588h6.353c0.878,0,1.588,0.71,1.588,1.588C126.913,100.126,126.203,100.837,125.325,100.837"/>
		<path clip-path="url(#SVGID_2_)" fill="#767788" d="M131.974,110.445h-6.353c-0.877,0-1.588-0.712-1.588-1.589
			c0-0.876,0.711-1.588,1.588-1.588h6.353c0.878,0,1.588,0.712,1.588,1.588C133.562,109.733,132.852,110.445,131.974,110.445"/>
		<path clip-path="url(#SVGID_2_)" fill="#767788" d="M131.974,118.385h-6.353c-0.877,0-1.588-0.71-1.588-1.588
			c0-0.876,0.711-1.588,1.588-1.588h6.353c0.878,0,1.588,0.712,1.588,1.588C133.562,117.675,132.852,118.385,131.974,118.385"/>
		<path clip-path="url(#SVGID_2_)" fill="#494954" d="M138.327,127.917c-0.877,0-1.589-0.713-1.589-1.59V43.739
			c0-0.878,0.712-1.589,1.589-1.589c0.878,0,1.589,0.711,1.589,1.589v82.588C139.916,127.204,139.205,127.917,138.327,127.917"/>
		<path clip-path="url(#SVGID_2_)" fill="#FBF2CD" d="M171.386,89.511v-2.082c1.021-0.772,1.715-1.904,1.876-3.188l0.308-2.463
			h0.048c0.555,0,1.038-0.378,1.174-0.916l0.789-3.156c0.242-0.972-0.339-1.91-1.237-2.189c0.141-1.215,0.219-2.435,0.219-3.658
			V70.66c0-3.508-2.845-6.353-6.353-6.353h-6.354c-3.508,0-6.352,2.845-6.352,6.353v1.199c0,1.223,0.076,2.442,0.218,3.658
			c-0.896,0.279-1.479,1.217-1.236,2.189l0.788,3.156c0.135,0.538,0.619,0.916,1.174,0.916h0.048l0.309,2.463
			c0.159,1.284,0.854,2.416,1.875,3.188v2.082c0,1.063-0.705,1.998-1.728,2.291l-7.087,2.023c-1.363,0.391-2.303,1.637-2.303,3.055
			v3.957c0,0.877,0.711,1.588,1.588,1.588h31.765c0.878,0,1.59-0.711,1.59-1.588V96.88c0-1.418-0.94-2.665-2.305-3.055l-7.086-2.023
			C172.091,91.509,171.386,90.575,171.386,89.511"/>
		<path clip-path="url(#SVGID_2_)" fill="#D7914A" d="M168.209,64.307c3.508,0,6.353,2.845,6.353,6.354v1.199
			c0,1.223-0.079,2.444-0.219,3.658c0.898,0.279,1.479,1.217,1.237,2.189l-0.789,3.157c-0.136,0.538-0.619,0.916-1.174,0.916h-0.048
			l-0.308,2.463c-0.161,1.283-0.855,2.416-1.876,3.187v2.083c0,1.063,0.705,1.998,1.728,2.29l7.085,2.024
			c1.363,0.391,2.305,1.637,2.305,3.055v3.957c0,0.877-0.711,1.588-1.59,1.588h-31.764c-0.877,0-1.588-0.711-1.588-1.588V96.88
			c0-1.418,0.939-2.664,2.303-3.055l7.087-2.023c1.022-0.293,1.728-1.228,1.728-2.291v-2.082c-1.021-0.771-1.716-1.904-1.876-3.188
			l-0.308-2.463h-0.048c-0.555,0-1.039-0.378-1.174-0.916l-0.788-3.157c-0.243-0.971,0.34-1.91,1.236-2.189
			c-0.142-1.215-0.22-2.435-0.22-3.658v-1.199c0-3.508,2.846-6.354,6.354-6.354H168.209 M168.209,61.13h-6.354
			c-5.255,0-9.529,4.276-9.529,9.53v1.199c0,0.725,0.025,1.466,0.074,2.22c-0.978,1.188-1.396,2.804-0.997,4.398l0.789,3.156
			c0.223,0.893,0.71,1.664,1.363,2.236l0.096,0.766c0.194,1.551,0.838,2.979,1.853,4.149v0.127l-6.512,1.859
			c-2.713,0.775-4.607,3.289-4.607,6.109v3.957c0,2.627,2.138,4.764,4.765,4.764h31.765c2.628,0,4.765-2.137,4.765-4.764V96.88
			c0-2.82-1.895-5.334-4.607-6.109l-6.51-1.859v-0.127c1.014-1.17,1.658-2.599,1.852-4.149l0.096-0.771
			c0.655-0.572,1.14-1.341,1.363-2.231l0.79-3.155c0.397-1.594-0.021-3.21-1-4.398c0.05-0.753,0.075-1.496,0.075-2.219V70.66
			C177.737,65.405,173.463,61.13,168.209,61.13"/>
		<path clip-path="url(#SVGID_2_)" fill="#FFFFFF" d="M66.062,21.922L66.062,21.922C40.108,21.923,19.07,42.962,19.07,68.914
			c0,25.953,21.038,46.991,46.99,46.991h0.001c25.951,0,46.992-21.038,46.992-46.991C113.054,42.961,92.013,21.922,66.062,21.922"/>
		<path clip-path="url(#SVGID_2_)" fill="#FBFBFB" d="M66.062,21.922L66.062,21.922l-0.001,93.982h0.001
			c25.951,0,46.992-21.038,46.992-46.991C113.054,42.961,92.013,21.922,66.062,21.922"/>
		<path clip-path="url(#SVGID_2_)" fill="#3A3933" d="M78.782,64.376l-11.025-8.011c-0.506-0.369-1.101-0.552-1.696-0.551
			c-0.595,0-1.188,0.184-1.692,0.551l-11.027,8.011c-1.01,0.733-1.432,2.034-1.047,3.222l4.211,12.961
			c0.387,1.188,1.494,1.992,2.742,1.992h13.629c1.249,0,2.356-0.804,2.742-1.992l4.211-12.961
			C80.216,66.41,79.794,65.109,78.782,64.376"/>
		<path clip-path="url(#SVGID_2_)" d="M78.782,64.376l-11.025-8.011c-0.506-0.369-1.101-0.552-1.696-0.551v26.737h6.815
			c1.249,0,2.356-0.804,2.742-1.992l4.211-12.961C80.216,66.41,79.794,65.109,78.782,64.376"/>
		<path clip-path="url(#SVGID_2_)" fill="#3A3933" d="M66.062,21.922L66.062,21.922c-4.639,0-9.118,0.676-13.352,1.928l5.312,9.201
			c0.517,0.892,1.468,1.441,2.497,1.441h11.086c1.029,0,1.982-0.55,2.498-1.441l5.312-9.201
			C75.181,22.597,70.702,21.922,66.062,21.922"/>
		<path clip-path="url(#SVGID_2_)" d="M66.062,21.922L66.062,21.922l-0.001,12.57h5.544c1.029,0,1.982-0.55,2.498-1.441l5.312-9.201
			C75.181,22.597,70.702,21.922,66.062,21.922"/>
		<path clip-path="url(#SVGID_2_)" fill="#3A3933" d="M27.336,42.296c-4.995,7.253-8.007,15.975-8.249,25.39l10.383-2.208
			c1.008-0.214,1.824-0.95,2.142-1.928l3.427-10.543c0.318-0.98,0.089-2.054-0.599-2.821L27.336,42.296z"/>
		<path clip-path="url(#SVGID_2_)" fill="#3A3933" d="M50.313,100.02l-8.968-6.517c-0.833-0.605-1.926-0.721-2.867-0.302
			l-9.697,4.317c5.479,7.13,12.957,12.643,21.595,15.702l1.11-10.567C51.595,101.629,51.147,100.624,50.313,100.02"/>
		<path clip-path="url(#SVGID_2_)" d="M90.778,93.502l-8.969,6.518c-0.832,0.605-1.279,1.609-1.172,2.634l1.11,10.565
			c8.64-3.059,16.114-8.57,21.595-15.7l-9.697-4.317C92.704,92.781,91.611,92.897,90.778,93.502"/>
		<path clip-path="url(#SVGID_2_)" d="M104.789,42.296l-7.103,7.889c-0.689,0.767-0.918,1.84-0.602,2.821l3.426,10.543
			c0.319,0.979,1.137,1.714,2.143,1.928l10.386,2.207C112.796,58.271,109.782,49.549,104.789,42.296"/>
		<path clip-path="url(#SVGID_2_)" fill="#F9FAFD" d="M146.529,196.265H44.148c-2.175,0-3.938-1.763-3.938-3.938V117.51h110.257
			v74.816C150.467,194.502,148.704,196.265,146.529,196.265"/>
		<rect x="40.209" y="117.51" clip-path="url(#SVGID_2_)" fill="#E5E8F3" width="110.258" height="7.875"/>
		<path clip-path="url(#SVGID_2_)" fill="#CD6C66" d="M150.467,121.447H40.209c-1.085,0-1.967-0.883-1.967-1.969v-11.813
			c0-1.088,0.882-1.969,1.967-1.969h110.258c1.087,0,1.97,0.881,1.97,1.969v11.813C152.437,120.564,151.554,121.447,150.467,121.447
			"/>
		<path clip-path="url(#SVGID_2_)" fill="#BA5D59" d="M150.467,121.447H40.209c-1.085,0-1.967-0.883-1.967-1.969
			s0.882-1.969,1.967-1.969h110.258c1.087,0,1.97,0.883,1.97,1.969S151.554,121.447,150.467,121.447"/>
		<path clip-path="url(#SVGID_2_)" fill="#D5DAEA" d="M134.717,111.603c-1.089,0-1.97-0.88-1.97-1.969v-7.876
			c0-1.087,0.881-1.969,1.97-1.969c1.087,0,1.969,0.882,1.969,1.969v7.876C136.684,110.723,135.804,111.603,134.717,111.603"/>
		<path clip-path="url(#SVGID_2_)" fill="#D5DAEA" d="M144.561,111.603c-1.088,0-1.969-0.88-1.969-1.969v-7.876
			c0-1.087,0.881-1.969,1.969-1.969s1.969,0.882,1.969,1.969v7.876C146.529,110.723,145.648,111.603,144.561,111.603"/>
		<path clip-path="url(#SVGID_2_)" fill="#D5DAEA" d="M46.116,111.603c-1.086,0-1.967-0.88-1.967-1.969v-7.876
			c0-1.087,0.881-1.969,1.967-1.969c1.087,0,1.969,0.882,1.969,1.969v7.876C48.085,110.723,47.203,111.603,46.116,111.603"/>
		<path clip-path="url(#SVGID_2_)" fill="#D5DAEA" d="M124.871,111.603c-1.087,0-1.969-0.88-1.969-1.969v-7.876
			c0-1.087,0.882-1.969,1.969-1.969c1.088,0,1.97,0.882,1.97,1.969v7.876C126.841,110.723,125.959,111.603,124.871,111.603"/>
		<path clip-path="url(#SVGID_2_)" fill="#D5DAEA" d="M115.027,111.603c-1.088,0-1.969-0.88-1.969-1.969v-7.876
			c0-1.087,0.881-1.969,1.969-1.969c1.086,0,1.97,0.882,1.97,1.969v7.876C116.996,110.723,116.113,111.603,115.027,111.603"/>
		<path clip-path="url(#SVGID_2_)" fill="#D5DAEA" d="M105.183,111.603c-1.086,0-1.969-0.88-1.969-1.969v-7.876
			c0-1.087,0.883-1.969,1.969-1.969c1.088,0,1.969,0.882,1.969,1.969v7.876C107.151,110.723,106.271,111.603,105.183,111.603"/>
		<path clip-path="url(#SVGID_2_)" fill="#D5DAEA" d="M95.339,111.603c-1.09,0-1.969-0.88-1.969-1.969v-7.876
			c0-1.087,0.879-1.969,1.969-1.969c1.086,0,1.969,0.882,1.969,1.969v7.876C97.308,110.723,96.425,111.603,95.339,111.603"/>
		<path clip-path="url(#SVGID_2_)" fill="#D5DAEA" d="M85.493,111.603c-1.086,0-1.969-0.88-1.969-1.969v-7.876
			c0-1.087,0.883-1.969,1.969-1.969c1.089,0,1.969,0.882,1.969,1.969v7.876C87.462,110.723,86.582,111.603,85.493,111.603"/>
		<path clip-path="url(#SVGID_2_)" fill="#D5DAEA" d="M75.65,111.603c-1.089,0-1.97-0.88-1.97-1.969v-7.876
			c0-1.087,0.881-1.969,1.97-1.969c1.086,0,1.969,0.882,1.969,1.969v7.876C77.619,110.723,76.736,111.603,75.65,111.603"/>
		<path clip-path="url(#SVGID_2_)" fill="#D5DAEA" d="M65.804,111.603c-1.086,0-1.968-0.88-1.968-1.969v-7.876
			c0-1.087,0.882-1.969,1.968-1.969c1.088,0,1.971,0.882,1.971,1.969v7.876C67.774,110.723,66.892,111.603,65.804,111.603"/>
		<path clip-path="url(#SVGID_2_)" fill="#D5DAEA" d="M55.962,111.603c-1.088,0-1.97-0.88-1.97-1.969v-7.876
			c0-1.087,0.882-1.969,1.97-1.969c1.085,0,1.967,0.882,1.967,1.969v7.876C57.929,110.723,57.047,111.603,55.962,111.603"/>
		<path clip-path="url(#SVGID_2_)" fill="#E5E8F3" d="M59.899,149.011h-7.876c-1.087,0-1.969-0.881-1.969-1.969v-3.936
			c0-1.09,0.882-1.97,1.969-1.97h7.876c1.086,0,1.967,0.88,1.967,1.97v3.936C61.866,148.13,60.985,149.011,59.899,149.011"/>
		<path clip-path="url(#SVGID_2_)" fill="#E5E8F3" d="M59.899,172.638h-7.876c-1.087,0-1.969-0.882-1.969-1.969v-3.938
			c0-1.088,0.882-1.971,1.969-1.971h7.876c1.086,0,1.967,0.883,1.967,1.971v3.938C61.866,171.756,60.985,172.638,59.899,172.638"/>
		<path clip-path="url(#SVGID_2_)" fill="#E5E8F3" d="M59.899,160.825h-7.876c-1.087,0-1.969-0.883-1.969-1.969v-3.938
			c0-1.089,0.882-1.971,1.969-1.971h7.876c1.086,0,1.967,0.882,1.967,1.971v3.938C61.866,159.942,60.985,160.825,59.899,160.825"/>
		<path clip-path="url(#SVGID_2_)" fill="#E5E8F3" d="M59.899,184.45h-7.876c-1.087,0-1.969-0.88-1.969-1.969v-3.938
			c0-1.088,0.882-1.968,1.969-1.968h7.876c1.086,0,1.967,0.88,1.967,1.968v3.938C61.866,183.57,60.985,184.45,59.899,184.45"/>
		<path clip-path="url(#SVGID_2_)" fill="#E5E8F3" d="M75.65,149.011h-7.876c-1.088,0-1.971-0.881-1.971-1.969v-3.936
			c0-1.09,0.883-1.97,1.971-1.97h7.876c1.086,0,1.969,0.88,1.969,1.97v3.936C77.619,148.13,76.736,149.011,75.65,149.011"/>
		<path clip-path="url(#SVGID_2_)" fill="#E5E8F3" d="M75.65,172.638h-7.876c-1.088,0-1.971-0.882-1.971-1.969v-3.938
			c0-1.088,0.883-1.971,1.971-1.971h7.876c1.086,0,1.969,0.883,1.969,1.971v3.938C77.619,171.756,76.736,172.638,75.65,172.638"/>
		<path clip-path="url(#SVGID_2_)" fill="#E5E8F3" d="M75.65,184.45h-7.876c-1.088,0-1.971-0.88-1.971-1.969v-3.938
			c0-1.088,0.883-1.968,1.971-1.968h7.876c1.086,0,1.969,0.88,1.969,1.968v3.938C77.619,183.57,76.736,184.45,75.65,184.45"/>
		<path clip-path="url(#SVGID_2_)" fill="#E5E8F3" d="M75.65,160.825h-7.876c-1.088,0-1.971-0.883-1.971-1.969v-3.938
			c0-1.089,0.883-1.971,1.971-1.971h7.876c1.086,0,1.969,0.882,1.969,1.971v3.938C77.619,159.942,76.736,160.825,75.65,160.825"/>
		<path clip-path="url(#SVGID_2_)" fill="#E5E8F3" d="M91.401,149.011h-7.875c-1.089,0-1.969-0.881-1.969-1.969v-3.936
			c0-1.09,0.88-1.97,1.969-1.97h7.875c1.086,0,1.968,0.88,1.968,1.97v3.936C93.369,148.13,92.487,149.011,91.401,149.011"/>
		<path clip-path="url(#SVGID_2_)" fill="#E5E8F3" d="M91.401,160.825h-7.875c-1.089,0-1.969-0.883-1.969-1.969v-3.938
			c0-1.089,0.88-1.971,1.969-1.971h7.875c1.086,0,1.968,0.882,1.968,1.971v3.938C93.369,159.942,92.487,160.825,91.401,160.825"/>
		<path clip-path="url(#SVGID_2_)" fill="#E5E8F3" d="M107.151,149.011h-7.875c-1.088,0-1.969-0.881-1.969-1.969v-3.936
			c0-1.09,0.881-1.97,1.969-1.97h7.875c1.088,0,1.969,0.88,1.969,1.97v3.936C109.12,148.13,108.239,149.011,107.151,149.011"/>
		<path clip-path="url(#SVGID_2_)" fill="#E5E8F3" d="M107.151,160.825h-7.875c-1.088,0-1.969-0.883-1.969-1.969v-3.938
			c0-1.089,0.881-1.971,1.969-1.971h7.875c1.088,0,1.969,0.882,1.969,1.971v3.938C109.12,159.942,108.239,160.825,107.151,160.825"
			/>
		<path clip-path="url(#SVGID_2_)" fill="#E5E8F3" d="M91.401,172.638h-7.875c-1.089,0-1.969-0.882-1.969-1.969v-3.938
			c0-1.088,0.88-1.971,1.969-1.971h7.875c1.086,0,1.968,0.883,1.968,1.971v3.938C93.369,171.756,92.487,172.638,91.401,172.638"/>
		<path clip-path="url(#SVGID_2_)" fill="#E5E8F3" d="M107.151,172.638h-7.875c-1.088,0-1.969-0.882-1.969-1.969v-3.938
			c0-1.088,0.881-1.971,1.969-1.971h7.875c1.088,0,1.969,0.883,1.969,1.971v3.938C109.12,171.756,108.239,172.638,107.151,172.638"
			/>
		<path clip-path="url(#SVGID_2_)" fill="#E5E8F3" d="M91.401,184.45h-7.875c-1.089,0-1.969-0.88-1.969-1.969v-3.938
			c0-1.088,0.88-1.968,1.969-1.968h7.875c1.086,0,1.968,0.88,1.968,1.968v3.938C93.369,183.57,92.487,184.45,91.401,184.45"/>
		<path clip-path="url(#SVGID_2_)" fill="#E5E8F3" d="M107.151,184.45h-7.875c-1.088,0-1.969-0.88-1.969-1.969v-3.938
			c0-1.088,0.881-1.968,1.969-1.968h7.875c1.088,0,1.969,0.88,1.969,1.968v3.938C109.12,183.57,108.239,184.45,107.151,184.45"/>
		<path clip-path="url(#SVGID_2_)" fill="#E5E8F3" d="M122.902,149.011h-7.875c-1.088,0-1.969-0.881-1.969-1.969v-3.936
			c0-1.09,0.881-1.97,1.969-1.97h7.875c1.088,0,1.969,0.88,1.969,1.97v3.936C124.871,148.13,123.99,149.011,122.902,149.011"/>
		<path clip-path="url(#SVGID_2_)" fill="#E5E8F3" d="M122.902,172.638h-7.875c-1.088,0-1.969-0.882-1.969-1.969v-3.938
			c0-1.088,0.881-1.971,1.969-1.971h7.875c1.088,0,1.969,0.883,1.969,1.971v3.938C124.871,171.756,123.99,172.638,122.902,172.638"
			/>
		<path clip-path="url(#SVGID_2_)" fill="#E5E8F3" d="M122.902,184.45h-7.875c-1.088,0-1.969-0.88-1.969-1.969v-3.938
			c0-1.088,0.881-1.968,1.969-1.968h7.875c1.088,0,1.969,0.88,1.969,1.968v3.938C124.871,183.57,123.99,184.45,122.902,184.45"/>
		<path clip-path="url(#SVGID_2_)" fill="#E5E8F3" d="M122.902,160.825h-7.875c-1.088,0-1.969-0.883-1.969-1.969v-3.938
			c0-1.089,0.881-1.971,1.969-1.971h7.875c1.088,0,1.969,0.882,1.969,1.971v3.938C124.871,159.942,123.99,160.825,122.902,160.825"
			/>
		<path clip-path="url(#SVGID_2_)" fill="#E5E8F3" d="M138.652,149.011h-7.874c-1.087,0-1.968-0.881-1.968-1.969v-3.936
			c0-1.09,0.881-1.97,1.968-1.97h7.874c1.088,0,1.97,0.88,1.97,1.97v3.936C140.622,148.13,139.74,149.011,138.652,149.011"/>
		<path clip-path="url(#SVGID_2_)" fill="#E5E8F3" d="M138.652,172.638h-7.874c-1.087,0-1.968-0.882-1.968-1.969v-3.938
			c0-1.088,0.881-1.971,1.968-1.971h7.874c1.088,0,1.97,0.883,1.97,1.971v3.938C140.622,171.756,139.74,172.638,138.652,172.638"/>
		<path clip-path="url(#SVGID_2_)" fill="#E5E8F3" d="M138.652,160.825h-7.874c-1.087,0-1.968-0.883-1.968-1.969v-3.938
			c0-1.089,0.881-1.971,1.968-1.971h7.874c1.088,0,1.97,0.882,1.97,1.971v3.938C140.622,159.942,139.74,160.825,138.652,160.825"/>
		<path clip-path="url(#SVGID_2_)" fill="#E5E8F3" d="M138.652,184.45h-7.874c-1.087,0-1.968-0.88-1.968-1.969v-3.938
			c0-1.088,0.881-1.968,1.968-1.968h7.874c1.088,0,1.97,0.88,1.97,1.968v3.938C140.622,183.57,139.74,184.45,138.652,184.45"/>
		<path clip-path="url(#SVGID_2_)" fill="#D5DAEA" d="M59.899,137.198h-7.876c-1.087,0-1.969-0.882-1.969-1.968
			c0-1.089,0.882-1.97,1.969-1.97h7.876c1.086,0,1.967,0.881,1.967,1.97C61.866,136.316,60.985,137.198,59.899,137.198"/>
		<path clip-path="url(#SVGID_2_)" fill="#D5DAEA" d="M75.65,137.198h-7.876c-1.088,0-1.971-0.882-1.971-1.968
			c0-1.089,0.883-1.97,1.971-1.97h7.876c1.086,0,1.969,0.881,1.969,1.97C77.619,136.316,76.736,137.198,75.65,137.198"/>
		<path clip-path="url(#SVGID_2_)" fill="#D5DAEA" d="M91.401,137.198h-7.875c-1.089,0-1.969-0.882-1.969-1.968
			c0-1.089,0.88-1.97,1.969-1.97h7.875c1.086,0,1.968,0.881,1.968,1.97C93.369,136.316,92.487,137.198,91.401,137.198"/>
		<path clip-path="url(#SVGID_2_)" fill="#D5DAEA" d="M107.151,137.198h-7.875c-1.088,0-1.969-0.882-1.969-1.968
			c0-1.089,0.881-1.97,1.969-1.97h7.875c1.088,0,1.969,0.881,1.969,1.97C109.12,136.316,108.239,137.198,107.151,137.198"/>
		<path clip-path="url(#SVGID_2_)" fill="#D5DAEA" d="M122.902,137.198h-7.875c-1.088,0-1.969-0.882-1.969-1.968
			c0-1.089,0.881-1.97,1.969-1.97h7.875c1.088,0,1.969,0.881,1.969,1.97C124.871,136.316,123.99,137.198,122.902,137.198"/>
		<path clip-path="url(#SVGID_2_)" fill="#D5DAEA" d="M138.652,137.198h-7.874c-1.087,0-1.968-0.882-1.968-1.968
			c0-1.089,0.881-1.97,1.968-1.97h7.874c1.088,0,1.97,0.881,1.97,1.97C140.622,136.316,139.74,137.198,138.652,137.198"/>
		<path clip-path="url(#SVGID_2_)" fill="#CD6C66" d="M85.493,147.042c-0.502,0-1.006-0.191-1.392-0.576l-3.938-3.938
			c-0.769-0.77-0.769-2.016,0-2.785c0.771-0.77,2.017-0.77,2.785,0l2.545,2.547l6.484-6.483c0.769-0.769,2.014-0.769,2.783,0
			c0.769,0.769,0.769,2.015,0,2.784l-7.874,7.875C86.502,146.851,85.997,147.042,85.493,147.042"/>
		<path clip-path="url(#SVGID_2_)" fill="#CD6C66" d="M116.996,158.856c-0.504,0-1.008-0.193-1.393-0.578l-3.937-3.938
			c-0.77-0.768-0.77-2.015,0-2.783c0.769-0.77,2.014-0.77,2.783,0l2.546,2.546l6.483-6.484c0.769-0.769,2.015-0.769,2.783,0
			c0.769,0.771,0.769,2.017,0,2.784l-7.875,7.875C118.005,158.663,117.5,158.856,116.996,158.856"/>
		<path clip-path="url(#SVGID_2_)" fill="#CD6C66" d="M69.743,182.481c-0.502,0-1.008-0.192-1.393-0.577l-3.938-3.936
			c-0.768-0.77-0.768-2.017,0-2.784c0.771-0.771,2.017-0.771,2.784,0l2.547,2.545l6.482-6.484c0.77-0.77,2.016-0.77,2.784,0
			c0.77,0.771,0.77,2.016,0,2.785l-7.874,7.874C70.75,182.289,70.247,182.481,69.743,182.481"/>
		<path clip-path="url(#SVGID_2_)" fill="#85BCE7" d="M57.93,147.042h-3.938c-1.087,0-1.969-0.882-1.969-1.969
			c0-1.088,0.882-1.971,1.969-1.971h3.938c1.088,0,1.97,0.883,1.97,1.971C59.899,146.16,59.018,147.042,57.93,147.042"/>
		<path clip-path="url(#SVGID_2_)" fill="#85BCE7" d="M136.684,170.669h-3.937c-1.088,0-1.969-0.882-1.969-1.97
			c0-1.086,0.881-1.968,1.969-1.968h3.937c1.089,0,1.969,0.882,1.969,1.968C138.652,169.787,137.772,170.669,136.684,170.669"/>
		<path clip-path="url(#SVGID_2_)" fill="#85BCE7" d="M89.431,158.856h-3.938c-1.086,0-1.969-0.883-1.969-1.971
			c0-1.086,0.883-1.968,1.969-1.968h3.938c1.088,0,1.971,0.882,1.971,1.968C91.401,157.974,90.519,158.856,89.431,158.856"/>
		<path clip-path="url(#SVGID_2_)" fill="#F5DE89" d="M105.183,182.481h-3.937c-1.089,0-1.97-0.881-1.97-1.969
			c0-1.086,0.881-1.97,1.97-1.97h3.937c1.088,0,1.969,0.884,1.969,1.97C107.151,181.601,106.271,182.481,105.183,182.481"/>
		<path clip-path="url(#SVGID_2_)" fill="#F5DE89" d="M73.681,158.856h-3.938c-1.088,0-1.969-0.883-1.969-1.971
			c0-1.086,0.881-1.968,1.969-1.968h3.938c1.088,0,1.97,0.882,1.97,1.968C75.65,157.974,74.769,158.856,73.681,158.856"/>
	</g>
</g>
</svg>
