<?xml version="1.0" encoding="utf-8"?>
<!-- Generator: Adobe Illustrator 16.0.0, SVG Export Plug-In . SVG Version: 6.00 Build 0)  -->
<!DOCTYPE svg PUBLIC "-//W3C//DTD SVG 1.1//EN" "http://www.w3.org/Graphics/SVG/1.1/DTD/svg11.dtd">
<svg version="1.1" id="Capa_1" xmlns="http://www.w3.org/2000/svg" xmlns:xlink="http://www.w3.org/1999/xlink" x="0px" y="0px"
	 width="200px" height="200px" viewBox="0 0 200 200" enable-background="new 0 0 200 200" xml:space="preserve">
<g>
	<defs>
		<rect id="SVGID_1_" x="-38.667" y="-90.134" width="283.579" height="504.14"/>
	</defs>
	<clipPath id="SVGID_2_">
		<use xlink:href="#SVGID_1_"  overflow="visible"/>
	</clipPath>
	<g clip-path="url(#SVGID_2_)">
		<defs>
			<rect id="SVGID_3_" x="-38.667" y="-90.134" width="283.579" height="504.14"/>
		</defs>
		<clipPath id="SVGID_4_">
			<use xlink:href="#SVGID_3_"  overflow="visible"/>
		</clipPath>
		<path clip-path="url(#SVGID_4_)" fill="#88BCB9" d="M180.264,104.25c0,43.793-35.501,79.293-79.294,79.293
			c-43.792,0-79.292-35.5-79.292-79.293c0-43.792,35.501-79.291,79.292-79.291C144.763,24.959,180.264,60.458,180.264,104.25"/>
		<path clip-path="url(#SVGID_4_)" fill="#F9F9F8" d="M135.112,23.395H65.697v18.5c0,2.516-2.041,4.556-4.556,4.556H42.597v102.353
			c0,2.367,1.942,4.285,4.337,4.285h88.178c2.395,0,4.336-1.918,4.336-4.285V27.68C139.448,25.313,137.507,23.395,135.112,23.395"/>
		<path clip-path="url(#SVGID_4_)" fill="#779ACD" d="M118.217,36.907c0,2.032-1.646,3.679-3.679,3.679H87.912
			c-2.032,0-3.678-1.646-3.678-3.679c0-2.03,1.646-3.678,3.678-3.678h26.626C116.57,33.229,118.217,34.876,118.217,36.907"/>
		<path clip-path="url(#SVGID_4_)" fill="#C8CCD0" d="M124.556,46.165c0,0.84-0.681,1.521-1.521,1.521H79.668
			c-0.84,0-1.521-0.682-1.521-1.521s0.681-1.522,1.521-1.522h43.366C123.875,44.642,124.556,45.325,124.556,46.165"/>
		<path clip-path="url(#SVGID_4_)" fill="#C8CCD0" d="M124.556,51.237c0,0.84-0.681,1.521-1.521,1.521H79.668
			c-0.84,0-1.521-0.682-1.521-1.521c0-0.841,0.681-1.521,1.521-1.521h43.366C123.875,49.715,124.556,50.396,124.556,51.237"/>
		<path clip-path="url(#SVGID_4_)" fill="#C8CCD0" d="M55.914,131.934c0,2.396,1.942,4.338,4.337,4.338h19.645
			c2.395,0,4.336-1.941,4.336-4.338v-30.627c0-2.396-1.941-4.337-4.336-4.337H60.251c-2.396,0-4.337,1.941-4.337,4.337V131.934z"/>
		<path clip-path="url(#SVGID_4_)" fill="#C8CCD0" d="M129.276,102.959c0,0.84-0.681,1.52-1.521,1.52h-35.21
			c-0.841,0-1.521-0.68-1.521-1.52s0.68-1.521,1.521-1.521h35.21C128.596,101.438,129.276,102.119,129.276,102.959"/>
		<path clip-path="url(#SVGID_4_)" fill="#C8CCD0" d="M129.276,112.09c0,0.84-0.681,1.521-1.521,1.521H92.545
			c-0.841,0-1.522-0.682-1.522-1.521c0-0.842,0.681-1.523,1.522-1.523h35.209C128.596,110.566,129.276,111.248,129.276,112.09"/>
		<path clip-path="url(#SVGID_4_)" fill="#C8CCD0" d="M91.023,121.219c0,0.84,0.68,1.52,1.52,1.52h35.212
			c0.841,0,1.521-0.68,1.521-1.52c0-0.842-0.681-1.521-1.521-1.521H92.543C91.704,119.697,91.023,120.377,91.023,121.219"/>
		<path clip-path="url(#SVGID_4_)" fill="#C8CCD0" d="M115.077,130.348c0,0.84-0.683,1.521-1.522,1.521h-21.01
			c-0.84,0-1.521-0.682-1.521-1.521s0.681-1.52,1.521-1.52h21.01C114.395,128.828,115.077,129.508,115.077,130.348"/>
		<path clip-path="url(#SVGID_4_)" fill="#CF746F" d="M58.228,84.319c0,0.357-0.29,0.647-0.648,0.647
			c-0.357,0-0.647-0.29-0.647-0.647v-9.864c0-0.358,0.29-0.647,0.647-0.647c0.358,0,0.648,0.289,0.648,0.647V84.319z"/>
		<path clip-path="url(#SVGID_4_)" fill="#CF746F" d="M65.125,69.369c0-0.349-0.283-0.633-0.632-0.633
			c-0.35,0-0.632,0.284-0.632,0.633v14.965c0,0.35,0.282,0.633,0.632,0.633c0.35,0,0.632-0.283,0.632-0.633V69.369z"/>
		<path clip-path="url(#SVGID_4_)" fill="#CF746F" d="M70.636,65.324c0-0.356,0.289-0.647,0.648-0.647
			c0.357,0,0.647,0.291,0.647,0.647v18.995c0,0.357-0.29,0.647-0.647,0.647c-0.359,0-0.648-0.29-0.648-0.647V65.324z"/>
		<path clip-path="url(#SVGID_4_)" fill="#CF746F" d="M78.768,84.319c0,0.357-0.29,0.647-0.648,0.647
			c-0.357,0-0.647-0.29-0.647-0.647V71.413c0-0.358,0.29-0.647,0.647-0.647c0.358,0,0.648,0.289,0.648,0.647V84.319z"/>
		<path clip-path="url(#SVGID_4_)" fill="#CF746F" d="M85.604,84.319c0,0.357-0.29,0.647-0.647,0.647
			c-0.357,0-0.648-0.29-0.648-0.647v-9.864c0-0.358,0.291-0.647,0.648-0.647c0.358,0,0.647,0.289,0.647,0.647V84.319z"/>
		<path clip-path="url(#SVGID_4_)" fill="#CF746F" d="M97.561,84.333c0,0.35,0.283,0.633,0.632,0.633
			c0.349,0,0.632-0.283,0.632-0.633V61.251c0-0.349-0.283-0.632-0.632-0.632c-0.35,0-0.632,0.283-0.632,0.632V84.333z"/>
		<path clip-path="url(#SVGID_4_)" fill="#CF746F" d="M104.427,84.333c0,0.35,0.283,0.633,0.633,0.633
			c0.349,0,0.633-0.283,0.633-0.633V69.368c0-0.349-0.284-0.633-0.633-0.633c-0.35,0-0.633,0.284-0.633,0.633V84.333z"/>
		<path clip-path="url(#SVGID_4_)" fill="#CF746F" d="M111.173,84.274c0,0.383,0.311,0.692,0.693,0.692
			c0.382,0,0.693-0.31,0.693-0.692V74.5c0-0.382-0.312-0.692-0.693-0.692c-0.383,0-0.693,0.311-0.693,0.692V84.274z"/>
		<path clip-path="url(#SVGID_4_)" fill="#CF746F" d="M118.1,84.364c0,0.333,0.271,0.603,0.604,0.603
			c0.332,0,0.602-0.27,0.602-0.603V68.323c0-0.333-0.27-0.603-0.602-0.603c-0.333,0-0.604,0.27-0.604,0.603V84.364z"/>
		<path clip-path="url(#SVGID_4_)" fill="#CF746F" d="M124.967,84.333c0,0.35,0.283,0.633,0.632,0.633
			c0.35,0,0.634-0.283,0.634-0.633V74.44c0-0.35-0.284-0.633-0.634-0.633c-0.349,0-0.632,0.283-0.632,0.633V84.333z"/>
		<path clip-path="url(#SVGID_4_)" fill="#56657B" d="M61.242,46.45c2.461,0,4.455-1.99,4.455-4.446V23.395l-23.1,23.055H61.242z"/>
		<g opacity="0.2" clip-path="url(#SVGID_4_)">
			<g>
				<defs>
					<rect id="SVGID_5_" x="115.476" y="101.688" width="69.093" height="45.834"/>
				</defs>
				<clipPath id="SVGID_6_">
					<use xlink:href="#SVGID_5_"  overflow="visible"/>
				</clipPath>
				<path clip-path="url(#SVGID_6_)" fill="#040700" d="M184.568,138.559c0,4.949-4.013,8.963-8.963,8.963h-51.168
					c-4.95,0-8.962-4.014-8.962-8.963V110.65c0-4.949,4.012-8.963,8.962-8.963h51.168c4.95,0,8.963,4.014,8.963,8.963V138.559z"/>
			</g>
		</g>
		<path clip-path="url(#SVGID_4_)" fill="#FFFFFF" d="M180.179,145.488c0,3.213-2.604,5.816-5.814,5.816h-57.465
			c-3.211,0-5.813-2.604-5.813-5.816v-34.205c0-3.211,2.603-5.814,5.813-5.814h57.465c3.211,0,5.814,2.604,5.814,5.814V145.488z"/>
		<rect x="111.086" y="114.844" clip-path="url(#SVGID_4_)" fill="#36404F" width="69.093" height="11.545"/>
	</g>
	<g clip-path="url(#SVGID_2_)">
		<defs>
			<path id="SVGID_7_" d="M116.898,105.469c-3.21,0-5.813,2.604-5.813,5.814v34.205c0,3.211,2.603,5.816,5.813,5.816h57.466
				c3.211,0,5.814-2.605,5.814-5.816v-34.205c0-3.211-2.604-5.814-5.814-5.814H116.898z"/>
		</defs>
		<clipPath id="SVGID_8_">
			<use xlink:href="#SVGID_7_"  overflow="visible"/>
		</clipPath>
		<g opacity="0.2" clip-path="url(#SVGID_8_)">
			<g>
				<defs>
					<rect id="SVGID_9_" x="89.443" y="121.533" width="69.092" height="45.832"/>
				</defs>
				<clipPath id="SVGID_10_">
					<use xlink:href="#SVGID_9_"  overflow="visible"/>
				</clipPath>
				<path clip-path="url(#SVGID_10_)" fill="#040700" d="M158.535,158.402c0,4.951-4.012,8.963-8.962,8.963h-51.17
					c-4.948,0-8.96-4.012-8.96-8.963v-27.908c0-4.951,4.013-8.961,8.96-8.961h51.17c4.95,0,8.962,4.01,8.962,8.961V158.402z"/>
			</g>
		</g>
	</g>
	<g clip-path="url(#SVGID_2_)">
		<defs>
			<rect id="SVGID_11_" x="-38.667" y="-90.134" width="283.579" height="504.14"/>
		</defs>
		<clipPath id="SVGID_12_">
			<use xlink:href="#SVGID_11_"  overflow="visible"/>
		</clipPath>
		<path clip-path="url(#SVGID_12_)" fill="#EAC443" d="M154.696,165.037c0,3.213-2.602,5.816-5.814,5.816H91.419
			c-3.213,0-5.815-2.604-5.815-5.816v-34.201c0-3.213,2.603-5.814,5.815-5.814h57.462c3.213,0,5.814,2.602,5.814,5.814V165.037z"/>
		<path clip-path="url(#SVGID_12_)" fill="#8D639F" d="M115.646,158.287c0,3.855-3.126,6.982-6.983,6.982
			c-3.856,0-6.983-3.127-6.983-6.982c0-3.859,3.127-6.982,6.983-6.982C112.52,151.305,115.646,154.428,115.646,158.287"/>
		<path clip-path="url(#SVGID_12_)" fill="#36404F" d="M105.384,158.287c0,3.855-3.126,6.982-6.983,6.982
			c-3.856,0-6.981-3.127-6.981-6.982c0-3.859,3.125-6.982,6.981-6.982C102.258,151.305,105.384,154.428,105.384,158.287"/>
		<path clip-path="url(#SVGID_12_)" fill="#FFFFFF" d="M98.4,151.303c3.856,0,6.982,3.125,6.982,6.984
			c0,3.855-3.126,6.982-6.982,6.982c-3.856,0-6.981-3.127-6.981-6.982C91.419,154.428,94.544,151.303,98.4,151.303 M98.4,150.654
			c-4.208,0-7.631,3.424-7.631,7.633c0,4.207,3.423,7.631,7.631,7.631c4.208,0,7.632-3.424,7.632-7.631
			C106.032,154.078,102.608,150.654,98.4,150.654"/>
		
			<line clip-path="url(#SVGID_12_)" fill="none" stroke="#36404F" stroke-width="4.121" stroke-linecap="round" stroke-miterlimit="10" x1="95.095" y1="137.678" x2="145.632" y2="137.678"/>
		
			<line clip-path="url(#SVGID_12_)" fill="none" stroke="#36404F" stroke-width="4.121" stroke-linecap="round" stroke-miterlimit="10" x1="120.15" y1="147.938" x2="145.632" y2="147.938"/>
	</g>
</g>
</svg>
