<?xml version="1.0" encoding="utf-8"?>
<!-- Generator: Adobe Illustrator 16.0.0, SVG Export Plug-In . SVG Version: 6.00 Build 0)  -->
<!DOCTYPE svg PUBLIC "-//W3C//DTD SVG 1.1//EN" "http://www.w3.org/Graphics/SVG/1.1/DTD/svg11.dtd">
<svg version="1.1" id="Capa_1" xmlns="http://www.w3.org/2000/svg" xmlns:xlink="http://www.w3.org/1999/xlink" x="0px" y="0px"
	 width="200px" height="200px" viewBox="0 0 200 200" enable-background="new 0 0 200 200" xml:space="preserve">
<g>
	<defs>
		<rect id="SVGID_1_" x="-39.86" y="-88.886" width="281.966" height="501.272"/>
	</defs>
	<clipPath id="SVGID_2_">
		<use xlink:href="#SVGID_1_"  overflow="visible"/>
	</clipPath>
	<path clip-path="url(#SVGID_2_)" fill="#ADC668" d="M180.27,104.394c0,43.713-35.435,79.146-79.146,79.146
		c-43.712,0-79.147-35.434-79.147-79.146c0-43.711,35.435-79.146,79.147-79.146C144.835,25.248,180.27,60.682,180.27,104.394"/>
	<path clip-path="url(#SVGID_2_)" fill="#CCA570" d="M91.119,125.564H33.233c-3.76,0-6.808-3.052-6.808-6.813V40.439
		c0-3.762,3.048-6.809,6.808-6.809h57.886c3.761,0,6.809,3.047,6.809,6.809v78.313C97.928,122.513,94.88,125.564,91.119,125.564"/>
</g>
<g>
	<defs>
		<rect id="SVGID_3_" x="26.424" y="26.742" width="71.569" height="99.053"/>
	</defs>
	<clipPath id="SVGID_4_">
		<use xlink:href="#SVGID_3_"  overflow="visible"/>
	</clipPath>
	<path clip-path="url(#SVGID_4_)" fill="#F9FAFD" d="M91.119,120.455H33.233c-0.938,0-1.7-0.762-1.7-1.703V40.439
		c0-0.94,0.762-1.703,1.7-1.703h57.886c0.94,0,1.703,0.763,1.703,1.703v78.313C92.822,119.693,92.059,120.455,91.119,120.455"/>
	<path clip-path="url(#SVGID_4_)" fill="#D5DAEA" d="M71.685,36.329c-0.638-0.638-1.504-0.997-2.406-0.997h-0.293
		c-0.94,0-1.703-0.762-1.703-1.702v-1.414c0-2.767-2.071-5.247-4.833-5.39c-2.943-0.155-5.381,2.189-5.381,5.1v1.704
		c0,0.939-0.761,1.702-1.704,1.702h-0.291c-0.904,0-1.77,0.357-2.408,0.997l-5.813,5.813h30.644L71.685,36.329z M62.176,30.224
		c0.939,0,1.703,0.762,1.703,1.703c0,0.94-0.764,1.704-1.703,1.704c-0.94,0-1.703-0.764-1.703-1.704
		C60.473,30.986,61.236,30.224,62.176,30.224"/>
</g>
<g>
	<defs>
		<rect id="SVGID_5_" x="-39.86" y="-88.886" width="281.966" height="501.272"/>
	</defs>
	<clipPath id="SVGID_6_">
		<use xlink:href="#SVGID_5_"  overflow="visible"/>
	</clipPath>
	<path clip-path="url(#SVGID_6_)" fill="#BCC2D8" d="M62.176,33.63c-0.94,0-1.703-0.764-1.703-1.704v3.404
		c0,0.941,0.763,1.703,1.703,1.703c0.939,0,1.703-0.762,1.703-1.703v-3.404C63.879,32.867,63.116,33.63,62.176,33.63"/>
	<path clip-path="url(#SVGID_6_)" fill="#BCC2D8" d="M75.796,43.844h-27.24c-0.94,0-1.703-0.762-1.703-1.702
		c0-0.939,0.763-1.703,1.703-1.703h27.24c0.94,0,1.702,0.763,1.702,1.703C77.499,43.083,76.736,43.844,75.796,43.844"/>
	<path clip-path="url(#SVGID_6_)" fill="#E5E8F3" d="M46.854,77.894h-6.811c-0.939,0-1.702-0.763-1.702-1.704v-6.809
		c0-0.94,0.762-1.702,1.702-1.702h6.811c0.939,0,1.702,0.762,1.702,1.702v6.809C48.556,77.131,47.793,77.894,46.854,77.894"/>
	<path clip-path="url(#SVGID_6_)" fill="#E5E8F3" d="M46.854,62.571h-6.811c-0.939,0-1.702-0.763-1.702-1.702v-6.811
		c0-0.939,0.762-1.702,1.702-1.702h6.811c0.939,0,1.702,0.763,1.702,1.702v6.811C48.556,61.808,47.793,62.571,46.854,62.571"/>
	<path clip-path="url(#SVGID_6_)" fill="#E5E8F3" d="M46.854,108.538h-6.811c-0.939,0-1.702-0.762-1.702-1.702v-6.811
		c0-0.941,0.762-1.702,1.702-1.702h6.811c0.939,0,1.702,0.761,1.702,1.702v6.811C48.556,107.776,47.793,108.538,46.854,108.538"/>
	<path clip-path="url(#SVGID_6_)" fill="#E5E8F3" d="M46.854,93.217h-6.811c-0.939,0-1.702-0.764-1.702-1.704v-6.81
		c0-0.939,0.762-1.703,1.702-1.703h6.811c0.939,0,1.702,0.764,1.702,1.703v6.81C48.556,92.453,47.793,93.217,46.854,93.217"/>
	<path clip-path="url(#SVGID_6_)" fill="#BCC2D8" d="M67.283,71.083H55.365c-0.939,0-1.702-0.761-1.702-1.703
		c0-0.94,0.763-1.702,1.702-1.702h11.918c0.942,0,1.703,0.762,1.703,1.702C68.986,70.322,68.225,71.083,67.283,71.083"/>
	<path clip-path="url(#SVGID_6_)" fill="#D5DAEA" d="M74.094,77.894H55.365c-0.939,0-1.702-0.763-1.702-1.704
		c0-0.939,0.763-1.702,1.702-1.702h18.729c0.939,0,1.703,0.763,1.703,1.702C75.796,77.131,75.033,77.894,74.094,77.894"/>
	<path clip-path="url(#SVGID_6_)" fill="#BCC2D8" d="M74.094,55.762H55.365c-0.939,0-1.702-0.763-1.702-1.704
		c0-0.939,0.763-1.701,1.702-1.701h18.729c0.939,0,1.703,0.762,1.703,1.701C75.796,54.999,75.033,55.762,74.094,55.762"/>
	<path clip-path="url(#SVGID_6_)" fill="#BCC2D8" d="M67.283,101.729H55.365c-0.939,0-1.702-0.763-1.702-1.703
		s0.763-1.702,1.702-1.702h11.918c0.942,0,1.703,0.762,1.703,1.702S68.225,101.729,67.283,101.729"/>
	<path clip-path="url(#SVGID_6_)" fill="#D5DAEA" d="M77.499,108.538H55.365c-0.939,0-1.702-0.762-1.702-1.702
		c0-0.941,0.763-1.703,1.702-1.703h22.133c0.939,0,1.703,0.762,1.703,1.703C79.202,107.776,78.438,108.538,77.499,108.538"/>
	<path clip-path="url(#SVGID_6_)" fill="#BCC2D8" d="M74.094,86.406H55.365c-0.939,0-1.702-0.763-1.702-1.703
		c0-0.939,0.763-1.703,1.702-1.703h18.729c0.939,0,1.703,0.764,1.703,1.703C75.796,85.644,75.033,86.406,74.094,86.406"/>
	<path clip-path="url(#SVGID_6_)" fill="#D5DAEA" d="M86.009,62.571H55.365c-0.938,0-1.703-0.763-1.703-1.702
		c0-0.941,0.765-1.703,1.703-1.703h30.644c0.941,0,1.705,0.762,1.705,1.703C87.714,61.808,86.951,62.571,86.009,62.571"/>
	<path clip-path="url(#SVGID_6_)" fill="#D5DAEA" d="M86.009,93.217H55.365c-0.938,0-1.703-0.764-1.703-1.704
		s0.765-1.702,1.703-1.702h30.644c0.941,0,1.705,0.762,1.705,1.702S86.951,93.217,86.009,93.217"/>
	<path clip-path="url(#SVGID_6_)" fill="#8A8B9E" d="M41.747,60.869c-0.436,0-0.871-0.167-1.203-0.499l-3.406-3.405
		c-0.665-0.665-0.665-1.743,0-2.409c0.665-0.664,1.743-0.664,2.408,0l2.201,2.203l5.605-5.607c0.666-0.665,1.744-0.665,2.408,0
		c0.666,0.665,0.666,1.743,0,2.407l-6.809,6.811C42.618,60.702,42.183,60.869,41.747,60.869"/>
	<path clip-path="url(#SVGID_6_)" fill="#8A8B9E" d="M41.747,91.513c-0.436,0-0.871-0.165-1.203-0.499l-3.406-3.404
		c-0.665-0.665-0.665-1.742,0-2.408c0.665-0.663,1.743-0.663,2.408,0l2.201,2.204l5.605-5.607c0.666-0.664,1.744-0.664,2.408,0
		c0.666,0.663,0.666,1.743,0,2.406l-6.809,6.81C42.618,91.348,42.183,91.513,41.747,91.513"/>
	<path clip-path="url(#SVGID_6_)" fill="#DBB77C" d="M128.397,124.971v-12.409h-41.25v12.409c0,2.129-1.461,3.977-3.534,4.464
		l-28.355,6.671c-4.141,0.974-7.068,4.669-7.068,8.924v20.239c0,1.266,1.027,2.292,2.292,2.292h114.581
		c1.267,0,2.292-1.026,2.292-2.292v-20.239c0-4.255-2.926-7.95-7.066-8.923l-28.358-6.672
		C129.861,128.947,128.397,127.1,128.397,124.971"/>
	<path clip-path="url(#SVGID_6_)" fill="#717171" d="M160.289,136.105l-28.358-6.671c-0.429-0.102-0.822-0.272-1.189-0.479
		l-22.968,13.396l-22.071-14.046c-0.572,0.538-1.283,0.938-2.088,1.129l-28.356,6.671c-4.142,0.974-7.068,4.669-7.068,8.925v20.238
		c0,1.266,1.027,2.292,2.292,2.292h114.581c1.267,0,2.291-1.026,2.291-2.292V145.03C167.354,140.774,164.43,137.079,160.289,136.105
		"/>
	<path clip-path="url(#SVGID_6_)" fill="#E3E7F2" d="M127.95,130.583l-20.177,11.77l-20.371-12.964
		c1.489,9.926,10.029,17.546,20.371,17.546C117.7,146.935,125.979,139.922,127.95,130.583"/>
	<path clip-path="url(#SVGID_6_)" fill="#C9A271" d="M87.147,124.971c0,1.541-0.771,2.924-1.979,3.76
		c27.187,13.621,43.229-13.313,43.229-13.313v-2.855h-41.25V124.971z"/>
	<path clip-path="url(#SVGID_6_)" fill="#E6C78C" d="M77.982,58.707l1.998,43.935c0.186,4.104,2.198,7.91,5.485,10.376l9.476,7.104
		c2.379,1.785,5.274,2.751,8.251,2.751h9.164c2.978,0,5.871-0.966,8.251-2.751l9.476-7.104c3.287-2.466,5.299-6.272,5.485-10.376
		l1.998-43.935H77.982z"/>
	<path clip-path="url(#SVGID_6_)" fill="#DBB77C" d="M77.982,58.707l1.998,43.935c0.186,4.104,2.198,7.91,5.485,10.376l9.476,7.104
		c2.379,1.785,5.274,2.751,8.249,2.751h4.584c-6.875-2.29-11.459-20.625-11.459-20.625v-25.01c0-1.724,1.314-3.139,3.03-3.306
		c12.837-1.242,27.341-4.466,38.221-12.07v-3.155H77.982z"/>
	<path clip-path="url(#SVGID_6_)" fill="#5B5447" d="M73.4,56.416v2.291l2.291,25.21h4.585l4.582-13.75c0,0,29.791,0,45.833-9.166
		l4.582,22.916h4.585l2.29-25.21v-2.291c0-12.655-10.26-22.916-22.914-22.916H96.316C83.66,33.5,73.4,43.761,73.4,56.416"/>
	<path clip-path="url(#SVGID_6_)" fill="#E6C78C" d="M142.003,87.519l-2.589,10.353c-0.306,1.228-1.407,2.087-2.672,2.087
		c-1.389,0-2.563-1.034-2.733-2.415l-1.323-10.585c-0.354-2.833,1.854-5.335,4.706-5.335h0.01
		C140.488,81.623,142.752,84.525,142.003,87.519"/>
	<path clip-path="url(#SVGID_6_)" fill="#DBB77C" d="M73.543,87.519l2.588,10.353c0.308,1.228,1.407,2.087,2.674,2.087
		c1.388,0,2.561-1.034,2.733-2.415l1.323-10.585c0.354-2.833-1.854-5.335-4.708-5.335h-0.009
		C75.059,81.623,72.794,84.525,73.543,87.519"/>
	<path clip-path="url(#SVGID_6_)" fill="#5B5B5B" d="M65.013,152.687l-14.848-13.339c-1.245,1.575-1.975,3.559-1.975,5.681v20.24
		c0,1.266,1.027,2.292,2.292,2.292h18.335v-6.349C68.815,157.958,67.435,154.86,65.013,152.687"/>
	<path clip-path="url(#SVGID_6_)" fill="#739ED1" d="M150.532,152.687l14.85-13.339c1.245,1.575,1.973,3.559,1.973,5.681v20.24
		c0,1.266-1.024,2.292-2.291,2.292H146.73v-6.349C146.73,157.958,148.112,154.86,150.532,152.687"/>
	<path clip-path="url(#SVGID_6_)" fill="#5B5B5B" d="M107.773,151.518c12.773,0,23.334-9.559,24.966-21.894l-0.809-0.189
		c-0.429-0.102-0.822-0.272-1.189-0.479l-2.795,1.629c-1.975,9.328-10.266,16.353-20.173,16.353
		c-10.323,0-18.874-7.633-20.37-17.546l-1.701-1.083c-0.572,0.536-1.283,0.938-2.088,1.127l-0.807,0.189
		C84.44,141.959,94.999,151.518,107.773,151.518"/>
	<path clip-path="url(#SVGID_6_)" fill="#EFF3F9" d="M86.826,123.5l20.948,18.852c0,0-5.867,2.961-13.105,8.931
		c-1.495,1.23-3.753,0.732-4.554-1.03l-9.841-21.649l3.116-4.669C84.162,122.769,85.789,122.567,86.826,123.5"/>
	<path clip-path="url(#SVGID_6_)" fill="#EFF3F9" d="M128.719,123.5l-20.945,18.852c0,0,5.865,2.961,13.105,8.931
		c1.493,1.23,3.752,0.732,4.553-1.03l9.841-21.649l-3.112-4.669C131.384,122.769,129.759,122.567,128.719,123.5"/>
	<path clip-path="url(#SVGID_6_)" fill="#EFCB29" d="M149.936,125.111l-29.179,10.12v14.806c0,16.552,7.316,26.366,13.456,31.686
		c6.576,5.703,13.174,7.51,13.902,7.696l1.82,0.465l1.817-0.465c0.732-0.187,7.327-1.993,13.907-7.696
		c6.137-5.319,13.452-15.134,13.452-31.686v-14.806L149.936,125.111z"/>
	<path clip-path="url(#SVGID_6_)" fill="#FFFFFF" d="M149.936,130.731l-23.869,8.276v11.029c0,14.549,6.32,23.079,11.625,27.674
		c5.753,4.99,11.501,6.502,11.74,6.563l0.503,0.128l0.507-0.129c0.241-0.063,5.973-1.563,11.739-6.563
		c5.303-4.594,11.621-13.125,11.621-27.673v-11.029L149.936,130.731z"/>
	<polygon clip-path="url(#SVGID_6_)" fill="#F8E78D" points="170.263,141.527 149.936,134.476 129.605,141.528 129.605,150.036 
		148.183,151.652 148.166,151.806 149.089,151.732 149.936,151.806 149.936,151.664 170.263,150.036 	"/>
	<path clip-path="url(#SVGID_6_)" fill="#C59012" d="M149.936,150.036h-20.33c0,13.213,5.658,20.889,10.406,25.002
		c4.308,3.737,8.652,5.297,9.924,5.698c1.271-0.4,5.604-1.952,9.927-5.701c4.745-4.113,10.4-11.786,10.4-24.999H149.936z"/>
</g>
</svg>
