<?xml version="1.0" encoding="utf-8"?>
<!-- Generator: Adobe Illustrator 16.0.0, SVG Export Plug-In . SVG Version: 6.00 Build 0)  -->
<!DOCTYPE svg PUBLIC "-//W3C//DTD SVG 1.1//EN" "http://www.w3.org/Graphics/SVG/1.1/DTD/svg11.dtd">
<svg version="1.1" id="Capa_1" xmlns="http://www.w3.org/2000/svg" xmlns:xlink="http://www.w3.org/1999/xlink" x="0px" y="0px"
	 width="200px" height="200px" viewBox="0 0 200 200" enable-background="new 0 0 200 200" xml:space="preserve">
<g>
	<path fill="#9B999A" d="M32.79,153.246h-7.134l-1.218-8.158h-8.676l-1.221,8.158H8.049l7.194-44.992h10.352L32.79,153.246z
		 M16.66,138.979h6.81l-3.403-22.75L16.66,138.979z"/>
	<g>
		<defs>
			<rect id="SVGID_1_" x="-16.191" y="-106.563" width="232.383" height="413.125"/>
		</defs>
		<clipPath id="SVGID_2_">
			<use xlink:href="#SVGID_1_"  overflow="visible"/>
		</clipPath>
		<path clip-path="url(#SVGID_2_)" fill="#9B999A" d="M56.514,136.475v5.977c0,7.191-3.601,11.313-10.538,11.313
			c-6.947,0-10.541-4.121-10.541-11.313v-23.398c0-7.199,3.594-11.313,10.541-11.313c6.937,0,10.538,4.113,10.538,11.313v4.373
			h-6.685v-4.82c0-3.213-1.412-4.439-3.663-4.439c-2.25,0-3.666,1.227-3.666,4.439v24.297c0,3.207,1.415,4.367,3.666,4.367
			c2.251,0,3.663-1.16,3.663-4.367v-6.428H56.514z"/>
		<path clip-path="url(#SVGID_2_)" fill="#9B999A" d="M81.325,136.475v5.977c0,7.191-3.601,11.313-10.539,11.313
			s-10.543-4.121-10.543-11.313v-23.398c0-7.199,3.605-11.313,10.543-11.313s10.539,4.113,10.539,11.313v4.373h-6.686v-4.82
			c0-3.213-1.412-4.439-3.662-4.439c-2.251,0-3.665,1.227-3.665,4.439v24.297c0,3.207,1.414,4.367,3.665,4.367
			c2.25,0,3.662-1.16,3.662-4.367v-6.428H81.325z"/>
		<polygon clip-path="url(#SVGID_2_)" fill="#9B999A" points="92.703,127.221 102.407,127.221 102.407,133.646 92.703,133.646 
			92.703,146.824 104.915,146.824 104.915,153.246 85.635,153.246 85.635,108.254 104.915,108.254 104.915,114.689 92.703,114.689 
					"/>
		<path clip-path="url(#SVGID_2_)" fill="#9B999A" d="M118.804,107.74c6.872,0,10.411,4.111,10.411,11.313v1.416h-6.69v-1.863
			c0-3.213-1.28-4.441-3.534-4.441c-2.244,0-3.531,1.229-3.531,4.441c0,9.25,13.817,10.99,13.817,23.846
			c0,7.189-3.601,11.313-10.541,11.313c-6.938,0-10.535-4.123-10.535-11.313v-2.762h6.679v3.213c0,3.207,1.418,4.367,3.666,4.367
			c2.251,0,3.664-1.16,3.664-4.367c0-9.256-13.82-10.988-13.82-23.85C108.389,111.852,111.922,107.74,118.804,107.74"/>
		<path clip-path="url(#SVGID_2_)" fill="#9B999A" d="M142.845,107.74c6.876,0,10.414,4.111,10.414,11.313v1.416h-6.687v-1.863
			c0-3.213-1.286-4.441-3.535-4.441c-2.247,0-3.536,1.229-3.536,4.441c0,9.25,13.816,10.99,13.816,23.846
			c0,7.189-3.597,11.313-10.536,11.313c-6.943,0-10.543-4.123-10.543-11.313v-2.762h6.688v3.213c0,3.207,1.414,4.367,3.66,4.367
			c2.251,0,3.667-1.16,3.667-4.367c0-9.256-13.819-10.988-13.819-23.85C132.434,111.852,135.967,107.74,142.845,107.74"/>
		<rect x="157.37" y="108.254" clip-path="url(#SVGID_2_)" fill="#F1A21E" width="7.072" height="44.992"/>
		<polygon clip-path="url(#SVGID_2_)" fill="#F1A21E" points="175.878,120.66 175.878,153.246 169.519,153.246 169.519,108.254 
			178.387,108.254 185.653,135.188 185.653,108.254 191.95,108.254 191.95,153.246 184.692,153.246 		"/>
		<path clip-path="url(#SVGID_2_)" fill="#F1A21E" d="M123.89,24.163H76.097c-5.931,0-10.748,4.815-10.748,10.759v40.324
			c0,5.939,4.817,10.748,10.748,10.748h7.768v12.247l12.253-12.247h27.771c5.941,0,10.76-4.809,10.76-10.748V34.922
			C134.649,28.978,129.831,24.163,123.89,24.163"/>
		<path clip-path="url(#SVGID_2_)" fill="#FFFFFF" d="M105.189,43.155c0,2.526-2.052,4.581-4.586,4.581
			c-2.525,0-4.578-2.055-4.578-4.581c0-2.533,2.053-4.587,4.578-4.587C103.138,38.568,105.189,40.623,105.189,43.155"/>
		<path clip-path="url(#SVGID_2_)" fill="#FFFFFF" d="M115.069,51.024c-0.01,0-0.022-0.005-0.032-0.005h-5.359
			c-0.01,0-0.021,0.005-0.031,0.005c-0.037,0.009-3.833,0.981-3.833,6.537c0,4.861,1.843,5.543,2.387,5.636l0.144,6.855
			c0.002,0.081,0.069,0.149,0.146,0.149h7.733c0.084,0,0.146-0.068,0.15-0.149l0.146-6.855c0.541-0.093,2.383-0.775,2.383-5.636
			C118.901,52.006,115.104,51.033,115.069,51.024"/>
		<path clip-path="url(#SVGID_2_)" fill="#FFFFFF" d="M116.598,46.042c0,2.251-1.83,4.086-4.087,4.086
			c-2.26,0-4.088-1.835-4.088-4.086c0-2.26,1.828-4.088,4.088-4.088C114.768,41.954,116.598,43.783,116.598,46.042"/>
		<path clip-path="url(#SVGID_2_)" fill="#FFFFFF" d="M107.1,52.109c-1.222-2.763-3.504-3.362-3.536-3.369
			c-0.014,0-0.026-0.003-0.041-0.003h-6c-0.01,0-0.021,0.003-0.035,0.003c-0.033,0.006-2.277,0.599-3.504,3.294
			c0.98,1.063,1.893,2.784,1.893,5.557c0,2.125-0.344,3.521-0.8,4.45c0.323,0.227,0.613,0.313,0.783,0.342l0.166,7.687
			c0.004,0.088,0.077,0.161,0.167,0.161h8.666c0.089,0,0.164-0.073,0.167-0.161l0.163-7.687c0.188-0.029,0.508-0.127,0.865-0.395
			c-0.447-0.933-0.777-2.311-0.777-4.397C105.276,54.888,106.146,53.175,107.1,52.109"/>
		<path clip-path="url(#SVGID_2_)" fill="#FFFFFF" d="M91.48,51.024c-0.011,0-0.024-0.005-0.033-0.005h-5.355
			c-0.01,0-0.024,0.005-0.033,0.005c-0.041,0.009-3.837,0.981-3.837,6.537c0,4.861,1.84,5.543,2.384,5.636l0.146,6.855
			c0.005,0.081,0.071,0.149,0.149,0.149h7.733c0.08,0,0.146-0.068,0.146-0.149l0.146-6.855c0.544-0.093,2.383-0.775,2.383-5.636
			C95.309,52.006,91.52,51.033,91.48,51.024"/>
		<path clip-path="url(#SVGID_2_)" fill="#FFFFFF" d="M92.93,46.042c0,2.251-1.831,4.086-4.091,4.086
			c-2.255,0-4.088-1.835-4.088-4.086c0-2.26,1.833-4.088,4.088-4.088C91.1,41.954,92.93,43.783,92.93,46.042"/>
	</g>
</g>
</svg>
