<?xml version="1.0" encoding="utf-8"?>
<!-- Generator: Adobe Illustrator 16.0.0, SVG Export Plug-In . SVG Version: 6.00 Build 0)  -->
<!DOCTYPE svg PUBLIC "-//W3C//DTD SVG 1.1//EN" "http://www.w3.org/Graphics/SVG/1.1/DTD/svg11.dtd">
<svg version="1.1" id="Capa_1" xmlns="http://www.w3.org/2000/svg" xmlns:xlink="http://www.w3.org/1999/xlink" x="0px" y="0px"
	 width="500px" height="500px" viewBox="0 0 500 500" enable-background="new 0 0 500 500" xml:space="preserve">
<path fill="#98CB66" d="M446.27,251.244c0,111.02-89.994,201.012-201.012,201.012c-111.014,0-201.011-89.992-201.011-201.012
	c0-111.017,89.997-201.01,201.011-201.01C356.275,50.234,446.27,140.227,446.27,251.244z"/>
<g>
	<path fill="#F6C18B" d="M425.07,157.815c0-20.415-5.57-31.966-27.57-35.095v-6.22h-18v6.22c-20,3.129-27.383,14.681-27.383,35.095
		l-12.265,56.736l13.266,3.32l12.858-62.526c0-15.843,6.243-14.329,21.598-14.24l-0.035,0.207
		c16.057-0.022,23.96-2.139,23.96,14.034l12.937,62.526l12.994-3.32L425.07,157.815z"/>
	<path fill="#F6C18B" d="M389.448,215.937l18.199-0.417l-5.576,70.105c0,0,10.281,10.126,3.408,11.216
		c-11.556,1.824-15.271-10.731-15.271-10.731S390.88,241.431,389.448,215.937z"/>
	<path fill="#994B31" d="M401.551,284.778c0,0,13.653,13.414,4.264,17.118c-7.356,2.904-16.287-3.811-16.168-15.787
		c0,0,10.788,11.613,13.392,9.993C405.646,294.478,401.551,284.778,401.551,284.778z"/>
	<path fill="#F6C18B" d="M387.229,215.937l-18.202-0.417l5.577,70.105c0,0-10.279,10.126-3.406,11.216
		c11.552,1.824,15.274-10.731,15.274-10.731S385.797,241.431,387.229,215.937z"/>
	<path fill="#994B31" d="M374.007,284.778c0,0-13.656,13.414-4.269,17.118c7.357,2.904,16.29-3.811,16.171-15.787
		c0,0-10.788,11.613-13.394,9.993C369.91,294.478,374.007,284.778,374.007,284.778z"/>
	<path fill="#994B31" d="M427.608,252.897c0,0-1.122,11.355-38.812,11.355c-37.688,0-38.819-11.355-38.819-11.355
		s14.184-93,38.819-93C413.429,159.898,427.608,252.897,427.608,252.897z"/>
	<path fill="#F6C18B" d="M422.524,85.324c0,19.26-17.601,34.872-33.959,34.872s-33.96-15.612-33.96-34.872
		s15.203-34.873,33.96-34.873C407.32,50.451,422.524,66.064,422.524,85.324z"/>
	<path fill="#F6C18B" d="M349.671,220.941c-0.791,3.139-3.975,5.042-7.112,4.254l0,0c-3.14-0.788-5.044-3.973-4.254-7.111
		l1.905-7.577c0.787-3.137,3.972-5.042,7.111-4.254l0,0c3.136,0.789,5.043,3.973,4.252,7.112L349.671,220.941z"/>
	<path fill="#F6C18B" d="M427.706,220.941c0.791,3.139,3.974,5.042,7.109,4.254l0,0c3.142-0.788,5.044-3.973,4.257-7.111
		l-1.903-7.577c-0.792-3.137-3.973-5.042-7.112-4.254l0,0c-3.139,0.789-5.042,3.973-4.252,7.112L427.706,220.941z"/>
	<path fill="#FCBB47" d="M424.078,141.273c-3.626-14.754-19.438-18.773-19.438-18.773h-31.906c0,0-15.811,4.019-19.433,18.773
		c-2.461,10.018-3.872,23.341-3.872,23.341l16.412,0.428l0.043,22.458h22.807h22.799l0.051-22.277l16.408-0.661
		C427.948,164.563,426.538,151.291,424.078,141.273z"/>
	<path fill="#BCB398" d="M369.377,63.047c0,0,2.352,9.992,14.502,9.327c12.147-0.667,18.353-10.63,22.244-4.649
		c3.895,5.981,1.229,20.264,9.89,23.45c8.661,3.187-0.598,14.562-0.598,14.562s7.261,3.282,14.59-3.382c0,0-4.665-3.6-3.331-12.792
		c1.332-9.192,4.358-21.185-4.149-27.848c-8.511-6.662-11.842-15.988-27.831-17.988c-15.988-1.999-27.315,9.995-27.315,9.995
		s-6.662-1.333-11.992,5.329c-5.329,6.664-8.583,20.944-5.957,32.126c2.626,11.179-3.805,14.511-3.805,14.511
		s12.064,5.131,17.578,1.899c0,0-10.14-15.892-6.313-20.554C360.716,82.367,368.044,69.042,369.377,63.047z"/>
	
		<path fill="none" stroke="#FFFFFF" stroke-width="3.5178" stroke-linecap="round" stroke-miterlimit="10" stroke-dasharray="0,2.9315" d="
		M376.177,123.111c0,0,3.527,9.413,12.514,9.413c8.981,0,11.717-8.984,11.717-8.984"/>
	<path fill="#FED3AE" d="M332.198,71.389c0,20.447-18.686,37.02-36.053,37.02c-17.372,0-36.054-16.573-36.054-37.02
		c0-20.449,16.14-37.022,36.054-37.022C316.055,34.367,332.198,50.94,332.198,71.389z"/>
	<rect x="286.5" y="106.5" fill="#FED3AE" width="20" height="10"/>
	<path fill="#FED3AE" d="M296.083,113.5h-0.351c-26.934,0-41.14,13.645-41.14,40.579l-8.093,61.267v5.117v2.92
		c0,3.632,1.87,6.576,5.5,6.576c3.629,0,5.5-2.944,5.5-6.576V218.5h4.549l4.297-35.646l1.806-31.294
		c0-18.088,9.551-18.767,27.639-18.767l0.235,0.845c18.086,0,27.64-0.751,27.64,17.337l6.103,67.525h0.732v4.882
		c0,3.632,4.371,6.576,8,6.576c3.631,0,8-2.944,8-6.576v-2.92l-0.668-4.712l-9.574-61.521
		C336.258,127.294,323.014,113.5,296.083,113.5z"/>
	<path fill="#433934" d="M270.979,187.5l-0.829,106h15.882c0,0,4.093-80.643,9.523-80.643c5.433,0,9.571,80.643,9.571,80.643h15.509
		l0.266-106H270.979z"/>
	<path fill="#6E441B" d="M296.083,120.604c-7.976,0-10.778-6.259-11.073-6.212c-16.46,2.615-26.553,12.891-29.621,28.905
		c-0.663,3.459-9.291,69.203-9.291,69.203h17.14l7.188-54.621l0.216,43.355l50.222,0.641l1.26-42.693L329.1,212.5h16.524
		c0,0-9.054-69.526-10.554-74.265c-4.021-12.69-13.353-21.342-27.597-23.792C307.474,114.443,304.06,120.604,296.083,120.604z"/>
	<g>
		<path fill="#AE6728" d="M269.716,293.579c0,0-5.897,2.423-9.544,3.151c-3.646,0.731-5.513,5.598,1.049,5.781
			c6.564,0.18,24.994-0.132,24.994-0.132l-0.449-8.952L269.716,293.579z"/>
		<path fill="#464C53" d="M257.666,300.833c0.684,0.834,2.122,1.48,4.516,1.547c6.563,0.185,24.596,0,24.596,0v-1.547H257.666z"/>
	</g>
	<g>
		<path fill="#AE6728" d="M320.56,293.5c0,0,7.6,2.434,11.242,3.162c3.649,0.732,3.941,5.414-2.618,5.598
			c-6.565,0.183-24.684,0.12-24.684,0.12v-8.88H320.56z"/>
		<path fill="#464C53" d="M334.566,300.833c-0.685,0.834-2.121,1.48-4.516,1.547c-6.564,0.185-24.364,0-24.364,0v-1.547H334.566z"/>
	</g>
	<path fill="#BCB398" d="M273.696,41.724c0,0-23.756,16.776-11.449,42.776h5.196c0,0-5.148-12.973-1.242-18.302
		C270.109,60.867,282.613,60.42,273.696,41.724z"/>
	<path fill="#BCB398" d="M317.601,41.724c0,0,23.755,16.776,11.451,42.776h-5.2c0,0,5.148-12.973,1.24-18.302
		C321.188,60.867,308.682,60.42,317.601,41.724z"/>
	<g>
		<path fill="#BCB398" d="M296.988,92.668c0.644-5.542-6.729-7.278-11.014-4.262c-4.285,3.021-7.689,2.052-8.971-2.494
			c0,0-2.822,3.532,0.735,8.775C281.933,100.869,296.072,100.556,296.988,92.668z"/>
		<path fill="#BCB398" d="M295.641,92.668c-0.646-5.542,6.729-7.278,11.012-4.262c4.286,3.021,7.69,2.052,8.97-2.494
			c0,0,2.825,3.532-0.734,8.775C310.692,100.869,296.555,100.556,295.641,92.668z"/>
	</g>
</g>
<path fill="#A19634" d="M194.468,168.406c0,0,10.414,10.23,3.255,13.056c-5.611,2.216-12.423-2.906-12.334-12.04
	c0,0,8.228,8.854,10.216,7.618C197.593,175.801,194.468,168.406,194.468,168.406z"/>
<polygon fill="#FDD690" points="247.947,233.332 248.36,189.237 285.107,187.359 321.844,200.155 318.325,233.332 "/>
<path fill="#F6C18B" d="M325.248,268.88c0-23.708-7.748-37.122-31.748-40.754V219.5h-23v8.626
	c-22,3.632-31.018,17.046-31.018,40.754l-13.848,65.883l15.598,3.855l15.031-72.606c0-18.398,25.109-8.583,25.109-8.583
	c18.648-0.028,27.833-10.195,27.833,8.583l15.033,72.606l15.229-3.855L325.248,268.88z"/>
<path fill="#F6C18B" d="M283.604,336.371l21.131-0.484l-6.475,81.406c0,0,11.938,11.759,3.957,13.023
	c-13.417,2.121-17.734-12.456-17.734-12.456S285.261,365.978,283.604,336.371z"/>
<path fill="#433934" d="M295.691,416.312c0,0,15.858,15.576,4.956,19.879c-8.544,3.371-18.915-4.426-18.776-18.33
	c0,0,12.525,13.48,15.551,11.598C300.446,427.572,295.691,416.312,295.691,416.312z"/>
<path fill="#F6C18B" d="M281.021,336.371l-21.133-0.484l6.475,81.406c0,0-11.938,11.759-3.954,13.023
	c13.411,2.121,17.731-12.456,17.731-12.456S279.361,365.978,281.021,336.371z"/>
<path fill="#433934" d="M263.709,416.312c0,0-15.854,15.576-4.953,19.879c8.541,3.371,18.912-4.426,18.773-18.33
	c0,0-12.526,13.48-15.551,11.598C258.953,427.572,263.709,416.312,263.709,416.312z"/>
<path fill="#433934" d="M328.035,352.997c-3.028-12.818-13.813-74.441-44.542-74.441c-30.726,0-41.513,61.623-44.542,74.441H328.035
	z"/>
<path fill="#F6C18B" d="M322.021,184.703c0,22.363-20.435,40.494-39.434,40.494c-18.996,0-39.432-18.131-39.432-40.494
	c0-22.367,17.654-40.498,39.432-40.498C304.369,144.205,322.021,162.336,322.021,184.703z"/>
<path fill="#F6C18B" d="M237.424,342.181c-0.915,3.647-4.612,5.856-8.258,4.944l0,0c-3.642-0.918-5.855-4.614-4.941-8.26
	l2.213-8.798c0.917-3.645,4.614-5.855,8.258-4.939l0,0c3.643,0.916,5.855,4.611,4.938,8.258L237.424,342.181z"/>
<path fill="none" stroke="#FFFFFF" stroke-width="3.6021" stroke-linecap="round" stroke-miterlimit="10" stroke-dasharray="0,3.0017" d="
	M245.806,329.379"/>
<path fill="#F6C18B" d="M328.043,342.181c0.918,3.647,4.613,5.856,8.255,4.944l0,0c3.648-0.918,5.858-4.614,4.943-8.26l-2.214-8.798
	c-0.915-3.645-4.61-5.855-8.258-4.939l0,0c-3.645,0.916-5.854,4.611-4.938,8.258L328.043,342.181z"/>
<path fill="#FCBB47" d="M323.828,250.51c-4.211-17.135-22.568-20.96-22.568-20.96l-18.526,25.582l-18.526-25.582
	c0,0-18.36,3.825-22.568,20.96c-2.854,11.634-4.491,26.688-4.491,26.688l19.053,0.753l0.053,19.453l26.48,6.892l26.479-6.892
	l0.057-19.453l19.053-0.584C328.322,277.366,326.686,262.144,323.828,250.51z"/>
<line fill="none" stroke="#FFFFFF" stroke-width="3.6021" stroke-linecap="round" stroke-miterlimit="10" stroke-dasharray="0,3.0017" x1="339.718" y1="323.819" x2="321.039" y2="327.563"/>
<path fill="#FDE1AC" d="M315.947,235.832c0,0,1.36-30.848-0.906-53.074c-1.211-11.871-8.622-21.772-8.622-21.772
	s-8.741,8.163-34.017,11.339c-9.901,1.244-21.318,1.937-21.318,1.937s-0.9,55.061,0.674,61.57h-7.104
	c-13.585-54.611,1.679-100.296,31.087-101.084c17.705-0.474,24.785,7.187,24.785,7.187s13.153-3.628,21.318,19.051
	c8.163,22.679,1.359,74.846,1.359,74.846H315.947z"/>
<path fill="none" stroke="#FFFFFF" stroke-width="3.4104" stroke-linecap="round" stroke-miterlimit="10" stroke-dasharray="0,2.842" d="
	M269.576,227.582c0,0,3.878,10.347,13.759,10.347c9.875,0,12.881-9.877,12.881-9.877"/>
<path fill="none" stroke="#FFFFFF" stroke-width="2.6551" stroke-linecap="round" stroke-miterlimit="10" stroke-dasharray="0,2.2126" d="
	M79.141,369.667"/>
<g>
	<path fill="#FED3AE" d="M387.938,277.506c0,15.249-13.934,27.611-26.887,27.611s-26.887-12.362-26.887-27.611
		c0-15.248,12.037-27.607,26.887-27.607C375.899,249.898,387.938,262.258,387.938,277.506z"/>
	<rect x="353.5" y="300.5" fill="#FED3AE" width="16" height="8"/>
	<path fill="#FED3AE" d="M360.986,303.5h-0.241c-18.579,0-29.021,10.909-29.021,29.488L325.5,376.75v3.53v2.015
		c0,2.507,2.495,4.536,5,4.536s5-2.029,5-4.536V380.5h2.007l2.964-25.378l1.246-21.981c0-12.48,6.59-13.143,19.067-13.143
		l0.164,0.481c12.479,0,19.067,0.218,19.067,12.696l4.212,47.324h2.272v1.795c0,2.507,1.995,4.536,4.5,4.536
		c2.504,0,4.5-2.029,4.5-4.536v-2.015l-0.325-3.251l-6.536-43.938C388.639,314.513,379.567,303.5,360.986,303.5z"/>
	<path fill="#89BABC" d="M343.669,357.5l-0.573,75h10.957c0,0,2.823-55.639,6.57-55.639c3.748,0,6.602,55.639,6.602,55.639h10.702
		l0.182-75H343.669z"/>
	<path fill="#A19634" d="M360.986,310.251c-5.502,0-7.282-6.16-7.486-6.128c-11.356,1.803-18.934,9.377-21.104,21.164
		c-0.439,2.39-6.896,47.213-6.896,47.213h13.967l3.82-37.105l0.147,30.197l34.649,0.59l0.87-29.961l3.921,36.279h12.292
		c0,0-6.248-47.391-7.282-50.658c-2.774-8.756-8.556-15.742-18.385-17.433C369.5,304.409,366.49,310.251,360.986,310.251z"/>
	<g>
		<path fill="#AE6728" d="M343.421,431.371c0,0-4.694,1.024-7.208,1.528c-2.517,0.502-3.805,3.861,0.725,3.989
			c4.525,0.125,17.242-0.091,17.242-0.091l-0.086-6.176L343.421,431.371z"/>
		<path fill="#464C53" d="M334.574,435.729c0.473,0.574,1.462,1.025,3.112,1.069c4.53,0.126,16.971,0,16.971,0v-1.069H334.574z"/>
	</g>
	<g>
		<path fill="#AE6728" d="M377.874,432.5c0,0,5.241,0.764,7.757,1.268c2.517,0.503,2.929,2.949-1.597,3.078
			c-4.118,0.112-3.62,0.565-16.674,0.101l-0.136-4.446H377.874z"/>
		<path fill="#464C53" d="M387.629,435.729c-0.474,0.574-1.465,1.025-3.116,1.069c-4.528,0.126-16.809,0-16.809,0v-1.069H387.629z"
			/>
	</g>
	<path fill="#AE6728" d="M334.562,285.5h3.021c0,0,0-10.855,4.029-14.225c4.029-3.368,9.066-8.387,9.066-8.387
		s10.146,9.578,19.931,11.341c9.786,1.765,15.176,8.251,15.252,13.32l2.077-0.696c0,0,7.137-32.008-25.134-38.555l0.642-2.518
		c0,0-12.781,2.238-17.302,7.438l-7.555,2.131l1.007,2.147C339.597,257.497,330.029,271.5,334.562,285.5z"/>
</g>
<path fill="#FED3AE" d="M174.137,116.038c0-14.718,5.363-23.043,20.363-25.3V86.5h13v4.237c15,2.257,19.24,10.583,19.24,25.3
	l8.589,40.898l-9.684,2.394l-9.332-45.072c0-11.421-4.534-10.33-15.603-10.263l0.012,0.146c-11.577-0.017-17.28-1.54-17.28,10.118
	l-9.331,45.072l-9.126-2.394L174.137,116.038z"/>
<polygon fill="#AE6728" points="176.678,86.678 176.934,69.164 199.746,67.998 222.55,75.94 220.365,86.678 "/>
<path fill="#FED3AE" d="M199.315,157.934l-13.118-0.301l4.02,50.537c0,0-7.412,7.298-2.456,8.084
	c8.327,1.315,11.008-7.734,11.008-7.734S198.286,176.312,199.315,157.934z"/>
<path fill="#A19634" d="M190.605,207.559c0,0-9.841,9.669-3.075,12.34c5.306,2.093,11.742-2.748,11.656-11.379
	c0,0-7.777,8.369-9.653,7.201C187.655,214.548,190.605,207.559,190.605,207.559z"/>
<path fill="#FED3AE" d="M200.917,157.934l13.121-0.301l-4.02,50.537c0,0,7.41,7.298,2.455,8.084
	c-8.325,1.315-11.009-7.734-11.009-7.734S201.949,176.312,200.917,157.934z"/>
<path fill="#433934" d="M171.82,169.701c0,0,0.812,5.817,27.98,5.817c27.169,0,27.981-5.817,27.981-5.817
	s-10.225-47.658-27.981-47.658C182.043,122.043,171.82,169.701,171.82,169.701z"/>
<path fill="#FED3AE" d="M175.487,63.781c0,13.882,12.687,25.137,24.48,25.137c11.792,0,24.479-11.255,24.479-25.137
	c0-13.884-10.959-25.14-24.479-25.14C186.446,38.642,175.487,49.897,175.487,63.781z"/>
<path fill="#FED3AE" d="M228.003,161.541c0.57,2.265,2.864,3.634,5.127,3.067l0,0c2.262-0.57,3.635-2.862,3.068-5.127l-1.375-5.461
	c-0.569-2.261-2.864-3.632-5.127-3.066l0,0c-2.26,0.57-3.635,2.864-3.066,5.126L228.003,161.541z"/>
<path fill="none" stroke="#FFFFFF" stroke-width="3.4104" stroke-linecap="round" stroke-miterlimit="10" stroke-dasharray="0,2.842" d="
	M208.897,91.02c0,0-2.543,6.786-9.021,6.786c-6.476,0-8.445-6.479-8.445-6.479"/>
<line fill="none" stroke="#FFFFFF" stroke-width="3.4104" stroke-linecap="round" stroke-miterlimit="10" stroke-dasharray="0,2.842" x1="234.396" y1="151.269" x2="222.799" y2="153.593"/>
<path fill="#FED3AE" d="M171.75,161.541c-0.57,2.265-2.863,3.634-5.125,3.067l0,0c-2.264-0.57-3.635-2.862-3.066-5.127l1.373-5.461
	c0.569-2.261,2.862-3.632,5.125-3.066l0,0c2.263,0.57,3.636,2.864,3.065,5.126L171.75,161.541z"/>
<path fill="#994B31" d="M174.367,104.634c2.613-10.638,14.011-13.013,14.011-13.013s1.892,9.935,11.499,10.118
	c9.607-0.183,11.501-10.118,11.501-10.118s11.172,1.643,14.009,13.013c1.801,7.213,2.791,16.566,2.791,16.566l-11.829,1.208
	l-0.033,17.093h-16.439H183.44l-0.034-17.093l-11.828-0.733C171.578,121.674,172.593,111.855,174.367,104.634z"/>
<path fill="#E88824" d="M218.889,88.231c0,0,0.845-9.293-0.563-23.091c-0.75-7.369-5.35-13.513-5.35-13.513
	s-5.428,5.068-21.119,7.038c-6.146,0.772-11.826,3.098-13.233,9.856c-1.115,5.358-0.56,15.669,0.418,19.71h-4.41
	c-8.433-33.901,9.52-54.211,20.323-54.766c10.983-0.563,14.361,6.334,14.361,6.334s8.165-2.252,13.234,11.828
	c5.068,14.076,0.845,36.604,0.845,36.604H218.889z"/>
<path fill="#B68F6B" d="M108.758,50.803c0,14.962,13.673,27.092,26.383,27.092c12.711,0,26.384-12.13,26.384-27.092
	c0-14.966-11.811-27.093-26.384-27.093C120.572,23.71,108.758,35.837,108.758,50.803z"/>
<rect x="126.5" y="76.5" fill="#B68F6B" width="17" height="8"/>
<path fill="#B68F6B" d="M135.187,81.5h0.258c19.708,0,30.119,9.547,30.119,29.25l5.936,44.399v3.743v2.139
	c0,2.657-1.843,4.811-4.498,4.811c-2.657,0-4.502-2.154-4.502-4.811v-3.53h-2.406l-3.145-26.107l-1.32-22.913
	c0-13.239-6.991-13.738-20.228-13.738l-0.172,0.617c-13.236,0-20.226-0.528-20.226,12.708l-4.466,49.433H108.5v3.53
	c0,2.657-3.343,4.811-6,4.811s-6-2.154-6-4.811v-2.139l1.386-3.447l7.453-44.582C105.339,91.157,115.479,81.5,135.187,81.5z"/>
<path fill="#A19634" d="M153.557,136.5l0.607,77h-11.621c0,0-2.997-59.015-6.969-59.015c-3.975,0-7.004,59.015-7.004,59.015h-11.351
	l-0.192-77H153.557z"/>
<path fill="#433934" d="M135.187,85.818c5.838,0,7.889-4.58,8.104-4.547c12.045,1.914,19.431,9.653,21.676,21.371
	c0.486,2.532,6.799,50.858,6.799,50.858h-12.542l-5.26-40.189l-0.16,31.619l-36.751,0.415l-0.922-31.051l-5.104,39.207H98.932
	c0,0,6.626-51.1,7.725-54.562c2.941-9.289,9.77-15.731,20.194-17.521C126.851,81.418,129.349,85.818,135.187,85.818z"/>
<g>
	<path fill="#AE6728" d="M153.819,213.083c0,0,4.98,1.087,7.647,1.623c2.668,0.532,4.036,4.095-0.767,4.23
		c-4.805,0.132-18.29-0.097-18.29-0.097l0.092-6.551L153.819,213.083z"/>
	<path fill="#464C53" d="M163.278,217.707c-0.5,0.609-1.55,1.087-3.303,1.133c-4.805,0.134-17.999,0-17.999,0v-1.133H163.278z"/>
</g>
<g>
	<path fill="#AE6728" d="M117.274,213.5c0,0-5.56,1.202-8.227,1.738c-2.669,0.534-3.649,3.668,1.154,3.803
		c4.804,0.131,17.299-0.202,17.299-0.202v-5.34H117.274z"/>
	<path fill="#464C53" d="M107.004,217.707c0.5,0.609,1.55,1.087,3.304,1.133c4.804,0.134,17.829,0,17.829,0v-1.133H107.004z"/>
</g>
<path fill="#433934" d="M109.119,48.625c0,0,11.034-8.193,12.247-17.6c0,0,11.533,5.767,20.637,9.407
	c9.104,3.643,19.533,13.076,19.533,13.076s3.932-15.199-8.862-24.909c-12.794-9.712-26.04-7.418-32.218-3.036
	C114.281,29.945,108.707,40.519,109.119,48.625z"/>
<path fill="#A19634" d="M210.461,207.559c0,0,9.842,9.669,3.076,12.34c-5.304,2.093-11.742-2.748-11.658-11.379
	c0,0,7.777,8.369,9.656,7.201C213.415,214.548,210.461,207.559,210.461,207.559z"/>
<g>
	<path fill="#F6C18B" d="M219.19,174.8c0,23.188-21.188,41.983-40.885,41.983c-19.697,0-40.886-18.795-40.886-41.983
		c0-23.192,18.306-41.987,40.886-41.987C200.887,132.813,219.19,151.608,219.19,174.8z"/>
	<rect x="166.5" y="213.5" fill="#F6C18B" width="28" height="12"/>
	<path fill="#F6C18B" d="M178.236,223.5h-0.398c-30.546,0-46.409,15.001-46.409,45.545l-8.929,69.012v5.8v3.313
		c0,4.118,3.383,7.457,7.5,7.457s7.5-3.339,7.5-7.457V344.5h2.138l4.873-41.859l2.047-36.205c0-20.515,10.831-21.643,31.346-21.643
		l0.266,0.781c20.513,0,31.343,0.491,31.343,21.002l6.92,77.924h2.066v2.669c0,4.118,4.883,7.457,9,7.457s9-3.339,9-7.457v-3.313
		l-1.301-5.343l-11.131-69.295C224.068,238.673,208.778,223.5,178.236,223.5z"/>
	<path fill="#433934" d="M149.766,308.5l-0.94,119h18.011c0,0,4.641-91.456,10.799-91.456c6.161,0,10.855,91.456,10.855,91.456
		h17.589l0.299-119H149.766z"/>
	<path fill="#89BABC" d="M178.236,239.855c0,0-11.668-16.511-12.005-16.458c-19.644,3.179-30.666,14.628-34.146,32.787
		c-0.751,3.926-10.537,78.316-10.537,78.316h19.44l8.151-61.78l0.245,49.248l56.955,0.771l1.429-48.56l7.909,60.321h18.742
		c0,0-10.271-78.686-11.971-84.057c-4.714-14.041-14.852-23.457-29.018-26.452L178.236,239.855z"/>
	<g>
		<path fill="#AE6728" d="M149.076,427.003c0,0-7.431,2.521-11.567,3.346c-4.133,0.829-6.25,6.351,1.192,6.56
			c7.443,0.205,28.342-0.15,28.342-0.15l-0.143-10.152L149.076,427.003z"/>
		<path fill="#464C53" d="M134.667,435.002c0.778,0.945,2.406,1.68,5.122,1.756c7.442,0.208,27.892,0,27.892,0v-1.756H134.667z"/>
		<path fill="#464C53" d="M145.004,433.936c-0.03,0.163-0.386-1.816-0.443-2.008c-0.077-0.25-0.931-2.262-0.654-1.803
			c-0.186-0.356-0.391-0.705-0.587-1.055c-2.21,0.584-4.522,1.161-6.141,1.487c-4.137,0.826-4.835,5.995,2.609,6.2
			c1.407,0.04,3.266,0.064,5.358,0.079C145.134,435.87,145.095,434.902,145.004,433.936z"/>
	</g>
	<g>
		<path fill="#AE6728" d="M205.995,427.5c0,0,8.615,2.354,12.75,3.182c4.137,0.828,5.95,5.935-1.495,6.142
			c-7.445,0.205-27.75-0.065-27.75-0.065V427.5H205.995z"/>
		<path fill="#464C53" d="M221.877,435.002c-0.776,0.945-2.406,1.68-5.122,1.756c-7.443,0.208-27.629,0-27.629,0v-1.756H221.877z"/>
		<path fill="#464C53" d="M211.541,433.936c0.027,0.163,0.387-1.816,0.443-2.008c0.076-0.25,0.929-2.262,0.652-1.803
			c0.187-0.356,0.392-0.705,0.587-1.055c2.21,0.584,4.522,1.161,6.142,1.487c4.137,0.826,4.835,5.995-2.609,6.2
			c-1.406,0.04-3.267,0.064-5.359,0.079C211.411,435.87,211.448,434.902,211.541,433.936z"/>
	</g>
	<path fill="#AE6728" d="M209.492,192.12c-2.351,6.586-12.228,14.11-14.578,10.347c-2.351-3.76-6.583-13.167-16.93-13.167
		c-10.346,0-14.58,9.406-16.93,13.167c-2.351,3.763-12.228-3.76-14.579-10.347c-2.353-6.582-9.105-13.128-9.105-13.128
		s1.697,24.651,14.864,30.764c13.17,6.116,15.404,10.112,25.75,10.112c10.347,0,12.58-3.996,25.748-10.112
		c13.168-6.113,14.865-30.764,14.865-30.764S211.844,185.538,209.492,192.12z M179.5,202.467c-6,0-10-4.702,0-4.702
		C191.5,197.765,185.5,202.467,179.5,202.467z"/>
	<path fill="#AE6728" d="M137.37,171.427c0,0,17.099-12.697,18.98-27.278c0,0,17.871,8.937,31.98,14.581
		c14.107,5.644,19.281,1.411,19.281,1.411l10.984,18.851c0,0,6.095-23.554-13.732-38.605c-19.827-15.048-32.526-9.875-32.526-9.875
		l0.471-4.231c0,0-13.638,2.822-17.871,9.406c0,0-7.994,3.291-11.758,7.995l2.353,1.41
		C145.534,145.091,136.729,158.861,137.37,171.427z"/>
</g>
<g>
	<path fill="#6E441B" d="M91.049,249.648c0,0-4.333-8.666-13.686-6.242c-9.353,2.424-12.586,16.577-9.353,31.534
		c3.236,14.963-1.217,18.6-1.217,18.6s12.539,2.427,17.794-4.853c5.257-7.276,6.066-38.064,6.066-38.064"/>
	<path fill="#6E441B" d="M116.133,249.648c0,0,4.333-8.666,13.685-6.242c9.351,2.424,12.584,16.577,9.351,31.534
		c-3.233,14.963,1.22,18.6,1.22,18.6s-12.539,2.427-17.796-4.853c-5.255-7.276-6.064-38.064-6.064-38.064"/>
	<path fill="#FED3AE" d="M129.101,331.82c0-14.831-5.601-23.223-19.601-25.494V294.5h-14v11.826
		c-13,2.271-19.857,10.663-19.857,25.494l-8.891,41.215l9.641,2.411l9.347-45.419c0-11.511,15.681-5.37,15.681-5.37
		c11.664-0.018,17.398-6.378,17.398,5.37l9.396,45.419l9.651-2.411"/>
	<path fill="#FED3AE" d="M102.928,374.037l13.22-0.301l-4.052,50.925c0,0,7.469,7.356,2.477,8.148
		c-8.394,1.328-11.096-7.791-11.096-7.791S103.965,392.561,102.928,374.037z"/>
	<path fill="#FCBB47" d="M111.584,424.048c0,0,9.919,9.742,3.101,12.437c-5.345,2.106-11.832-2.77-11.748-11.466
		c0,0,7.838,8.431,9.731,7.253C114.56,431.092,111.584,424.048,111.584,424.048z"/>
	<path fill="#FED3AE" d="M101.315,374.037l-13.222-0.301l4.052,50.925c0,0-7.468,7.356-2.474,8.148
		c8.391,1.328,11.094-7.791,11.094-7.791S100.276,392.561,101.315,374.037z"/>
	<path fill="#FCBB47" d="M91.579,424.048c0,0-9.918,9.742-3.099,12.437c5.343,2.106,11.831-2.77,11.745-11.466
		c0,0-7.837,8.431-9.731,7.253C88.601,431.092,91.579,424.048,91.579,424.048z"/>
	<path fill="#994B31" d="M125.153,384.441c-1.893-8.019-3.071-46.57-22.292-46.57c-19.222,0-21.283,38.552-23.18,46.57H125.153z"/>
	<path fill="#FED3AE" d="M130.896,274.25c0,16.273-14.871,29.467-28.695,29.467c-13.823,0-28.694-13.193-28.694-29.467
		c0-16.275,12.847-29.467,28.694-29.467C118.048,244.783,130.896,257.975,130.896,274.25z"/>
	<path fill="#FED3AE" d="M73.899,377.676c-0.574,2.281-2.886,3.66-5.165,3.089l0,0c-2.279-0.572-3.664-2.885-3.091-5.164
		l1.383-5.506c0.574-2.278,2.885-3.661,5.167-3.088l0,0c2.276,0.571,3.662,2.885,3.088,5.165L73.899,377.676z"/>
	<path fill="#FED3AE" d="M130.588,377.676c0.573,2.281,2.885,3.66,5.165,3.089l0,0c2.28-0.572,3.662-2.885,3.088-5.164l-1.382-5.506
		c-0.572-2.278-2.886-3.661-5.166-3.088l0,0c-2.279,0.571-3.661,2.885-3.09,5.165L130.588,377.676z"/>
	<path fill="#994B31" d="M128.426,321.518c-2.325-11.782-14.213-14.746-14.213-14.746l-11.97,16.447l-11.589-16.004
		c0,0-11.487,2.395-14.12,13.112c-1.786,7.281-2.81,16.694-2.81,16.694l11.92,0.475l0.034,23.083l16.564-6.604l16.564,6.604
		l0.035-23.083l11.917-0.365C130.76,337.131,130.214,328.797,128.426,321.518z"/>
	
		<line fill="none" stroke="#FFFFFF" stroke-width="2.6551" stroke-linecap="round" stroke-miterlimit="10" stroke-dasharray="0,2.2126" x1="137.892" y1="366.185" x2="126.204" y2="368.53"/>
	<path fill="#AE6728" d="M103.591,259.377c-0.165-0.423-0.85-0.719-1.618,0.606c-3.557,6.124-14.903,22.542-27.518,21.219
		c0,0-2.524-7.486,0-15.962c2.92-9.798,11.978-20.761,29.539-20.458c19.048,0.333,25.739,13.787,26.766,24.905
		c0.81,8.738-1.225,12.554-1.225,12.554S110.868,278.178,103.591,259.377z"/>
</g>
<g>
	<path fill="#CB8F2B" d="M94.034,215.116c-0.008,0.004-0.002-0.005-0.075,0.022c-0.124,0.055-0.392,0.176-0.591,0.242
		c-0.364,0.118-0.856,0.253-1.443,0.34c-0.592,0.095-1.292,0.146-2.083,0.11c-0.79-0.031-1.664-0.174-2.553-0.439
		c-0.879-0.283-1.779-0.682-2.567-1.216c-0.4-0.263-0.791-0.544-1.126-0.86c-0.359-0.306-0.69-0.63-0.973-0.973
		c-0.304-0.337-0.587-0.683-0.816-1.042c-0.24-0.356-0.496-0.712-0.674-1.077c-0.206-0.394-0.414-0.791-0.623-1.188l-0.04-0.121
		l-0.136-0.283l-0.124-0.286l-0.068-0.214c-0.091-0.286-0.144-0.546-0.188-0.803c-0.16-1.01-0.101-1.851,0.005-2.638
		c0.114-0.782,0.292-1.499,0.511-2.163c0.436-1.327,1.013-2.45,1.6-3.333c0.585-0.885,1.183-1.515,1.627-1.902
		c0.445-0.389,0.722-0.559,0.722-0.559s-0.132,0.305-0.267,0.841c-0.136,0.536-0.25,1.307-0.226,2.209
		c0.019,0.899,0.169,1.935,0.482,2.945c0.155,0.503,0.357,0.999,0.593,1.439c0.235,0.433,0.524,0.829,0.795,0.99
		c0.066,0.035,0.129,0.065,0.182,0.055c0.013-0.002,0.027,0.002,0.036-0.005c0-0.028-0.001-0.056-0.005-0.084
		s-0.01-0.055-0.018-0.082l0.093,0.071l0.048,0.037l0.024,0.019l0.012,0.009l0.006,0.005c-0.038-0.052,0.092,0.123-0.083-0.116
		l0.081,0.042l0.159,0.083l0.309,0.162c0.199,0.122,0.403,0.169,0.589,0.237c0.187,0.08,0.366,0.107,0.528,0.123
		c0.163,0.038,0.312,0.031,0.439,0.008c0.131,0.002,0.24-0.046,0.329-0.089c0.182-0.075,0.274-0.226,0.313-0.34
		c0.069-0.263-0.033-0.501-0.159-0.618c-0.062-0.061-0.158-0.094-0.254-0.093c-0.066,0.007-0.235,0.074-0.29,0.097
		c-0.007-0.008,0.032-0.037,0.025-0.032L94.034,215.116z"/>
</g>
<g>
	<path fill="#FFE5C5" d="M107.509,219.378c0.177-1.126,0.193-2.169,0.374-3.147c0.583-3.184,1-5.684,0.861-8.182
		c-0.225-1.658-0.604-3.256-1.103-4.636c-0.26-0.643-0.595-1.308-0.968-2.003c-0.93-1.488-2.215-2.426-3.968-2.426
		c-3.566,0-5.823,3.883-7.063,8.147c-0.434,3.584,0.58,7.003,1.408,12.247c0.429,2.715,0.276,4.207-0.558,4.993l12.008-0.264v-0.002
		C107.5,223.264,107.123,221.814,107.509,219.378z"/>
	<path fill="#CB8F2B" d="M97.047,219.378c-0.828-5.244-1.844-8.663-1.41-12.247c-1.16,3.989-1.435,8.312-1.074,10.1
		c0.524,2.606,0.671,6.678-1.392,7.908c0.939,0.108,2.135,0.032,2.979-0.768C96.984,223.585,97.476,222.093,97.047,219.378z"/>
	<path fill="#CB8F2B" d="M109.105,218.957c0-2.481,0.104-6.874-0.446-10.908c0.139,2.498-0.363,4.998-0.947,8.182
		c-0.179,0.978-0.366,2.021-0.544,3.147c-0.385,2.436-0.026,3.885,0.652,4.727c0.897,1.11,2.35,1.162,3.404,1.012
		C109.844,224.174,109.105,222.046,109.105,218.957z"/>
	<path fill="#CB8F2B" d="M106.65,201.41c0.374,0.695,0.688,1.36,0.948,2.003C107.331,202.675,107.018,201.999,106.65,201.41z"/>
	<path fill="#FFBF6E" d="M113.654,219.697c0,0,2.118-15.089-1.215-22.979c-3.334-7.891-6.045-10.218-3.827-16.218H93.565
		c0,0,3.981,7.833,0.268,13.505c-3.714,5.67-6.868,17.285-4.551,25.915c0,0-6.015,2.354,0,5.066
		c1.775,0.801,3.025,0.725,3.889,0.209c2.063-1.231,1.916-5.331,1.392-7.937c-0.361-1.788-0.086-6.125,1.074-10.114
		c1.239-4.264,3.49-8.153,7.058-8.153c1.752,0,3.026,0.934,3.956,2.421c0.367,0.589,0.681,1.264,0.948,2.002
		c0.499,1.38,0.835,2.977,1.061,4.635c0.55,4.035,0.446,8.426,0.446,10.907c0,3.089,0.739,5.217,2.12,6.16
		c1.044,0.711,2.455,0.748,4.195,0.004C119.461,223.396,113.654,219.697,113.654,219.697z"/>
</g>
<g>
	<path fill="#CB8F2B" d="M109.598,139.559c0,0,1.584-2.82,6.052-1.854c5.438,1.176,10.921,5.739,9.512,18.067
		c-1.409,12.329,0.347,21.021-1.689,23.486c-2.039,2.465-7.217-8.876-7.217-8.876"/>
	<path fill="#CB8F2B" d="M91.696,141.778c0,0-1.469-4.129-6.015-2.219c-5.874,2.466-11.348,6.667-8.985,16.027
		c3.983,15.782,0.596,23.534,4.295,24.412c3.698,0.878,8.634-14.301,8.634-14.301L91.696,141.778z"/>
</g>
<g>
	<path fill="#F69883" d="M104.891,180.59c0,0,3.53,9.512,9.032,6.65c5.502-2.86-1.354-11.684-1.354-11.684L104.891,180.59z"/>
	<path opacity="0.7" fill="#BF7462" d="M108.681,180.406c0,0,2.974,2.347,3.913,4.539c0,0-0.313-3.756-2.504-6.104"/>
</g>
<path fill="#FFBF6E" d="M102.984,137.71c-11.946,0.192-32.752,9.688-18.195,32.654c14.559,22.967,30.344,9.281,35.54-2.202
	C125.525,156.679,125.325,137.351,102.984,137.71z"/>
<path fill="#FFE5C5" d="M101,146.957l-2.013,16.274c0,0-13.75,2.174-11.087,10.602c2.651,8.384,10.859,9.247,14.054,9.247
	c4.933,0,11.055-2.835,12.432-9.247c1.378-6.41-4.788-10.109-10.458-10.356L101,146.957z"/>
<path fill="#464C53" d="M100.333,166.345c-4.655,0-10.495,0.932-5.845,8.072c4.65,7.14,9.003,5.898,13.038-0.932
	C111.561,166.656,105.607,166.345,100.333,166.345z M102.577,177.276c0,0,5.074-6.472,2.927-7.982
	c-2.148-1.51-10.111-1.252-10.111-1.252c2.019-0.626,10.461-0.469,11.718,0.47S105.395,175.241,102.577,177.276z"/>
<g>
	<g>
		<path fill="#464C53" d="M76.776,196.197c0,0-0.208-0.053-0.509-0.243c-0.302-0.188-0.699-0.514-1.047-1.041
			c-0.341-0.522-0.618-1.273-0.601-2.141c0.006-0.865,0.34-1.788,0.859-2.493l0.098-0.134l0.049-0.066l0.079-0.097l0.022-0.023
			l0.172-0.185c0.11-0.124,0.22-0.228,0.437-0.406c0.385-0.336,0.765-0.543,1.174-0.707c0.82-0.33,1.687-0.317,2.309-0.115
			c0.632,0.203,1.046,0.54,1.288,0.806c0.244,0.267,0.324,0.467,0.324,0.467s-0.213,0.029-0.525,0.094
			c-0.313,0.069-0.728,0.181-1.112,0.371c-0.191,0.092-0.377,0.19-0.542,0.319c-0.17,0.112-0.321,0.252-0.469,0.394
			c-0.146,0.139-0.302,0.318-0.399,0.438c-0.042,0.032-0.149,0.185-0.261,0.313l-0.163,0.194l-0.021,0.024
			c0.107-0.127,0.029-0.034,0.053-0.062l-0.001,0.002l-0.003,0.005l-0.006,0.009l-0.023,0.038l-0.047,0.074
			c-0.153,0.184-0.256,0.377-0.377,0.559c-0.104,0.187-0.203,0.371-0.292,0.567c-0.17,0.389-0.289,0.837-0.357,1.287
			c-0.075,0.451-0.094,0.887-0.104,1.213C76.778,196.001,76.776,196.197,76.776,196.197z"/>
	</g>
	<g>
		<path fill="#464C53" d="M74.198,196.161c0,0-0.236-0.089-0.577-0.348c-0.341-0.256-0.789-0.686-1.174-1.345
			c-0.378-0.653-0.676-1.565-0.633-2.602c0.03-1.034,0.438-2.129,1.065-2.98l0.118-0.162l0.059-0.08l0.083-0.104l0.027-0.029
			l0.218-0.236c0.14-0.158,0.279-0.297,0.531-0.503c0.45-0.398,0.903-0.657,1.386-0.861c0.481-0.202,0.984-0.322,1.459-0.345
			c0.472-0.04,0.916,0.024,1.298,0.119c0.769,0.205,1.294,0.572,1.61,0.865c0.319,0.294,0.438,0.518,0.438,0.518
			s-0.252,0.005-0.64,0.044c-0.388,0.042-0.914,0.124-1.435,0.312c-0.259,0.092-0.52,0.194-0.76,0.342
			c-0.247,0.128-0.475,0.299-0.698,0.481c-0.221,0.179-0.448,0.411-0.611,0.593c-0.078,0.06-0.213,0.248-0.355,0.411l-0.208,0.245
			l-0.026,0.031c0.107-0.127,0.028-0.033,0.052-0.061l-0.002,0.003l-0.004,0.006l-0.008,0.013l-0.033,0.052l-0.067,0.102
			c-0.208,0.257-0.354,0.531-0.512,0.793c-0.138,0.271-0.261,0.54-0.362,0.82c-0.195,0.559-0.293,1.167-0.324,1.749
			c-0.038,0.582-0.006,1.122,0.022,1.516C74.176,195.927,74.198,196.161,74.198,196.161z"/>
	</g>
</g>
</svg>
