<?xml version="1.0" encoding="utf-8"?>
<!-- Generator: Adobe Illustrator 16.0.0, SVG Export Plug-In . SVG Version: 6.00 Build 0)  -->
<!DOCTYPE svg PUBLIC "-//W3C//DTD SVG 1.1//EN" "http://www.w3.org/Graphics/SVG/1.1/DTD/svg11.dtd">
<svg version="1.1" id="Capa_1" xmlns="http://www.w3.org/2000/svg" xmlns:xlink="http://www.w3.org/1999/xlink" x="0px" y="0px"
	 width="500px" height="500px" viewBox="0 0 500 500" enable-background="new 0 0 500 500" xml:space="preserve">
<g>
	<path fill="#FDE187" d="M446.861,252.175c0,111.542-90.419,201.958-201.958,201.958c-111.537,0-201.958-90.416-201.958-201.958
		c0-111.54,90.421-201.957,201.958-201.957C356.442,50.218,446.861,140.635,446.861,252.175z"/>
	<g>
		<path fill="#F16465" d="M482.402,211.339l-17.099,13.677v-44.26h16.095c2.225,0,4.022,1.799,4.022,4.023v20.274
			C485.421,207.498,484.314,209.811,482.402,211.339L482.402,211.339z M482.402,211.339"/>
		<path fill="#FCB352" d="M482.402,191.22l-17.099,13.68v-44.264h16.101c2.219,0,4.019,1.8,4.019,4.023v20.278
			C485.421,187.379,484.314,189.693,482.402,191.22L482.402,191.22z M482.402,191.22"/>
		<path fill="#FFE164" d="M482.402,171.097l-17.099,13.68v-44.262h16.095c2.225,0,4.022,1.8,4.022,4.023v20.276
			C485.421,167.258,484.314,169.57,482.402,171.097L482.402,171.097z M482.402,171.097"/>
		<path fill="#ABD377" d="M482.402,150.979l-17.099,13.68v-44.264h16.095c2.225,0,4.022,1.8,4.022,4.023v20.276
			C485.421,147.139,484.314,149.452,482.402,150.979L482.402,150.979z M482.402,150.979"/>
		<path fill="#41C7F2" d="M482.402,130.86l-17.099,13.677v-44.262h16.095c2.225,0,4.022,1.8,4.022,4.023v20.276
			C485.421,127.021,484.314,129.331,482.402,130.86L482.402,130.86z M482.402,130.86"/>
		<path fill="#F89F5C" d="M469.329,321.594H296.297c-2.224,0-4.022-1.803-4.022-4.023V92.228c0-2.221,1.799-4.025,4.022-4.025
			h173.032c2.22,0,4.023,1.804,4.023,4.025V317.57C473.353,319.791,471.549,321.594,469.329,321.594L469.329,321.594z
			 M469.329,321.594"/>
		<path fill="#5C5E6F" d="M328.489,321.594h-32.192c-2.224,0-4.022-1.803-4.022-4.023V92.228c0-2.221,1.799-4.025,4.022-4.025
			h32.192V321.594z M328.489,321.594"/>
		<path fill="#717588" d="M300.319,128.444h-16.095c-2.221,0-4.022-1.802-4.022-4.025c0-2.223,1.802-4.023,4.022-4.023h16.095
			c2.224,0,4.022,1.8,4.022,4.023C304.342,126.642,302.543,128.444,300.319,128.444L300.319,128.444z M300.319,128.444"/>
		<path fill="#717588" d="M300.319,108.32h-16.095c-2.221,0-4.022-1.798-4.022-4.023c0-2.221,1.802-4.021,4.022-4.021h16.095
			c2.224,0,4.022,1.8,4.022,4.021C304.342,106.522,302.543,108.32,300.319,108.32L300.319,108.32z M300.319,108.32"/>
		<path fill="#717588" d="M300.319,309.523h-16.095c-2.221,0-4.022-1.805-4.022-4.025c0-2.223,1.802-4.024,4.022-4.024h16.095
			c2.224,0,4.022,1.802,4.022,4.024C304.342,307.723,302.543,309.523,300.319,309.523L300.319,309.523z M300.319,309.523"/>
		<path fill="#717588" d="M300.319,148.561h-16.095c-2.221,0-4.022-1.799-4.022-4.023c0-2.223,1.802-4.025,4.022-4.025h16.095
			c2.224,0,4.022,1.802,4.022,4.025C304.342,146.762,302.543,148.561,300.319,148.561L300.319,148.561z M300.319,148.561"/>
		<path fill="#717588" d="M300.319,168.682h-16.095c-2.221,0-4.022-1.804-4.022-4.023c0-2.225,1.802-4.023,4.022-4.023h16.095
			c2.224,0,4.022,1.798,4.022,4.023C304.342,166.878,302.543,168.682,300.319,168.682L300.319,168.682z M300.319,168.682"/>
		<path fill="#717588" d="M300.319,188.801h-16.095c-2.221,0-4.022-1.8-4.022-4.025c0-2.221,1.802-4.023,4.022-4.023h16.095
			c2.224,0,4.022,1.803,4.022,4.023C304.342,187.001,302.543,188.801,300.319,188.801L300.319,188.801z M300.319,188.801"/>
		<path fill="#717588" d="M300.319,208.923h-16.095c-2.221,0-4.022-1.802-4.022-4.023c0-2.225,1.802-4.025,4.022-4.025h16.095
			c2.224,0,4.022,1.8,4.022,4.025C304.342,207.121,302.543,208.923,300.319,208.923L300.319,208.923z M300.319,208.923"/>
		<path fill="#717588" d="M300.319,229.04h-16.095c-2.221,0-4.022-1.798-4.022-4.023c0-2.221,1.802-4.025,4.022-4.025h16.095
			c2.224,0,4.022,1.804,4.022,4.025C304.342,227.242,302.543,229.04,300.319,229.04L300.319,229.04z M300.319,229.04"/>
		<path fill="#717588" d="M300.319,249.162h-16.095c-2.221,0-4.022-1.801-4.022-4.023s1.802-4.023,4.022-4.023h16.095
			c2.224,0,4.022,1.8,4.022,4.023S302.543,249.162,300.319,249.162L300.319,249.162z M300.319,249.162"/>
		<path fill="#717588" d="M300.319,269.282h-16.095c-2.221,0-4.022-1.804-4.022-4.025c0-2.221,1.802-4.022,4.022-4.022h16.095
			c2.224,0,4.022,1.802,4.022,4.022C304.342,267.479,302.543,269.282,300.319,269.282L300.319,269.282z M300.319,269.282"/>
		<path fill="#717588" d="M300.319,289.4h-16.095c-2.221,0-4.022-1.801-4.022-4.025c0-2.219,1.802-4.023,4.022-4.023h16.095
			c2.224,0,4.022,1.805,4.022,4.023C304.342,287.6,302.543,289.4,300.319,289.4L300.319,289.4z M300.319,289.4"/>
		<path fill="#474756" d="M316.416,313.548c-2.221,0-4.024-1.804-4.024-4.024V100.276c0-2.225,1.804-4.025,4.024-4.025
			c2.226,0,4.025,1.8,4.025,4.025v209.248C320.441,311.744,318.642,313.548,316.416,313.548L316.416,313.548z M316.416,313.548"/>
		<path fill="#FFEBC3" d="M417.02,220.467v-5.277c2.583-1.955,4.343-4.823,4.75-8.075l0.781-6.24h0.12
			c1.406,0,2.631-0.958,2.976-2.322l1.997-7.996c0.616-2.463-0.858-4.839-3.133-5.546c0.354-3.079,0.553-6.168,0.553-9.267v-3.039
			c0-8.887-7.207-16.096-16.095-16.096h-16.097c-8.889,0-16.094,7.209-16.094,16.096v3.039c0,3.099,0.194,6.188,0.553,9.267
			c-2.271,0.708-3.747,3.083-3.133,5.546l1.998,7.996c0.341,1.364,1.567,2.322,2.974,2.322h0.122l0.781,6.24
			c0.403,3.251,2.164,6.12,4.75,8.075v5.277c0,2.694-1.785,5.062-4.376,5.802l-17.955,5.129c-3.455,0.989-5.834,4.147-5.834,7.741
			v10.024c0,2.221,1.802,4.024,4.022,4.024h80.479c2.223,0,4.026-1.804,4.026-4.024v-10.024c0-3.595-2.382-6.754-5.839-7.741
			l-17.952-5.129C418.804,225.528,417.02,223.161,417.02,220.467L417.02,220.467z M417.02,220.467"/>
		<path fill="#F08C46" d="M408.969,156.609c8.888,0,16.095,7.209,16.095,16.098v3.037c0,3.099-0.198,6.191-0.553,9.267
			c2.274,0.708,3.749,3.083,3.133,5.546l-1.997,7.998c-0.345,1.362-1.569,2.32-2.976,2.32h-0.12l-0.781,6.24
			c-0.407,3.251-2.167,6.12-4.75,8.075v5.277c0,2.694,1.784,5.062,4.374,5.802l17.952,5.129c3.454,0.989,5.84,4.147,5.84,7.741
			v10.024c0,2.221-1.803,4.024-4.027,4.024h-80.478c-2.223,0-4.022-1.804-4.022-4.024v-10.024c0-3.595,2.379-6.752,5.834-7.741
			l17.955-5.127c2.591-0.743,4.376-3.11,4.376-5.804v-5.275c-2.586-1.957-4.347-4.825-4.752-8.077l-0.779-6.24h-0.122
			c-1.406,0-2.633-0.958-2.974-2.32l-1.998-7.998c-0.614-2.461,0.861-4.839,3.133-5.546c-0.358-3.079-0.558-6.168-0.558-9.267
			v-3.037c0-8.889,7.21-16.098,16.099-16.098H408.969 M408.969,148.561h-16.097c-13.313,0-24.145,10.833-24.145,24.146v3.037
			c0,1.835,0.064,3.714,0.19,5.624c-2.478,3.009-3.54,7.104-2.526,11.143l1.998,7.996c0.563,2.262,1.798,4.215,3.453,5.665
			l0.242,1.941c0.493,3.929,2.123,7.548,4.693,10.513v0.322l-16.497,4.711c-6.873,1.963-11.674,8.333-11.674,15.48v10.024
			c0,6.654,5.417,12.071,12.073,12.071h80.479c6.656,0,12.071-5.417,12.071-12.071v-10.024c0-7.147-4.799-13.518-11.674-15.48
			l-16.494-4.711v-0.322c2.569-2.965,4.201-6.584,4.692-10.513l0.243-1.955c1.66-1.447,2.888-3.397,3.454-5.653l2-7.994
			c1.007-4.038-0.051-8.135-2.533-11.145c0.127-1.909,0.192-3.789,0.192-5.622v-3.039
			C433.112,159.392,422.281,148.561,408.969,148.561L408.969,148.561z M408.969,148.561"/>
	</g>
	<g>
		<path fill="#FFFFFF" d="M149.201,45h-0.004C83.444,45.003,30.143,98.307,30.143,164.058c0,65.753,53.302,119.055,119.055,119.057
			h0.004c65.75,0,119.059-53.304,119.059-119.057C268.26,98.305,214.951,45,149.201,45L149.201,45z M149.201,45"/>
		<path fill="#F4F4F4" d="M149.201,45h-0.004v238.116h0.004c65.75,0,119.059-53.304,119.059-119.057
			C268.26,98.305,214.951,45,149.201,45L149.201,45z M149.201,45"/>
		<path fill="#353434" d="M181.428,152.563l-27.935-20.298c-1.281-0.934-2.788-1.398-4.296-1.395c-1.506,0-3.009,0.465-4.288,1.395
			l-27.937,20.298c-2.56,1.857-3.627,5.153-2.653,8.163l10.669,32.84c0.979,3.009,3.785,5.046,6.948,5.046h34.53
			c3.164,0,5.969-2.037,6.945-5.046l10.668-32.84C185.062,157.716,183.991,154.419,181.428,152.563L181.428,152.563z
			 M181.428,152.563"/>
		<path d="M181.428,152.563l-27.935-20.298c-1.281-0.934-2.788-1.398-4.296-1.395v67.741h17.269c3.164,0,5.969-2.037,6.945-5.046
			l10.668-32.84C185.062,157.716,183.991,154.419,181.428,152.563L181.428,152.563z M181.428,152.563"/>
		<path fill="#353434" d="M149.201,45h-0.004c-11.75,0-23.1,1.713-33.824,4.883l13.457,23.313c1.308,2.26,3.72,3.651,6.327,3.651
			h28.088c2.607,0,5.021-1.392,6.327-3.651l13.458-23.313C172.303,46.708,160.958,45,149.201,45L149.201,45z M149.201,45"/>
		<path d="M149.201,45h-0.004v31.848h14.048c2.607,0,5.021-1.392,6.327-3.651l13.458-23.313C172.303,46.708,160.958,45,149.201,45
			L149.201,45z M149.201,45"/>
		<path fill="#353434" d="M51.085,96.62c-12.656,18.375-20.288,40.473-20.9,64.326l26.306-5.594
			c2.553-0.545,4.623-2.407,5.427-4.885l8.682-26.712c0.807-2.484,0.228-5.205-1.518-7.147L51.085,96.62z M51.085,96.62"/>
		<path fill="#353434" d="M109.301,242.869l-22.723-16.511c-2.11-1.535-4.88-1.828-7.263-0.765l-24.57,10.939
			c13.881,18.065,32.827,32.032,54.714,39.781l2.812-26.771C112.546,246.944,111.413,244.4,109.301,242.869L109.301,242.869z
			 M109.301,242.869"/>
		<path d="M211.824,226.356L189.1,242.869c-2.109,1.531-3.24,4.076-2.969,6.672l2.813,26.768
			c21.888-7.749,40.828-21.714,54.712-39.777l-24.568-10.939C216.703,224.53,213.933,224.823,211.824,226.356L211.824,226.356z
			 M211.824,226.356"/>
		<path d="M247.32,96.62l-17.997,19.987c-1.747,1.942-2.326,4.663-1.523,7.147l8.68,26.712c0.808,2.478,2.878,4.34,5.428,4.885
			l26.313,5.59C267.607,137.093,259.972,114.995,247.32,96.62L247.32,96.62z M247.32,96.62"/>
	</g>
	<g>
		<path fill="#F0F3FA" d="M360.018,486.715H100.626c-5.511,0-9.98-4.467-9.98-9.979V287.183h279.348v189.554
			C369.994,482.248,365.527,486.715,360.018,486.715L360.018,486.715z M360.018,486.715"/>
		<rect x="90.646" y="287.183" fill="#D8DEEC" width="279.348" height="19.951"/>
		<path fill="#F16465" d="M369.994,297.157H90.646c-2.751,0-4.986-2.236-4.986-4.987v-29.932c0-2.756,2.235-4.988,4.986-4.988
			h279.348c2.754,0,4.989,2.232,4.989,4.988v29.932C374.983,294.921,372.748,297.157,369.994,297.157L369.994,297.157z
			 M369.994,297.157"/>
		<path fill="#D3555A" d="M369.994,297.157H90.646c-2.751,0-4.986-2.236-4.986-4.987c0-2.753,2.235-4.987,4.986-4.987h279.348
			c2.754,0,4.989,2.234,4.989,4.987C374.983,294.921,372.748,297.157,369.994,297.157L369.994,297.157z M369.994,297.157"/>
		<path fill="#C7CFE2" d="M330.09,272.214c-2.758,0-4.989-2.229-4.989-4.987v-19.953c0-2.756,2.231-4.988,4.989-4.988
			c2.754,0,4.988,2.232,4.988,4.988v19.953C335.073,269.985,332.844,272.214,330.09,272.214L330.09,272.214z M330.09,272.214"/>
		<path fill="#C7CFE2" d="M355.029,272.214c-2.755,0-4.988-2.229-4.988-4.987v-19.953c0-2.756,2.233-4.988,4.988-4.988
			c2.756,0,4.988,2.232,4.988,4.988v19.953C360.018,269.985,357.785,272.214,355.029,272.214L355.029,272.214z M355.029,272.214"/>
		<path fill="#C7CFE2" d="M105.611,272.214c-2.753,0-4.985-2.229-4.985-4.987v-19.953c0-2.756,2.232-4.988,4.985-4.988
			c2.754,0,4.989,2.232,4.989,4.988v19.953C110.6,269.985,108.366,272.214,105.611,272.214L105.611,272.214z M105.611,272.214"/>
		<path fill="#C7CFE2" d="M305.145,272.214c-2.752,0-4.987-2.229-4.987-4.987v-19.953c0-2.756,2.235-4.988,4.987-4.988
			c2.757,0,4.991,2.232,4.991,4.988v19.953C310.136,269.985,307.901,272.214,305.145,272.214L305.145,272.214z M305.145,272.214"/>
		<path fill="#C7CFE2" d="M280.206,272.214c-2.756,0-4.988-2.229-4.988-4.987v-19.953c0-2.756,2.232-4.988,4.988-4.988
			c2.751,0,4.988,2.232,4.988,4.988v19.953C285.192,269.985,282.957,272.214,280.206,272.214L280.206,272.214z M280.206,272.214"/>
		<path fill="#C7CFE2" d="M255.264,272.214c-2.755,0-4.988-2.229-4.988-4.987v-19.953c0-2.756,2.233-4.988,4.988-4.988
			c2.753,0,4.985,2.232,4.985,4.988v19.953C260.249,269.985,258.017,272.214,255.264,272.214L255.264,272.214z M255.264,272.214"/>
		<path fill="#C7CFE2" d="M230.322,272.214c-2.76,0-4.989-2.229-4.989-4.987v-19.953c0-2.756,2.229-4.988,4.989-4.988
			c2.753,0,4.988,2.232,4.988,4.988v19.953C235.31,269.985,233.076,272.214,230.322,272.214L230.322,272.214z M230.322,272.214"/>
		<path fill="#C7CFE2" d="M205.378,272.214c-2.753,0-4.989-2.229-4.989-4.987v-19.953c0-2.756,2.236-4.988,4.989-4.988
			c2.757,0,4.987,2.232,4.987,4.988v19.953C210.365,269.985,208.136,272.214,205.378,272.214L205.378,272.214z M205.378,272.214"/>
		<path fill="#C7CFE2" d="M180.44,272.214c-2.759,0-4.991-2.229-4.991-4.987v-19.953c0-2.756,2.232-4.988,4.991-4.988
			c2.751,0,4.988,2.232,4.988,4.988v19.953C185.428,269.985,183.191,272.214,180.44,272.214L180.44,272.214z M180.44,272.214"/>
		<path fill="#C7CFE2" d="M155.493,272.214c-2.751,0-4.987-2.229-4.987-4.987v-19.953c0-2.756,2.236-4.988,4.987-4.988
			c2.757,0,4.991,2.232,4.991,4.988v19.953C160.484,269.985,158.25,272.214,155.493,272.214L155.493,272.214z M155.493,272.214"/>
		<path fill="#C7CFE2" d="M130.556,272.214c-2.755,0-4.99-2.229-4.99-4.987v-19.953c0-2.756,2.234-4.988,4.99-4.988
			c2.75,0,4.986,2.232,4.986,4.988v19.953C135.542,269.985,133.306,272.214,130.556,272.214L130.556,272.214z M130.556,272.214"/>
		<path fill="#D8DEEC" d="M140.533,366.993h-19.956c-2.753,0-4.988-2.232-4.988-4.988v-9.972c0-2.76,2.234-4.99,4.988-4.99h19.956
			c2.751,0,4.986,2.23,4.986,4.99v9.972C145.519,364.761,143.284,366.993,140.533,366.993L140.533,366.993z M140.533,366.993"/>
		<path fill="#D8DEEC" d="M140.533,426.854h-19.956c-2.753,0-4.988-2.234-4.988-4.986v-9.977c0-2.758,2.234-4.993,4.988-4.993
			h19.956c2.751,0,4.986,2.235,4.986,4.993v9.977C145.519,424.619,143.284,426.854,140.533,426.854L140.533,426.854z
			 M140.533,426.854"/>
		<path fill="#D8DEEC" d="M140.533,396.924h-19.956c-2.753,0-4.988-2.234-4.988-4.988v-9.976c0-2.758,2.234-4.99,4.988-4.99h19.956
			c2.751,0,4.986,2.232,4.986,4.99v9.976C145.519,394.689,143.284,396.924,140.533,396.924L140.533,396.924z M140.533,396.924"/>
		<path fill="#D8DEEC" d="M140.533,456.781h-19.956c-2.753,0-4.988-2.23-4.988-4.987v-9.979c0-2.756,2.234-4.986,4.988-4.986h19.956
			c2.751,0,4.986,2.23,4.986,4.986v9.979C145.519,454.551,143.284,456.781,140.533,456.781L140.533,456.781z M140.533,456.781"/>
		<path fill="#D8DEEC" d="M180.44,366.993h-19.957c-2.756,0-4.991-2.232-4.991-4.988v-9.972c0-2.76,2.235-4.99,4.991-4.99h19.957
			c2.751,0,4.988,2.23,4.988,4.99v9.972C185.428,364.761,183.191,366.993,180.44,366.993L180.44,366.993z M180.44,366.993"/>
		<path fill="#D8DEEC" d="M180.44,426.854h-19.957c-2.756,0-4.991-2.234-4.991-4.986v-9.977c0-2.758,2.235-4.993,4.991-4.993h19.957
			c2.751,0,4.988,2.235,4.988,4.993v9.977C185.428,424.619,183.191,426.854,180.44,426.854L180.44,426.854z M180.44,426.854"/>
		<path fill="#D8DEEC" d="M180.44,456.781h-19.957c-2.756,0-4.991-2.23-4.991-4.987v-9.979c0-2.756,2.235-4.986,4.991-4.986h19.957
			c2.751,0,4.988,2.23,4.988,4.986v9.979C185.428,454.551,183.191,456.781,180.44,456.781L180.44,456.781z M180.44,456.781"/>
		<path fill="#D8DEEC" d="M180.44,396.924h-19.957c-2.756,0-4.991-2.234-4.991-4.988v-9.976c0-2.758,2.235-4.99,4.991-4.99h19.957
			c2.751,0,4.988,2.232,4.988,4.99v9.976C185.428,394.689,183.191,396.924,180.44,396.924L180.44,396.924z M180.44,396.924"/>
		<path fill="#D8DEEC" d="M220.345,366.993h-19.952c-2.757,0-4.987-2.232-4.987-4.988v-9.972c0-2.76,2.23-4.99,4.987-4.99h19.952
			c2.753,0,4.988,2.23,4.988,4.99v9.972C225.333,364.761,223.098,366.993,220.345,366.993L220.345,366.993z M220.345,366.993"/>
		<path fill="#D8DEEC" d="M220.345,396.924h-19.952c-2.757,0-4.987-2.234-4.987-4.988v-9.976c0-2.758,2.23-4.99,4.987-4.99h19.952
			c2.753,0,4.988,2.232,4.988,4.99v9.976C225.333,394.689,223.098,396.924,220.345,396.924L220.345,396.924z M220.345,396.924"/>
		<path fill="#D8DEEC" d="M260.249,366.993h-19.951c-2.756,0-4.988-2.232-4.988-4.988v-9.972c0-2.76,2.232-4.99,4.988-4.99h19.951
			c2.756,0,4.989,2.23,4.989,4.99v9.972C265.238,364.761,263.005,366.993,260.249,366.993L260.249,366.993z M260.249,366.993"/>
		<path fill="#D8DEEC" d="M260.249,396.924h-19.951c-2.756,0-4.988-2.234-4.988-4.988v-9.976c0-2.758,2.232-4.99,4.988-4.99h19.951
			c2.756,0,4.989,2.232,4.989,4.99v9.976C265.238,394.689,263.005,396.924,260.249,396.924L260.249,396.924z M260.249,396.924"/>
		<path fill="#D8DEEC" d="M220.345,426.854h-19.952c-2.757,0-4.987-2.234-4.987-4.986v-9.977c0-2.758,2.23-4.993,4.987-4.993h19.952
			c2.753,0,4.988,2.235,4.988,4.993v9.977C225.333,424.619,223.098,426.854,220.345,426.854L220.345,426.854z M220.345,426.854"/>
		<path fill="#D8DEEC" d="M260.249,426.854h-19.951c-2.756,0-4.988-2.234-4.988-4.986v-9.977c0-2.758,2.232-4.993,4.988-4.993
			h19.951c2.756,0,4.989,2.235,4.989,4.993v9.977C265.238,424.619,263.005,426.854,260.249,426.854L260.249,426.854z
			 M260.249,426.854"/>
		<path fill="#D8DEEC" d="M220.345,456.781h-19.952c-2.757,0-4.987-2.23-4.987-4.987v-9.979c0-2.756,2.23-4.986,4.987-4.986h19.952
			c2.753,0,4.988,2.23,4.988,4.986v9.979C225.333,454.551,223.098,456.781,220.345,456.781L220.345,456.781z M220.345,456.781"/>
		<path fill="#D8DEEC" d="M260.249,456.781h-19.951c-2.756,0-4.988-2.23-4.988-4.987v-9.979c0-2.756,2.232-4.986,4.988-4.986h19.951
			c2.756,0,4.989,2.23,4.989,4.986v9.979C265.238,454.551,263.005,456.781,260.249,456.781L260.249,456.781z M260.249,456.781"/>
		<path fill="#D8DEEC" d="M300.157,366.993h-19.951c-2.756,0-4.988-2.232-4.988-4.988v-9.972c0-2.76,2.232-4.99,4.988-4.99h19.951
			c2.756,0,4.987,2.23,4.987,4.99v9.972C305.145,364.761,302.913,366.993,300.157,366.993L300.157,366.993z M300.157,366.993"/>
		<path fill="#D8DEEC" d="M300.157,426.854h-19.951c-2.756,0-4.988-2.234-4.988-4.986v-9.977c0-2.758,2.232-4.993,4.988-4.993
			h19.951c2.756,0,4.987,2.235,4.987,4.993v9.977C305.145,424.619,302.913,426.854,300.157,426.854L300.157,426.854z
			 M300.157,426.854"/>
		<path fill="#D8DEEC" d="M300.157,456.781h-19.951c-2.756,0-4.988-2.23-4.988-4.987v-9.979c0-2.756,2.232-4.986,4.988-4.986h19.951
			c2.756,0,4.987,2.23,4.987,4.986v9.979C305.145,454.551,302.913,456.781,300.157,456.781L300.157,456.781z M300.157,456.781"/>
		<path fill="#D8DEEC" d="M300.157,396.924h-19.951c-2.756,0-4.988-2.234-4.988-4.988v-9.976c0-2.758,2.232-4.99,4.988-4.99h19.951
			c2.756,0,4.987,2.232,4.987,4.99v9.976C305.145,394.689,302.913,396.924,300.157,396.924L300.157,396.924z M300.157,396.924"/>
		<path fill="#D8DEEC" d="M340.062,366.993h-19.949c-2.756,0-4.987-2.232-4.987-4.988v-9.972c0-2.76,2.231-4.99,4.987-4.99h19.949
			c2.757,0,4.99,2.23,4.99,4.99v9.972C345.052,364.761,342.818,366.993,340.062,366.993L340.062,366.993z M340.062,366.993"/>
		<path fill="#D8DEEC" d="M340.062,426.854h-19.949c-2.756,0-4.987-2.234-4.987-4.986v-9.977c0-2.758,2.231-4.993,4.987-4.993
			h19.949c2.757,0,4.99,2.235,4.99,4.993v9.977C345.052,424.619,342.818,426.854,340.062,426.854L340.062,426.854z M340.062,426.854
			"/>
		<path fill="#D8DEEC" d="M340.062,396.924h-19.949c-2.756,0-4.987-2.234-4.987-4.988v-9.976c0-2.758,2.231-4.99,4.987-4.99h19.949
			c2.757,0,4.99,2.232,4.99,4.99v9.976C345.052,394.689,342.818,396.924,340.062,396.924L340.062,396.924z M340.062,396.924"/>
		<path fill="#D8DEEC" d="M340.062,456.781h-19.949c-2.756,0-4.987-2.23-4.987-4.987v-9.979c0-2.756,2.231-4.986,4.987-4.986h19.949
			c2.757,0,4.99,2.23,4.99,4.986v9.979C345.052,454.551,342.818,456.781,340.062,456.781L340.062,456.781z M340.062,456.781"/>
		<path fill="#C7CFE2" d="M140.533,337.064h-19.956c-2.753,0-4.988-2.234-4.988-4.986c0-2.758,2.234-4.99,4.988-4.99h19.956
			c2.751,0,4.986,2.232,4.986,4.99C145.519,334.83,143.284,337.064,140.533,337.064L140.533,337.064z M140.533,337.064"/>
		<path fill="#C7CFE2" d="M180.44,337.064h-19.957c-2.756,0-4.991-2.234-4.991-4.986c0-2.758,2.235-4.99,4.991-4.99h19.957
			c2.751,0,4.988,2.232,4.988,4.99C185.428,334.83,183.191,337.064,180.44,337.064L180.44,337.064z M180.44,337.064"/>
		<path fill="#C7CFE2" d="M220.345,337.064h-19.952c-2.757,0-4.987-2.234-4.987-4.986c0-2.758,2.23-4.99,4.987-4.99h19.952
			c2.753,0,4.988,2.232,4.988,4.99C225.333,334.83,223.098,337.064,220.345,337.064L220.345,337.064z M220.345,337.064"/>
		<path fill="#C7CFE2" d="M260.249,337.064h-19.951c-2.756,0-4.988-2.234-4.988-4.986c0-2.758,2.232-4.99,4.988-4.99h19.951
			c2.756,0,4.989,2.232,4.989,4.99C265.238,334.83,263.005,337.064,260.249,337.064L260.249,337.064z M260.249,337.064"/>
		<path fill="#C7CFE2" d="M300.157,337.064h-19.951c-2.756,0-4.988-2.234-4.988-4.986c0-2.758,2.232-4.99,4.988-4.99h19.951
			c2.756,0,4.987,2.232,4.987,4.99C305.145,334.83,302.913,337.064,300.157,337.064L300.157,337.064z M300.157,337.064"/>
		<path fill="#C7CFE2" d="M340.062,337.064h-19.949c-2.756,0-4.987-2.234-4.987-4.986c0-2.758,2.231-4.99,4.987-4.99h19.949
			c2.757,0,4.99,2.232,4.99,4.99C345.052,334.83,342.818,337.064,340.062,337.064L340.062,337.064z M340.062,337.064"/>
		<path fill="#F16465" d="M205.378,362.005c-1.274,0-2.552-0.485-3.526-1.459l-9.979-9.979c-1.948-1.947-1.948-5.104,0-7.056
			c1.953-1.948,5.109-1.948,7.055,0l6.45,6.452l16.428-16.427c1.946-1.947,5.103-1.947,7.051,0c1.947,1.949,1.947,5.104,0,7.055
			l-19.95,19.954C207.933,361.52,206.655,362.005,205.378,362.005L205.378,362.005z M205.378,362.005"/>
		<path fill="#F16465" d="M285.192,391.936c-1.276,0-2.554-0.488-3.529-1.463l-9.974-9.976c-1.949-1.946-1.949-5.105,0-7.053
			c1.949-1.949,5.104-1.949,7.054,0l6.449,6.451l16.427-16.43c1.947-1.946,5.105-1.946,7.052,0c1.947,1.952,1.947,5.109,0,7.056
			l-19.952,19.951C287.748,391.447,286.469,391.936,285.192,391.936L285.192,391.936z M285.192,391.936"/>
		<path fill="#F16465" d="M165.473,451.794c-1.273,0-2.554-0.488-3.526-1.461l-9.98-9.973c-1.946-1.949-1.946-5.108,0-7.054
			c1.949-1.952,5.107-1.952,7.054,0l6.452,6.447l16.425-16.428c1.95-1.949,5.107-1.949,7.054,0c1.949,1.951,1.949,5.106,0,7.056
			L169,450.333C168.024,451.306,166.751,451.794,165.473,451.794L165.473,451.794z M165.473,451.794"/>
		<path fill="#36BBED" d="M135.542,362.005h-9.976c-2.755,0-4.989-2.233-4.989-4.989c0-2.754,2.234-4.99,4.989-4.99h9.976
			c2.756,0,4.991,2.236,4.991,4.99C140.533,359.771,138.298,362.005,135.542,362.005L135.542,362.005z M135.542,362.005"/>
		<path fill="#36BBED" d="M335.073,421.867h-9.973c-2.756,0-4.988-2.236-4.988-4.992c0-2.752,2.232-4.984,4.988-4.984h9.973
			c2.76,0,4.988,2.232,4.988,4.984C340.062,419.633,337.833,421.867,335.073,421.867L335.073,421.867z M335.073,421.867"/>
		<path fill="#36BBED" d="M215.354,391.936h-9.976c-2.753,0-4.989-2.234-4.989-4.99c0-2.753,2.236-4.985,4.989-4.985h9.976
			c2.755,0,4.991,2.232,4.991,4.985C220.345,389.701,218.11,391.936,215.354,391.936L215.354,391.936z M215.354,391.936"/>
		<path fill="#FFD782" d="M255.264,451.794h-9.975c-2.758,0-4.991-2.23-4.991-4.988c0-2.752,2.232-4.99,4.991-4.99h9.975
			c2.753,0,4.985,2.238,4.985,4.99C260.249,449.563,258.017,451.794,255.264,451.794L255.264,451.794z M255.264,451.794"/>
		<path fill="#FFD782" d="M175.449,391.936h-9.977c-2.756,0-4.989-2.234-4.989-4.99c0-2.753,2.232-4.985,4.989-4.985h9.977
			c2.756,0,4.991,2.232,4.991,4.985C180.44,389.701,178.205,391.936,175.449,391.936L175.449,391.936z M175.449,391.936"/>
	</g>
</g>
</svg>
