<?xml version="1.0" encoding="utf-8"?>
<!-- Generator: Adobe Illustrator 16.0.0, SVG Export Plug-In . SVG Version: 6.00 Build 0)  -->
<!DOCTYPE svg PUBLIC "-//W3C//DTD SVG 1.1//EN" "http://www.w3.org/Graphics/SVG/1.1/DTD/svg11.dtd">
<svg version="1.1" id="Capa_1" xmlns="http://www.w3.org/2000/svg" xmlns:xlink="http://www.w3.org/1999/xlink" x="0px" y="0px"
	 width="500px" height="500px" viewBox="0 0 500 500" enable-background="new 0 0 500 500" xml:space="preserve">
<g>
	<path fill="#54C3BB" d="M445.856,251.984c0,111.191-90.135,201.323-201.322,201.323S43.212,363.176,43.212,251.984
		c0-111.188,90.135-201.32,201.322-201.32S445.856,140.797,445.856,251.984z"/>
	<g>
		<path fill="#F2F0F0" d="M331.22,46.692H154.976v46.969c0,6.389-5.18,11.568-11.567,11.568H96.327v259.874
			c0,6.008,4.931,10.878,11.012,10.878H331.22c6.081,0,11.011-4.87,11.011-10.878V57.572
			C342.23,51.563,337.301,46.692,331.22,46.692z"/>
		<path fill="#4E98D2" d="M288.323,81.001c0,5.158-4.182,9.339-9.339,9.339h-67.606c-5.156,0-9.338-4.181-9.338-9.339l0,0
			c0-5.156,4.182-9.338,9.338-9.338h67.606C284.142,71.663,288.323,75.845,288.323,81.001L288.323,81.001z"/>
		<path fill="#BEC4C8" d="M304.419,104.505c0,2.134-1.73,3.864-3.865,3.864H190.45c-2.135,0-3.865-1.73-3.865-3.864l0,0
			c0-2.134,1.73-3.865,3.865-3.865h110.104C302.688,100.64,304.419,102.371,304.419,104.505L304.419,104.505z"/>
		<path fill="#BEC4C8" d="M304.419,117.382c0,2.135-1.729,3.863-3.863,3.863H190.449c-2.134,0-3.864-1.729-3.864-3.863l0,0
			c0-2.133,1.73-3.861,3.864-3.861h110.106C302.689,113.521,304.419,115.249,304.419,117.382L304.419,117.382z"/>
		<path fill="#BEC4C8" d="M130.138,322.271c0,6.082,4.931,11.012,11.013,11.012h49.879c6.081,0,11.011-4.93,11.011-11.012v-77.763
			c0-6.081-4.93-11.01-11.011-11.01H141.15c-6.082,0-11.013,4.929-11.013,11.01V322.271z"/>
		<path fill="#BEC4C8" d="M316.403,248.707c0,2.131-1.729,3.861-3.862,3.861h-89.399c-2.133,0-3.862-1.73-3.862-3.861l0,0
			c0-2.136,1.729-3.866,3.862-3.866h89.399C314.675,244.841,316.403,246.571,316.403,248.707L316.403,248.707z"/>
		<path fill="#BEC4C8" d="M316.403,271.887c0,2.133-1.729,3.863-3.865,3.863h-89.394c-2.135,0-3.865-1.73-3.865-3.863l0,0
			c0-2.137,1.73-3.867,3.865-3.867h89.394C314.674,268.02,316.403,269.75,316.403,271.887L316.403,271.887z"/>
		<path fill="#BEC4C8" d="M219.279,295.064c0,2.133,1.729,3.861,3.86,3.861h89.403c2.133,0,3.86-1.729,3.86-3.861l0,0
			c0-2.133-1.728-3.861-3.86-3.861H223.14C221.008,291.203,219.279,292.932,219.279,295.064L219.279,295.064z"/>
		<path fill="#BEC4C8" d="M280.35,318.246c0,2.133-1.729,3.861-3.863,3.861h-53.345c-2.133,0-3.862-1.729-3.862-3.861l0,0
			c0-2.133,1.729-3.863,3.862-3.863h53.345C278.62,314.383,280.35,316.113,280.35,318.246L280.35,318.246z"/>
		<path fill="#F26D6E" d="M136.012,201.378c0,0.907-0.735,1.645-1.644,1.645l0,0c-0.908,0-1.645-0.737-1.645-1.645v-25.045
			c0-0.908,0.736-1.645,1.645-1.645l0,0c0.908,0,1.644,0.736,1.644,1.645V201.378z"/>
		<path fill="#F26D6E" d="M153.523,163.419c0-0.887-0.72-1.605-1.606-1.605l0,0c-0.887,0-1.606,0.719-1.606,1.605v37.997
			c0,0.887,0.72,1.606,1.606,1.606l0,0c0.887,0,1.606-0.72,1.606-1.606V163.419z"/>
		<path fill="#F26D6E" d="M167.517,153.151c0-0.908,0.735-1.645,1.644-1.645l0,0c0.907,0,1.645,0.736,1.645,1.645v48.227
			c0,0.907-0.737,1.645-1.645,1.645l0,0c-0.908,0-1.644-0.737-1.644-1.645V153.151z"/>
		<path fill="#F26D6E" d="M188.162,201.378c0,0.907-0.736,1.645-1.644,1.645l0,0c-0.908,0-1.645-0.737-1.645-1.645v-32.77
			c0-0.908,0.736-1.645,1.645-1.645l0,0c0.907,0,1.644,0.736,1.644,1.645V201.378z"/>
		<path fill="#F26D6E" d="M205.52,201.378c0,0.907-0.735,1.645-1.643,1.645l0,0c-0.909,0-1.646-0.737-1.646-1.645v-25.045
			c0-0.908,0.736-1.645,1.646-1.645l0,0c0.907,0,1.643,0.736,1.643,1.645V201.378z"/>
		<path fill="#F26D6E" d="M235.878,201.416c0,0.887,0.719,1.606,1.605,1.606l0,0c0.887,0,1.605-0.72,1.605-1.606v-58.604
			c0-0.887-0.719-1.605-1.605-1.605l0,0c-0.887,0-1.605,0.719-1.605,1.605V201.416z"/>
		<path fill="#F26D6E" d="M253.313,201.416c0,0.887,0.718,1.606,1.604,1.606l0,0c0.888,0,1.605-0.72,1.605-1.606v-37.997
			c0-0.887-0.718-1.605-1.605-1.605l0,0c-0.887,0-1.604,0.719-1.604,1.605V201.416z"/>
		<path fill="#F26D6E" d="M270.44,201.263c0,0.972,0.787,1.76,1.759,1.76l0,0c0.971,0,1.758-0.788,1.758-1.76v-24.815
			c0-0.971-0.787-1.759-1.758-1.759l0,0c-0.972,0-1.759,0.788-1.759,1.759V201.263z"/>
		<path fill="#F26D6E" d="M288.027,201.493c0,0.844,0.685,1.529,1.53,1.529l0,0c0.844,0,1.528-0.686,1.528-1.529v-40.729
			c0-0.846-0.685-1.529-1.528-1.529l0,0c-0.846,0-1.53,0.684-1.53,1.529V201.493z"/>
		<path fill="#F26D6E" d="M305.462,201.416c0,0.887,0.719,1.606,1.605,1.606l0,0c0.887,0,1.606-0.72,1.606-1.606v-25.121
			c0-0.888-0.72-1.606-1.606-1.606l0,0c-0.887,0-1.605,0.719-1.605,1.606V201.416z"/>
		<path fill="#4C657C" d="M143.665,105.229c6.247,0,11.311-5.055,11.311-11.289V46.692l-58.648,58.537H143.665z"/>
	</g>
	<g>
		<path opacity="0.2" fill="#010101" d="M456.788,339.092c0,12.567-10.188,22.756-22.756,22.756H304.115
			c-12.564,0-22.752-10.188-22.752-22.756v-70.859c0-12.568,10.188-22.757,22.752-22.757h129.917
			c12.567,0,22.756,10.188,22.756,22.757V339.092z"/>
		<g>
			<path fill="#FFFFFF" d="M445.643,356.686c0,8.153-6.61,14.765-14.765,14.765H284.979c-8.153,0-14.763-6.611-14.763-14.765
				v-86.845c0-8.151,6.609-14.762,14.763-14.762h145.898c8.154,0,14.765,6.61,14.765,14.762V356.686z"/>
			<rect x="270.217" y="278.884" fill="#313F52" width="175.426" height="29.307"/>
			<g>
				<defs>
					<path id="SVGID_1_" d="M445.643,356.686c0,8.153-6.61,14.765-14.765,14.765H284.979c-8.153,0-14.763-6.611-14.763-14.765
						v-86.845c0-8.151,6.609-14.762,14.763-14.762h145.898c8.154,0,14.765,6.61,14.765,14.762V356.686z"/>
				</defs>
				<clipPath id="SVGID_2_">
					<use xlink:href="#SVGID_1_"  overflow="visible"/>
				</clipPath>
				<path opacity="0.2" clip-path="url(#SVGID_2_)" fill="#010101" d="M390.691,389.476c0,12.566-10.188,22.756-22.756,22.756
					H238.018c-12.563,0-22.751-10.189-22.751-22.756v-70.859c0-12.568,10.188-22.757,22.751-22.757h129.918
					c12.567,0,22.756,10.188,22.756,22.757V389.476z"/>
			</g>
		</g>
		<g>
			<path fill="#F8BE38" d="M380.944,406.325c0,8.154-6.608,14.766-14.764,14.766H220.283c-8.157,0-14.764-6.611-14.764-14.766
				v-86.842c0-8.156,6.606-14.763,14.764-14.763h145.897c8.155,0,14.764,6.606,14.764,14.763V406.325z"/>
			<circle fill="#965CA5" cx="264.063" cy="389.179" r="17.731"/>
			<circle fill="#313F52" cx="238.011" cy="389.179" r="17.728"/>
			<g>
				<path fill="#FFFFFF" d="M238.01,371.45c9.792,0,17.729,7.936,17.729,17.729s-7.938,17.73-17.729,17.73
					c-9.789,0-17.727-7.938-17.727-17.73S228.221,371.45,238.01,371.45 M238.01,369.802c-10.683,0-19.375,8.692-19.375,19.377
					c0,10.686,8.692,19.379,19.375,19.379c10.685,0,19.378-8.693,19.378-19.379C257.388,378.494,248.695,369.802,238.01,369.802
					L238.01,369.802z"/>
			</g>
			
				<line fill="none" stroke="#313F52" stroke-width="4.1206" stroke-linecap="round" stroke-miterlimit="10" x1="229.619" y1="336.853" x2="357.929" y2="336.853"/>
			
				<line fill="none" stroke="#313F52" stroke-width="4.1206" stroke-linecap="round" stroke-miterlimit="10" x1="293.231" y1="362.903" x2="357.929" y2="362.903"/>
		</g>
	</g>
</g>
</svg>
