<?xml version="1.0" encoding="utf-8"?>
<!-- Generator: Adobe Illustrator 16.0.0, SVG Export Plug-In . SVG Version: 6.00 Build 0)  -->
<!DOCTYPE svg PUBLIC "-//W3C//DTD SVG 1.1//EN" "http://www.w3.org/Graphics/SVG/1.1/DTD/svg11.dtd">
<svg version="1.1" id="Capa_1" xmlns="http://www.w3.org/2000/svg" xmlns:xlink="http://www.w3.org/1999/xlink" x="0px" y="0px"
	 width="500px" height="500px" viewBox="0 0 500 500" enable-background="new 0 0 500 500" xml:space="preserve">
<g>
	<circle fill="#99CC66" cx="245.297" cy="252.309" r="201.533"/>
	<g>
		<path fill="#D59F6D" d="M219.823,306.213H72.43c-9.574,0-17.338-7.764-17.338-17.34V89.461c0-9.577,7.764-17.337,17.338-17.337
			h147.393c9.578,0,17.339,7.76,17.339,17.337v199.412C237.162,298.449,229.401,306.213,219.823,306.213L219.823,306.213z
			 M219.823,306.213"/>
		<g>
			<defs>
				<rect id="SVGID_1_" x="55.092" y="54.585" width="182.238" height="252.215"/>
			</defs>
			<clipPath id="SVGID_2_">
				<use xlink:href="#SVGID_1_"  overflow="visible"/>
			</clipPath>
			<path clip-path="url(#SVGID_2_)" fill="#F0F3FA" d="M219.823,293.209H72.43c-2.391,0-4.331-1.943-4.331-4.336V89.461
				c0-2.394,1.94-4.336,4.331-4.336h147.393c2.394,0,4.336,1.943,4.336,4.336v199.412
				C224.159,291.27,222.216,293.209,219.823,293.209L219.823,293.209z M219.823,293.209"/>
			<path clip-path="url(#SVGID_2_)" fill="#C7CFE2" d="M170.34,78.996c-1.624-1.625-3.83-2.538-6.127-2.538h-0.747
				c-2.392,0-4.335-1.942-4.335-4.334v-3.6c0-7.043-5.272-13.357-12.306-13.724c-7.498-0.394-13.702,5.573-13.702,12.987v4.336
				c0,2.392-1.941,4.334-4.338,4.334h-0.742c-2.299,0-4.506,0.91-6.131,2.538l-14.8,14.801h78.03L170.34,78.996z M146.128,63.452
				c2.394,0,4.335,1.939,4.335,4.335c0,2.394-1.941,4.336-4.335,4.336c-2.396,0-4.336-1.943-4.336-4.336
				C141.792,65.392,143.733,63.452,146.128,63.452L146.128,63.452z M146.128,63.452"/>
		</g>
		<path fill="#AFB9D2" d="M146.128,72.124c-2.396,0-4.336-1.943-4.336-4.336v8.667c0,2.398,1.94,4.337,4.336,4.337
			c2.394,0,4.335-1.939,4.335-4.337v-8.667C150.463,70.181,148.522,72.124,146.128,72.124L146.128,72.124z M146.128,72.124"/>
		<path fill="#AFB9D2" d="M180.808,98.132h-69.362c-2.393,0-4.335-1.942-4.335-4.335c0-2.393,1.942-4.335,4.335-4.335h69.362
			c2.393,0,4.335,1.943,4.335,4.335C185.143,96.19,183.201,98.132,180.808,98.132L180.808,98.132z M180.808,98.132"/>
		<path fill="#D8DEEC" d="M107.113,184.834H89.771c-2.394,0-4.334-1.942-4.334-4.337v-17.342c0-2.392,1.94-4.332,4.334-4.332h17.342
			c2.394,0,4.335,1.94,4.335,4.332v17.342C111.446,182.892,109.506,184.834,107.113,184.834L107.113,184.834z M107.113,184.834"/>
		<path fill="#D8DEEC" d="M107.113,145.817H89.771c-2.394,0-4.334-1.942-4.334-4.333v-17.342c0-2.393,1.94-4.334,4.334-4.334h17.342
			c2.394,0,4.335,1.941,4.335,4.334v17.342C111.446,143.875,109.506,145.817,107.113,145.817L107.113,145.817z M107.113,145.817"/>
		<path fill="#D8DEEC" d="M107.113,262.863H89.771c-2.394,0-4.334-1.941-4.334-4.332v-17.345c0-2.394,1.94-4.335,4.334-4.335h17.342
			c2.394,0,4.335,1.941,4.335,4.335v17.345C111.446,260.922,109.506,262.863,107.113,262.863L107.113,262.863z M107.113,262.863"/>
		<path fill="#D8DEEC" d="M107.113,223.849H89.771c-2.394,0-4.334-1.942-4.334-4.335v-17.342c0-2.392,1.94-4.335,4.334-4.335h17.342
			c2.394,0,4.335,1.944,4.335,4.335v17.342C111.446,221.907,109.506,223.849,107.113,223.849L107.113,223.849z M107.113,223.849"/>
		<path fill="#AFB9D2" d="M159.131,167.492h-30.346c-2.391,0-4.334-1.94-4.334-4.337c0-2.392,1.943-4.332,4.334-4.332h30.346
			c2.396,0,4.335,1.94,4.335,4.332C163.466,165.552,161.528,167.492,159.131,167.492L159.131,167.492z M159.131,167.492"/>
		<path fill="#C7CFE2" d="M176.473,184.834h-47.688c-2.391,0-4.334-1.942-4.334-4.337c0-2.394,1.943-4.334,4.334-4.334h47.688
			c2.393,0,4.335,1.941,4.335,4.334C180.808,182.892,178.866,184.834,176.473,184.834L176.473,184.834z M176.473,184.834"/>
		<path fill="#AFB9D2" d="M176.473,128.478h-47.688c-2.391,0-4.334-1.941-4.334-4.336c0-2.393,1.943-4.334,4.334-4.334h47.688
			c2.393,0,4.335,1.941,4.335,4.334C180.808,126.537,178.866,128.478,176.473,128.478L176.473,128.478z M176.473,128.478"/>
		<path fill="#AFB9D2" d="M159.131,245.523h-30.346c-2.391,0-4.334-1.94-4.334-4.336c0-2.394,1.943-4.335,4.334-4.335h30.346
			c2.396,0,4.335,1.941,4.335,4.335C163.466,243.583,161.528,245.523,159.131,245.523L159.131,245.523z M159.131,245.523"/>
		<path fill="#C7CFE2" d="M185.143,262.863h-56.357c-2.391,0-4.334-1.941-4.334-4.332c0-2.4,1.943-4.34,4.334-4.34h56.357
			c2.393,0,4.336,1.939,4.336,4.34C189.479,260.922,187.536,262.863,185.143,262.863L185.143,262.863z M185.143,262.863"/>
		<path fill="#AFB9D2" d="M176.473,206.507h-47.688c-2.391,0-4.334-1.94-4.334-4.335c0-2.392,1.943-4.335,4.334-4.335h47.688
			c2.393,0,4.335,1.944,4.335,4.335C180.808,204.567,178.866,206.507,176.473,206.507L176.473,206.507z M176.473,206.507"/>
		<path fill="#C7CFE2" d="M206.817,145.817h-78.031c-2.391,0-4.334-1.942-4.334-4.333c0-2.396,1.943-4.337,4.334-4.337h78.031
			c2.396,0,4.337,1.942,4.337,4.337C211.154,143.875,209.21,145.817,206.817,145.817L206.817,145.817z M206.817,145.817"/>
		<path fill="#C7CFE2" d="M206.817,223.849h-78.031c-2.391,0-4.334-1.942-4.334-4.335s1.943-4.335,4.334-4.335h78.031
			c2.396,0,4.337,1.942,4.337,4.335S209.21,223.849,206.817,223.849L206.817,223.849z M206.817,223.849"/>
		<path fill="#82889D" d="M94.106,141.483c-1.108,0-2.217-0.425-3.063-1.271l-8.672-8.669c-1.693-1.694-1.693-4.439,0-6.131
			c1.691-1.692,4.438-1.692,6.133,0l5.602,5.607l14.275-14.278c1.693-1.692,4.439-1.692,6.131,0c1.693,1.693,1.693,4.441,0,6.132
			l-17.339,17.339C96.327,141.058,95.217,141.483,94.106,141.483L94.106,141.483z M94.106,141.483"/>
		<path fill="#82889D" d="M94.106,219.513c-1.108,0-2.217-0.424-3.063-1.272l-8.672-8.67c-1.693-1.693-1.693-4.437,0-6.129
			c1.691-1.691,4.438-1.691,6.133,0l5.602,5.606l14.275-14.276c1.693-1.692,4.439-1.692,6.131,0c1.693,1.691,1.693,4.438,0,6.131
			l-17.339,17.337C96.327,219.089,95.217,219.513,94.106,219.513L94.106,219.513z M94.106,219.513"/>
	</g>
	<path fill="#E6B079" d="M314.748,304.707v-31.604H209.713v31.604c0,5.416-3.723,10.123-8.996,11.365l-72.205,16.985
		c-10.545,2.48-17.995,11.889-17.995,22.725v51.533c0,3.223,2.614,5.836,5.835,5.836h291.759c3.223,0,5.834-2.613,5.834-5.836
		v-51.533c0-10.836-7.449-20.244-17.994-22.723l-72.205-16.987C318.475,314.83,314.748,310.123,314.748,304.707L314.748,304.707z
		 M314.748,304.707"/>
	<path fill="#6D6F70" d="M395.951,333.058l-72.205-16.985c-1.094-0.262-2.096-0.697-3.031-1.221l-58.482,34.112l-56.2-35.767
		c-1.457,1.371-3.265,2.389-5.315,2.875l-72.205,16.985c-10.545,2.48-17.995,11.889-17.995,22.725v51.533
		c0,3.223,2.614,5.836,5.835,5.836h291.759c3.223,0,5.834-2.613,5.834-5.836v-51.533
		C413.945,344.946,406.496,335.538,395.951,333.058L395.951,333.058z M395.951,333.058"/>
	<path fill="#D6DCEB" d="M313.607,318.996l-51.375,29.968l-51.871-33.011c3.793,25.276,25.537,44.679,51.871,44.679
		C287.506,360.632,308.592,342.774,313.607,318.996L313.607,318.996z M313.607,318.996"/>
	<path fill="#D29C6E" d="M209.713,304.707c0,3.922-1.965,7.445-5.04,9.57c69.229,34.687,110.075-33.896,110.075-33.896v-7.277
		H209.713V304.707z M209.713,304.707"/>
	<path fill="#EFC087" d="M186.375,135.978l5.083,111.869c0.477,10.453,5.6,20.144,13.971,26.423l24.127,18.09
		c6.059,4.549,13.431,7.004,21.009,7.004h23.338c7.578,0,14.949-2.455,21.006-7.004l24.129-18.09
		c8.369-6.279,13.492-15.971,13.967-26.423l5.086-111.869H186.375z M186.375,135.978"/>
	<path fill="#E6B079" d="M186.375,135.978l5.083,111.869c0.477,10.453,5.6,20.144,13.971,26.423l24.127,18.09
		c6.059,4.549,13.431,7.004,21.004,7.004h11.673c-17.506-5.83-29.178-52.517-29.178-52.517v-63.684c0-4.388,3.347-7.993,7.716-8.418
		c32.685-3.164,69.619-11.371,97.32-30.734v-8.032H186.375z M186.375,135.978"/>
	<path fill="#5A5048" d="M174.706,130.143v5.835l5.832,64.192h11.675l11.668-35.013c0,0,75.856,0,116.704-23.338l11.668,58.351
		h11.676l5.83-64.192v-5.835c0-32.226-26.123-58.349-58.346-58.349h-58.353C200.83,71.793,174.706,97.917,174.706,130.143
		L174.706,130.143z M174.706,130.143"/>
	<path fill="#EFC087" d="M349.395,209.341l-6.594,26.358c-0.779,3.127-3.588,5.317-6.805,5.317c-3.537,0-6.527-2.636-6.961-6.15
		l-3.371-26.956c-0.9-7.21,4.723-13.58,11.986-13.58h0.023C345.531,194.331,351.299,201.716,349.395,209.341L349.395,209.341z
		 M349.395,209.341"/>
	<path fill="#E6B079" d="M175.071,209.341l6.592,26.358c0.781,3.127,3.583,5.317,6.806,5.317c3.536,0,6.52-2.636,6.962-6.15
		l3.368-26.956c0.901-7.21-4.72-13.58-11.987-13.58h-0.021C178.932,194.331,173.165,201.716,175.071,209.341L175.071,209.341z
		 M175.071,209.341"/>
	<path fill="#59595C" d="M153.352,375.28l-37.809-33.967c-3.169,4.012-5.026,9.061-5.026,14.463v51.539
		c0,3.223,2.614,5.836,5.835,5.836h46.686v-16.166C163.034,388.7,159.518,380.813,153.352,375.28L153.352,375.28z M153.352,375.28"
		/>
	<path fill="#3C9DD7" d="M371.107,375.28l37.813-33.967c3.17,4.012,5.025,9.061,5.025,14.463v51.539
		c0,3.223-2.611,5.836-5.834,5.836h-46.684v-16.166C361.428,388.7,364.947,380.813,371.107,375.28L371.107,375.28z M371.107,375.28"
		/>
	<path fill="#59595C" d="M262.232,372.304c32.525,0,59.414-24.34,63.568-55.751l-2.055-0.48c-1.094-0.262-2.096-0.697-3.031-1.221
		l-7.117,4.15c-5.025,23.747-26.141,41.634-51.365,41.634c-26.289,0-48.06-19.436-51.867-44.679l-4.333-2.756
		c-1.457,1.367-3.265,2.387-5.315,2.871l-2.053,0.48C202.818,347.964,229.706,372.304,262.232,372.304L262.232,372.304z
		 M262.232,372.304"/>
	<path fill="#E4E9F6" d="M208.893,300.963l53.339,48.001c0,0-14.939,7.537-33.371,22.736c-3.805,3.133-9.555,1.867-11.598-2.621
		l-25.057-55.128l7.931-11.891C202.11,299.098,206.252,298.584,208.893,300.963L208.893,300.963z M208.893,300.963"/>
	<path fill="#E4E9F6" d="M315.566,300.963l-53.334,48.001c0,0,14.936,7.537,33.369,22.736c3.803,3.133,9.557,1.867,11.594-2.621
		l25.057-55.128l-7.926-11.891C322.352,299.098,318.215,298.584,315.566,300.963L315.566,300.963z M315.566,300.963"/>
	<g>
		<path fill="#FFC71E" d="M369.59,305.063l-74.297,25.767v37.701c0,42.148,18.629,67.135,34.262,80.682
			c16.746,14.525,33.547,19.123,35.4,19.598l4.635,1.186l4.629-1.186c1.865-0.475,18.656-5.072,35.412-19.598
			c15.623-13.547,34.25-38.533,34.25-80.682v-37.701L369.59,305.063z"/>
		<path fill="#FFFFFF" d="M369.59,319.371l-60.779,21.077v28.082c0,37.047,16.096,58.766,29.604,70.469
			c14.645,12.705,29.281,16.559,29.889,16.711l1.285,0.328l1.291-0.33c0.613-0.154,15.207-3.979,29.893-16.711
			c13.502-11.703,29.59-33.424,29.59-70.467v-28.082L369.59,319.371z"/>
		<polygon fill="#FDE187" points="421.354,346.86 369.59,328.908 317.824,346.866 317.824,368.528 365.125,372.647 365.086,373.036 
			367.434,372.845 369.59,373.036 369.59,372.673 421.354,368.528 		"/>
		<path fill="#D28B29" d="M369.59,368.528h-51.766c0,33.646,14.404,53.191,26.496,63.664c10.969,9.518,22.031,13.486,25.27,14.51
			c3.236-1.02,14.27-4.973,25.277-14.518c12.08-10.471,26.486-30.014,26.486-63.656H369.59z"/>
	</g>
</g>
</svg>
