<?xml version="1.0" standalone="no"?>
<!DOCTYPE svg PUBLIC "-//W3C//DTD SVG 1.1//EN" "http://www.w3.org/Graphics/SVG/1.1/DTD/svg11.dtd" >
<svg xmlns="http://www.w3.org/2000/svg">
<metadata>Generated by IcoMoon</metadata>
<defs>
<font id="icomoon" horiz-adv-x="1024">
<font-face units-per-em="1024" ascent="960" descent="-64" />
<missing-glyph horiz-adv-x="1024" />
<glyph unicode="&#x20;" horiz-adv-x="512" d="" />
<glyph unicode="&#xe900;" glyph-name="key" d="M258.032 911.664c97.488 75.6 238.272 57.808 313.856-39.664 75.6-97.44 57.808-238.256-39.664-313.84l-36-27.92 243.024-313.36 58.848 45.632c7.92 6.128 19.36 4.672 25.488-3.216l45.344-58.464 53.264 41.312c7.936 6.144 19.344 4.688 25.504-3.216l68.352-88.176c6.16-7.92 4.736-19.36-3.2-25.504l-126.48-98.096 6.688-8.624c6.192-7.936 4.736-19.36-3.2-25.536l-66.64-51.68c-7.952-6.16-19.36-4.688-25.504 3.248l-396.88 511.696-36.016-27.936c-97.472-75.552-238.256-57.76-313.84 39.68-75.6 97.456-57.792 238.272 39.664 313.856l167.392 129.808zM543.168 849.712c-63.312 81.616-181.2 96.496-262.832 33.232l-167.408-129.84c-81.616-63.296-96.512-181.184-33.216-262.816 63.296-81.616 181.2-96.512 262.816-33.216l167.424 129.808c81.6 63.328 96.512 181.216 33.216 262.832zM976.192 142.816l-46.080 59.408-53.264-41.312c-7.936-6.16-19.408-4.688-25.552 3.248l-45.296 58.416-44.464-34.464 102.544-132.224 112.112 86.928zM853.184 10.592l-385.712 497.36-37.904-29.392 385.712-497.344 37.904 29.376zM322.976 827.968c51.296 39.792 125.456 30.416 165.216-20.88 39.808-51.328 30.4-125.44-20.88-165.248l-167.408-129.808c-51.328-39.824-125.424-30.432-165.216 20.896-39.808 51.296-30.448 125.392 20.88 165.216l167.408 129.824zM459.44 784.8c-27.488 35.44-78.72 41.936-114.176 14.416l-167.408-129.824c-35.488-27.52-41.92-78.736-14.432-114.176 27.52-35.472 78.704-41.968 114.192-14.432l167.392 129.824c35.456 27.488 41.968 78.704 14.432 114.192z" />
<glyph unicode="&#xe901;" glyph-name="keys" d="M855.424 17.84l-18.368 71.936c-1.616 6.528-8.288 10.352-14.784 8.72l-43.488-11.056-12.256 47.664c-1.616 6.592-8.112 10.368-14.608 8.96l-48.064-12.352-65.312 256.032 29.424 7.504c79.584 20.24 127.872 101.52 107.664 181.104-9.664 37.856-33.2 68.496-63.728 88.176 5.072 13.968 8.944 28.56 11.072 43.856 16.864 120.464-67.328 231.872-187.872 248.656-120.72 16.784-231.968-67.376-248.816-187.92-3.568-25.712-2.512-50.992 2.48-75.008-53.184-10.432-98.832-49.44-114.736-104.944-22.736-79.008 23.184-161.648 102.080-184.4l29.216-8.336-118.896-414.656c-1.824-6.384 1.728-13.040 8.208-14.976l54.032-15.424c6.48-1.952 13.136 1.888 14.944 8.272l2.096 6.944 102.496-29.296c6.32-1.824 12.992 1.824 14.768 8.336l20.56 71.312c1.92 6.512-1.76 13.168-8.24 14.96l-43.12 12.416 13.456 47.408c1.936 6.384-1.888 13.008-8.224 14.96l-47.712 13.648 72.88 253.968 29.104-8.336c15.536-4.432 31.2-6.16 46.528-5.6 23.264-5.92 48.224-6.368 73.072-0.064l29.408 7.472 106.608-417.904c1.6-6.544 8.112-10.448 14.608-8.848l54.416 14.032c6.48 1.616 10.528 8.256 8.784 14.624l-1.712 7.072 103.248 26.352c6.464 1.616 10.4 8.128 8.784 14.736zM317.456 764.768c14.368 103.344 109.824 175.504 213.232 161.12 103.408-14.416 175.552-109.872 161.072-213.184-1.648-11.76-4.624-22.96-8.288-33.808-27.6 10.384-58.48 12.816-89.184 5.008l-111.376-28.352-124.64 35.68c-12.544 3.6-25.168 5.28-37.632 5.568-4.992 21.696-6.448 44.576-3.184 67.968zM347.6 482.944l-45.264 12.992c-28.8 8.24-45.392 38.336-37.184 67.104 8.208 28.656 38.32 45.408 66.928 37.184l1.712-0.496c8.384-10.32 17.712-19.888 27.856-28.576-13.312-26.624-18.656-57.216-14.048-88.208zM339.168 86.656l-13.616-47.232c-1.968-6.56 1.744-13.136 8.256-14.992l43.088-12.4-13.728-48.096-90.848 26.016 30.656 107.2 36.192-10.496zM243.792-22.048l-30.72 8.96 115.488 402.848 30.72-8.72-115.488-403.088zM418.432 389.12l-135.568 38.864c-66.16 19.168-104.48 88.352-85.648 154.496 13.536 47.152 52.656 80 97.936 88.208 5.104-15.632 11.776-30.624 20.096-44.624-33.28-0.848-63.712-22.672-73.376-56.272-11.984-41.68 12.112-85.184 53.904-97.168l135.392-38.928c41.584-11.824 85.168 12.272 97.008 53.728 12.064 41.68-12.112 85.248-53.648 97.040l-114.448 32.832c-13.68 16.304-24.432 34.944-32.048 54.992 7.872-0.672 15.776-2.064 23.664-4.336l135.584-38.912c66.128-18.976 104.48-88.144 85.584-154.304-19.2-66.128-88.272-104.416-154.432-85.616zM474.288 520.352c10.688-1.488 21.248-1.856 31.712-1.76 1.408-7.904 1.296-16.176-1.072-24.368-5.2-18.336-19.296-31.696-36.24-36.912-12.832 6.88-22.88 18.784-26.688 34-3.152 12.288-1.616 24.56 3.184 35.328 9.456-2.656 19.104-4.896 29.104-6.288zM470.208 553.12c2.784 1.392 5.776 2.48 8.848 3.392 3.008-1.68 5.856-3.584 8.448-5.744-2.992 0.272-5.952 0.272-8.96 0.688-2.848 0.416-5.536 1.152-8.336 1.664zM440.496 561.088c-13.632 4.976-26.512 11.344-38.416 19.056l45.040-12.912c-2.416-1.84-4.448-4.048-6.624-6.144zM422.256 534.448c-6.256-15.088-8.128-32.112-3.824-49.104 2.48-9.76 6.768-18.576 12.352-26.256l-57.648 16.544c-6.672 28.096-3.344 56.336 7.888 80.816 12.768-8.72 26.608-16.064 41.232-22zM538.24 387.136c21.456 14.992 39.008 35.664 50.288 60.592l62.112 15.856c41.824 10.608 67.232 53.552 56.448 95.408-10.48 41.84-53.408 67.28-95.312 56.496l-44.4-11.28c-12.192 14.688-27.152 27.216-44.56 36.48l77.664 19.776c66.528 16.912 134.704-23.392 151.632-90.096 17.056-66.64-23.392-134.72-89.952-151.664l-123.92-31.568zM598.56 539.776c23.312 11.152 44.528 26.192 62.672 44.576 10.688-7.168 19.008-17.968 22.464-31.36 7.408-28.992-10.064-58.64-39.072-65.952l-46.832-11.92c5.168 21.888 5.2 43.872 0.768 64.656zM588.56 570.384c-1.952 4.32-4.144 8.512-6.496 12.624l35.728 9.104c2.24 0.56 4.448 0.704 6.672 0.992-10.976-8.992-23.184-16.352-35.904-22.72zM687.728-32.336l-103.536 406.096 30.88 8.032 103.584-406.4-30.928-7.728zM737.392 0.128l-27.6 108.16 36.464 9.232 12-47.696c1.664-6.496 8.32-10.448 14.656-8.88l43.664 11.232 12.336-48.704-91.52-23.344z" />
<glyph unicode="&#xe902;" glyph-name="registered" d="M513.104 861.088c55.328 0 100.336-45.008 100.336-100.32 0-55.2-45.008-100.112-100.336-100.112-55.152 0-100.016 44.912-100.016 100.112 0 55.312 44.88 100.32 100.016 100.32zM513.104 888.368c-70.256 0-127.296-57.136-127.296-127.6 0-70.24 57.040-127.392 127.296-127.392 70.528 0 127.616 57.152 127.616 127.392 0 70.464-57.072 127.6-127.616 127.6v0zM910.864 514.752c13.456-4.544 84-34.144 84-154.672 0-96.608-27.424-127.104-43.632-129.888l-22.176-3.808-0.464-22.496-3.568-168.128h-169.824l-3.584 168.128-0.464 22.464-22.144 3.824c-16.224 2.816-43.664 33.344-43.664 129.904 0 120.784 70.72 150.224 84 154.672h141.52zM914.608 542.032h-149.12c-0.192 0-0.496-0.208-0.816-0.208-1.040-0.208-106.608-27.216-106.608-181.744 0-135.28 51.328-154.192 66.304-156.784l4.048-190.8c0.112-2.176 1.984-4.032 4.16-4.032h215.072c2.288 0 4.064 1.856 4.176 4.032l4.048 190.8c15.072 2.592 66.288 21.504 66.288 156.784 0 154.528-105.648 181.536-106.576 181.744-0.352 0-0.672 0.208-0.976 0.208v0zM844.352 766.944c47.648 0 86.4-38.8 86.4-86.48 0-47.584-38.768-86.304-86.4-86.304-47.68 0-86.48 38.704-86.48 86.304 0 47.68 38.8 86.48 86.48 86.48zM844.352 794.224c-62.864 0-113.76-50.928-113.76-113.76 0-62.576 50.912-113.584 113.76-113.584 62.896 0 113.68 51.008 113.68 113.584 0.016 62.848-50.784 113.76-113.68 113.76v0zM591.36 578.144c10.224-3.584 45.424-18.672 70.272-62.864-30.336-40.816-45.696-93.2-45.696-156.032 0-42.352 4.512-77.76 13.712-107.264l-15.808-2.16-0.48-23.296-4.016-191.632h-196.752l-4.192 191.648-0.496 22.88-13.008 2.016c9.264 29.68 13.952 65.808 13.952 107.808 0 63.824-15.92 116.928-47.344 158.144 24.784 42.64 59.088 57.264 69.056 60.752h160.8zM595.504 605.424c-0.416 0-0.736 0-1.12 0h-167.008c-0.208 0-0.512 0-0.944 0-0.928-0.208-63.264-16.624-97.472-91.664 27.232-29.488 52.608-77.392 52.608-154.512 0-59.104-9.568-97.984-22.144-123.728 8.944-6.352 17.040-8.848 21.696-9.568l4.688-213.968c0.096-2.368 2.080-4.352 4.576-4.352h241.056c2.512 0 4.592 1.984 4.688 4.352l4.48 213.968c5.264 0.72 14.224 3.52 24.112 10.88-12.368 26-21.52 64.368-21.52 122.416 0 75.136 24.112 122.832 50.688 152.448-34.080 76.912-97.552 93.52-98.384 93.728v0zM254.688 514.752c13.312-4.48 83.92-33.952 83.92-154.672 0-96.656-27.424-127.12-43.632-129.888l-22.208-3.792-0.48-22.512-3.568-168.128h-169.808l-3.584 168.112-0.48 22.48-22.176 3.824c-16.176 2.784-43.536 33.264-43.536 129.888 0 121.040 70.864 150.304 83.984 154.672h141.568zM258.416 542.032h-148.912c-0.304 0-0.704-0.208-1.024-0.208-1.152-0.208-106.624-27.216-106.624-181.744 0-135.28 51.12-154.192 66.192-156.784l4.064-190.8c0.208-2.176 2.080-4.032 4.256-4.032h215.104c2.192 0 4.032 1.856 4.032 4.032l4.064 190.8c15.184 2.592 66.32 21.504 66.32 156.784 0 154.528-105.488 181.536-106.512 181.744-0.336 0-0.656 0.208-0.96 0.208v0zM185.888 766.944c47.696 0 86.512-38.8 86.512-86.48 0-47.584-38.8-86.304-86.512-86.304-47.68 0-86.48 38.704-86.48 86.304-0.016 47.68 38.784 86.48 86.48 86.48zM185.888 794.224c-62.768 0-113.76-50.928-113.76-113.76 0-62.576 51.008-113.584 113.76-113.584 62.88 0 113.792 51.008 113.792 113.584-0.016 62.848-50.928 113.76-113.792 113.76v0z" />
<glyph unicode="&#xe903;" glyph-name="unregistered" d="M258.16 634.144h152.32c9.36 0 16.928 7.568 16.928 16.928 0 9.376-7.568 16.928-16.928 16.928h-152.32c-9.344 0-16.912-7.536-16.912-16.928 0-9.36 7.568-16.928 16.912-16.928zM258.16 515.68h84.624c9.344 0 16.928 7.568 16.928 16.928s-7.584 16.928-16.928 16.928h-84.624c-9.344 0-16.912-7.552-16.912-16.928 0-9.36 7.568-16.928 16.912-16.928zM478.16 515.68h118.448c9.376 0 16.928 7.568 16.928 16.928s-7.552 16.928-16.928 16.928h-118.448c-9.36 0-16.928-7.552-16.928-16.928 0-9.36 7.568-16.928 16.928-16.928zM422.48 520.592c3.024 3.232 4.912 7.616 4.912 12.016 0 4.432-1.872 8.848-4.912 12.032-6.416 6.24-17.6 6.24-24.032 0-3.056-3.184-4.928-7.6-4.928-12.032 0-4.4 1.856-8.784 4.928-12.016 3.2-3.184 7.424-4.912 12.016-4.912 4.432 0 8.8 1.872 12.016 4.912zM664.32 515.68c4.56 0 8.784 1.872 12 4.912 3.040 3.232 4.912 7.616 4.912 12.016 0 4.432-1.856 8.848-4.912 12.032-6.432 6.24-17.616 6.24-24.032 0-3.072-3.184-4.912-7.6-4.912-12.032 0-4.4 1.824-8.784 4.912-12.016 3.184-3.2 7.408-4.912 12.032-4.912zM308.928 414.176c0-9.376 7.584-16.96 16.944-16.96h118.464c9.344 0 16.912 7.584 16.912 16.96 0 9.36-7.568 16.912-16.912 16.912h-118.464c-9.376-0.016-16.944-7.552-16.944-16.912zM270.176 402.128c3.216 3.232 4.928 7.616 4.928 12.048s-1.696 8.816-4.928 12.016c-6.4 6.24-17.6 6.24-24.016 0-3.216-3.2-4.912-7.456-4.912-12.016 0-4.432 1.84-8.816 4.912-12.048 3.2-3.008 7.632-4.912 12-4.912 4.416 0 8.816 1.888 12.016 4.912zM351.664 327.216c-37.056-19.28-49.552-56.192-54.096-94.448-7.008 5.872-14.016 11.712-20.992 17.6-16.608 13.888-40.672-9.904-23.936-23.92 15.824-13.264 31.648-26.528 47.472-39.792 11.152-9.312 28.368-3.44 28.912 11.952 1.232 36.64 2.96 80.256 39.728 99.408 19.328 10.048 2.24 39.28-17.088 29.2zM464.208 259.744c-23.456-5.44-50.112-35.264-66.624-1.776-9.632 19.52-38.832 2.384-29.216-17.104 8.768-17.728 25.392-30.176 45.152-32.688 10.064-1.264 19.152 0.176 28.56 3.824 6.944 2.688 32.816 22.144 38.384 12.144 10.608-19.040 39.856-1.968 29.2 17.072-9.056 16.288-27.456 22.72-45.456 18.528zM935.312 955.664h-68.208c-21.952 0-40.528-14.192-47.44-33.84h-273.808v16.928c0 9.328-7.584 16.912-16.944 16.912h-152.272c-9.376 0-16.944-7.584-16.944-16.912v-16.944h-321.52v-981.488h829.2v75.888l16.912-29.632v-29.344c0-9.344 7.6-16.928 16.928-16.928 9.36 0 16.944 7.584 16.944 16.928v29.344l67.68 118.432v800.144c-0.016 27.856-22.672 50.512-50.528 50.512zM850.432 803.376h101.552v-33.856h-101.552v33.856zM512 921.824v-50.768h-118.464v50.768h118.464zM359.696 887.968v-50.752h186.176v50.752h84.592v-67.68h-355.36v67.68h84.592zM258.16 786.448h406.16v16.928h84.592v-744.576h-592.272v744.576h84.608v-16.928h16.912zM833.52-25.84h-761.488v913.808h169.216v-50.752h-118.448v-812.304h659.968v812.304h-118.448v50.752h152.256v-782.944l16.96-29.6v-101.264zM862.688 92.64h77.040l-38.528-67.44-38.512 67.44zM951.984 126.448h-101.552v609.232h101.552v-609.232zM850.432 837.216v67.936c0 9.2 7.504 16.672 16.672 16.672h68.192c9.184 0 16.688-7.456 16.688-16.672v-67.936h-101.552z" />
<glyph unicode="&#xe904;" glyph-name="help-administrator" d="M1004.24 772.208c-12.928 13.168-28.848 19.952-47.712 19.952h-253.488v83.744c0 17.184-13.296 31.056-30.48 31.056h-321.152c-17.168 0-31.056-13.872-31.056-31.056v-83.744h-252.944c-18.848 0-34.768-6.784-47.68-19.952-12.608-12.896-19.376-28.864-19.376-47.152v-668.896c0-18.32 6.48-34.528 19.376-47.68 12.624-12.928 28.832-19.44 47.68-19.44h889.104c18.88 0 35.072 6.512 47.712 19.44 12.864 13.152 19.424 29.376 19.424 47.68v668.88c0.016 18.304-6.8 34.272-19.408 47.168zM381.92 845.408h260.144v-53.248h-260.144v53.248zM962.064 56.16c0-3.872-1.664-5.536-5.552-5.536h-889.104c-2.752 0-6.064 3.296-6.064 5.536v450.912h371.632v-14.976c0-17.216 13.296-30.512 30.48-30.512h96.48c17.184 0 31.088 13.296 31.088 30.512v14.976h371.024v-450.912zM962.064 568.080h-900.72v156.976c0 3.888 2.192 5.552 6.064 5.552h889.104c3.872 0 5.552-1.664 5.552-5.552v-156.976z" />
<glyph unicode="&#xe905;" glyph-name="help-first-time" d="M383.968 166.464c-28.832 3.872-58.032 6.656-87.888 6.656-37.456 0-73.936-3.92-109.616-10-2.512-61.056-2.8-150.192 26.496-184.752 41.248-48.752 132.32-48.752 168.944 6.752 36.336 55.136 12.24 134.272 2.064 181.344zM356.208 6.224c-26-39.344-90.672-39.344-119.936-4.816-20.8 24.576-20.592 87.84-18.816 131.216 25.328 4.288 51.216 7.024 77.808 7.024 21.216 0 41.936-1.968 62.4-4.688 7.232-33.392 24.336-89.632-1.456-128.736zM319.712 740.144c-94.352-3.328-189.872-224.24-164.336-337.552 9.216-40.576 33.344-124.336 33.344-173.216 0-5.92-0.48-15.184-1.008-26.336 35.376 5.664 71.408 9.44 108.352 9.44 28.24 0 56-2.288 83.36-5.648-2.72 26.432-3.52 67.392 5.808 109.184 12.656 56.624 39.104 115.52 49.984 145.456 22.16 61.040-21.12 282.016-115.504 278.672zM397.776 475.888c-7.792-23.936-36.16-84.864-45.232-130.064-6.672-33.424-7.6-70.048-5.632-91.136-19.616 2.656-28.096 3.008-48.368 3.008-26.464 0-52.272-3.008-77.616-7.568 0.368 8.944 0.72 16.336 0.72 21.040 0 39.008-21.36 106.976-27.92 139.36-22.336 90.832 56.16 273.936 123.744 276.608 60 0.064 95.968-169.728 80.304-211.248zM837.872 367.456c-35.776 6.080-72.432 9.984-109.92 9.984-30.592 0-60.416-2.864-89.84-6.928-10.96-47.76-29.968-120.672 3.984-172.208 36.608-55.552 127.664-55.552 168.976-6.752 27.872 32.912 28.928 115.328 26.8 175.904zM789.392 211.744c-30.16-35.6-96.672-35.6-123.408 4.992-24.8 37.616-10.928 90.896-2.928 125.776 21.504 2.96 43.28 5.008 65.616 5.008 27.424 0 54.176-2.864 80.336-7.28 1.536-44.208 0.736-104.464-19.616-128.496zM704.32 953.344c-94.416 3.312-137.696-217.648-115.52-278.704 10.896-29.952 37.312-88.864 49.92-145.456 10.464-46.8 8.32-92.784 4.88-118.224 27.68 3.44 55.712 5.776 84.352 5.776 37.104 0 73.2-3.776 108.752-9.52-0.72 15.344-1.408 27.824-1.408 35.328 0 48.864 24.192 132.624 33.344 173.232 25.504 113.28-70.048 334.24-164.32 337.568zM838.56 627.040c-6.096-34.912-31.408-108.112-34.416-149.792-0.448-6.432-1.856-17.68-1.328-30.864-23.808 4.896-45.6 7.36-70.432 7.36-19.184 0-31.504-1.024-50.032-4 2.32 21.872-2.72 60.416-9.712 100.64-8.432 48.656-37.776 104.192-45.088 129.952-23.376 73.76 31.344 233.936 77.28 233.904 63.12-2.88 150.832-189.808 133.728-287.2z" />
<glyph unicode="&#xe906;" glyph-name="help-guard" d="M935.984 788.048c-0.32 13.536-10.032 25.216-23.552 27.072-63.12 8.672-125.408 23.76-186.432 46.112-60.752 22.224-127.968 53.296-200.432 94.208-9.2 5.184-17.888 5.232-27.088 0-72-40.88-138.704-71.872-199.904-94.208-61.088-22.288-123.312-37.488-185.968-46.112-13.568-1.856-23.040-13.536-24.56-27.072-6-257.072 50.32-467.408 168.4-630.928 64.32-89.088 144.816-161.36 242.016-216.464 7.536-5.536 19.312-5.088 28.064 0 96.496 56.016 176.896 127.792 241.072 216.464 118.24 163.424 174.064 373.856 168.384 630.928zM722.48 188.704c-55.776-77.056-125.776-141.328-210.448-192.944-84.72 51.616-155.040 115.648-210.464 192.944-107.44 149.728-159.888 341.28-157.872 574.8 59.12 9.52 117.744 25.536 176.368 47.088 58.624 21.536 122.784 51.12 191.952 88.688 69.152-37.584 132.816-67.168 191.408-88.688 58.624-21.552 117.76-37.584 176.912-47.088 2-235.072-50.736-426.864-157.856-574.8z" />
<glyph unicode="&#xe907;" glyph-name="help-resident" d="M853.488 457.472c-16.576 0-29.376-12.608-29.376-29.088v-397.552h-208.24v162.336c0 15.248-12.816 28.544-28.32 28.544h-150.544c-16.56 0-29.888-13.296-29.888-28.544v-162.336h-207.696v384.352c0 15.328-12.816 28.096-29.376 28.096-15.488 0-28.288-12.768-28.288-28.096v-413.456c0-15.312 12.8-28.064 28.288-28.064h266.976c15.488 0 28.288 12.752 28.288 28.064v162.368h92.928v-162.352c0-15.312 12.832-28.064 29.344-28.064h265.92c15.472 0 28.288 12.752 28.288 28.064v426.64c-0.032 16.48-12.832 29.088-28.304 29.088zM1013.104 434.832l-231.712 230.432v157.136c0 16.352-13.328 28.976-29.904 28.976-15.488 0-28.32-12.608-28.32-28.976v-99.52l-191.104 190.432c-5.856 5.872-12.832 9.008-19.776 9.008-8 0-14.944-3.248-20.832-9.008l-479.952-475.328c-11.504-11.408-12.288-29.68 0-40.192 10.672-12.176 29.056-11.392 40.56 0l460.224 454.72 459.168-459.008c4.784-4.72 11.76-7.424 20.832-7.424 8 0 14.96 2.704 20.832 7.424 10.656 10.608 11.456 29.792-0.016 41.328z" />
<glyph unicode="&#xe908;" glyph-name="informacion" d="M512.016-61.648c280.992 0 509.632 228.608 509.632 509.632s-228.64 509.664-509.632 509.664c-281.008 0-509.664-228.624-509.664-509.664 0-281.008 228.656-509.632 509.664-509.632zM512.016 918.416c259.376 0 470.432-211.024 470.432-470.432 0-259.376-211.040-470.416-470.432-470.416-259.424 0-470.448 211.040-470.448 470.416 0 259.408 211.040 470.432 470.448 470.432zM512.016 134.368c10.8 0 19.584 8.768 19.584 19.6v431.232c0 10.848-8.784 19.6-19.584 19.6-10.832 0-19.616-8.752-19.616-19.6v-431.232c0.016-10.832 8.8-19.6 19.616-19.6zM512.016 663.616c10.8 0 19.584 8.752 19.584 19.6v39.216c0 10.848-8.784 19.6-19.584 19.6-10.832 0-19.616-8.752-19.616-19.6v-39.232c0.016-10.848 8.8-19.584 19.616-19.584z" />
<glyph unicode="&#xe909;" glyph-name="signout" d="M462.576 241.84c-7.136-7.136-7.136-18.672 0-25.808 3.568-3.568 8.24-5.344 12.912-5.344s9.344 1.776 12.912 5.344l219.040 219.040c1.68 1.664 3.024 3.696 3.952 5.952 1.84 4.464 1.84 9.472 0 13.952-0.928 2.24-2.272 4.288-3.952 5.968l-219.040 219.024c-7.136 7.136-18.672 7.136-25.808 0s-7.136-18.672 0-25.808l187.904-187.888h-558.368c-10.096 0-18.256-8.16-18.256-18.256 0-10.112 8.16-18.272 18.256-18.272h558.352l-187.904-187.904zM931.872 959.136h-675.456c-10.096 0-18.256-8.16-18.256-18.272v-383.344c0-10.080 8.16-18.24 18.256-18.24s18.272 8.16 18.272 18.24v365.12h638.928v-949.264h-638.928v365.088c0 10.096-8.176 18.256-18.272 18.256s-18.256-8.16-18.256-18.256v-383.344c0-10.112 8.16-18.272 18.256-18.272h675.456c10.096 0 18.256 8.16 18.256 18.272v985.76c0 10.112-8.16 18.256-18.256 18.256z" />
<glyph unicode="&#xe90a;" glyph-name="accessin" d="M158.816 327.44h-37.824l-6.464 43.248h-46l-6.48-43.248h-34.416l38.144 238.544h54.88l38.16-238.544zM73.296 403.072h36.096l-18.032 120.624-18.064-120.624zM284.592 416.368v-31.68c0-38.144-19.104-59.984-55.872-59.984-36.832 0-55.888 21.84-55.888 59.984v124.048c0 38.176 19.056 59.984 55.888 59.984 36.768 0 55.872-21.808 55.872-59.984v-23.184h-35.44v25.552c0 17.024-7.488 23.536-19.424 23.536s-19.44-6.512-19.44-23.536v-128.816c0-17.008 7.504-23.152 19.44-23.152s19.424 6.16 19.424 23.152v34.080h35.44zM416.144 416.368v-31.68c0-38.144-19.088-59.984-55.888-59.984-36.784 0-55.904 21.84-55.904 59.984v124.048c0 38.176 19.104 59.984 55.904 59.984 36.784 0 55.888-21.808 55.888-59.984v-23.184h-35.456v25.552c0 17.024-7.472 23.536-19.408 23.536s-19.424-6.512-19.424-23.536v-128.816c0-17.008 7.488-23.152 19.424-23.152s19.408 6.16 19.408 23.152v34.080h35.456zM476.464 465.424h51.456v-34.080h-51.456v-69.872h64.752v-34.048h-102.224v238.56h102.224v-34.128h-64.752v-66.432zM614.848 568.704c36.432 0 55.2-21.808 55.2-59.984v-7.504h-35.472v9.888c0 17.024-6.784 23.536-18.736 23.536-11.904 0-18.72-6.512-18.72-23.536 0-49.056 73.264-58.272 73.264-126.416 0-38.144-19.088-59.984-55.888-59.984-36.784 0-55.872 21.84-55.872 59.984v14.64h35.408v-17.040c0-17.008 7.52-23.152 19.44-23.152 11.936 0 19.424 6.16 19.424 23.152 0 49.072-73.264 58.256-73.264 126.448 0 38.16 18.736 59.968 55.216 59.968zM742.304 568.704c36.448 0 55.216-21.808 55.216-59.984v-7.504h-35.456v9.888c0 17.024-6.816 23.536-18.736 23.536-11.904 0-18.752-6.512-18.752-23.536 0-49.056 73.248-58.272 73.248-126.416 0-38.144-19.072-59.984-55.872-59.984s-55.904 21.84-55.904 59.984v14.64h35.456v-17.040c0-17.008 7.504-23.152 19.408-23.152 11.936 0 19.44 6.16 19.44 23.152 0 49.072-73.264 58.256-73.264 126.448 0.016 38.16 18.752 59.968 55.216 59.968zM819.328 565.984h37.504v-238.544h-37.504v238.544zM917.456 500.208v-172.768h-33.728v238.544h47.024l38.528-142.8v142.8h33.392v-238.544h-38.496l-46.72 172.768z" />
<glyph unicode="&#xe90b;" glyph-name="people-bubble" d="M890.144 957.008h-743.2c-80.496 0-107.904-54.8-107.904-113.008l-7.088-626.736c0-66.848 51.6-115.648 130.384-115.648h128.448v-162.64l174.672 162.64h402.432c87.312 0 124.144 41.984 124.144 131.040v607.92c0.016 53.936-31.68 116.432-101.888 116.432zM671.056 714.848c30.928 0 56-25.072 56-55.984 0-30.96-25.072-56-56-56-30.912 0-56 25.040-56 56 0 30.896 25.104 55.984 56 55.984zM509.904 762.288c34.864 0 63.104-28.272 63.104-63.104s-28.256-63.104-63.104-63.104c-34.848 0-63.104 28.272-63.104 63.104s28.256 63.104 63.104 63.104zM352.912 714.848c30.928 0 56-25.072 56-55.984 0-30.96-25.056-56-56-56-30.912 0-55.968 25.040-55.968 56 0 30.896 25.056 55.984 55.968 55.984zM409.088 428.096v-91.2h-112.32v91.2c-23.744 12.544-27.952 32.32-29.664 40.288-2.688 17.040-3.136 47.28 1.552 69.248 10.224 39.376 41.872 54.96 41.872 54.96h84.784c0 0 31.664-15.584 41.84-54.96 4.72-21.968 4.272-52.208 1.568-69.248-1.712-7.984-5.92-27.744-29.632-40.288zM573.216 439.072l-0.032-102.768h-126.592v102.768c-4.128 2.176-6.992 4.032-10.128 6.512 6.096 8.928 7.328 18.128 8.304 22.784 2.688 17.040 3.136 47.28-1.552 69.248-4.784 18.4-13.584 32.896-22.32 41.728 14.544 33.040 41.216 45.104 41.216 45.104h95.568c0 0 28.624-14.080 42.88-48.976-8.032-8.784-16.224-21.136-20.544-37.872-4.72-21.968-4.272-52.208-1.584-69.216 0.928-4.352 2.624-12.224 7.776-20.448-3.616-3.152-7.904-6.144-12.992-8.864zM756.832 468.368c-1.664-7.968-5.872-27.728-29.632-40.288v-91.2h-112.32v91.2c-23.712 12.544-27.936 32.32-29.648 40.288-2.72 17.040-3.12 47.28 1.6 69.248 10.176 39.376 41.824 54.96 41.824 54.96h84.752c0 0 31.68-15.584 41.872-54.96 4.752-21.952 4.304-52.192 1.552-69.248z" />
<glyph unicode="&#xe90c;" glyph-name="app-operator" d="M363.392 819.136c-1.92-2-3.008-4.048-3.008-6.16 0-17.488 67.6-31.664 150.992-31.664 83.424 0 151.008 14.176 151.008 31.664 0 2.112-1.040 4.176-3.008 6.16h-295.984zM511.984 769.088c-76.72 0-139.936 12.016-149.568 27.552-1.648-8.944-2.624-18.128-2.624-27.552 0-83.712 67.872-151.584 151.6-151.584s151.616 67.856 151.616 151.584c0 8.944-0.944 17.648-2.4 26.16-12.464-14.864-74.176-26.16-148.624-26.16zM683.664 914.032c-23.472 11.136-86.72 36.592-86.72 36.592s-16.72 7.952-47.712 7.952c-31.040 0-88.32 0-88.32 0s-18.304 3.984-122.512-44.544c0 0-19.888-7.968-10.352-31.024 11.136-27.040 18.304-40.56 18.304-40.56s8.752-15.12 31.824-14.336c23.072 0.8 278.448-0.016 278.448-0.016s11.936-0.768 24.672 24.688c12.72 25.456 14.32 31.824 14.32 31.824s10.16 18.912-11.952 29.424zM539.664 909.728c-0.384-4-0.528-1.168 2.496-11.984 3.44-8.656-3.424-20.128-11.248-26.848-8-7.76-19.232-12.88-19.232-12.88s-11.216 5.12-19.216 12.88c-7.84 6.72-14.704 18.208-11.28 26.848 3.040 10.816 2.912 7.984 2.496 11.984 0 4.192-5.488 8.752-5.488 8.752l10.496 10.24c1.504-1.744 4.496-6 10.24-6.256 5.744-0.24 12.736 6.256 12.736 6.256s6.992-6.496 12.736-6.256c5.728 0.256 8.72 4.496 10.24 6.256l10.48-10.24c0.048 0-5.456-4.56-5.456-8.752zM727.68 449.76c-26.16 100.816-107.184 140.672-107.184 140.672h-217.008c0 0-81.040-39.856-107.168-140.672-12.064-56.32-10.944-133.632-4.032-177.296 4.368-20.416 15.184-71.008 75.92-103.152v-233.568h287.536v233.552c60.784 32.144 71.568 82.768 75.968 103.168 6.896 43.68 8 120.992-4.032 177.296zM512.768 237.856l-60.016 75.648 45.616 207.456c-11.856 0-21.456 9.248-21.456 20.64s9.616 20.64 21.456 20.64h22.336c11.856 0 21.44-9.232 21.44-20.64 0-11.392-9.584-20.64-21.44-20.64v0l50.576-209.136-58.512-73.968z" />
<glyph unicode="&#xe90d;" glyph-name="client-employee" d="M796.672 804.64h-181.744c-66.944 0-121.168-54.256-121.168-121.168v-91.984c27.536-21.68 67.536-66.992 84.816-133.648 4.256-19.808 5.376-42.128 6.816-64.72h84.288v-85.792h-82.944c-0.96-13.664-2.256-26.336-3.92-36.96-4.64-21.616-16.080-85.072-80.304-119.072v-46.832c17.888-52.16 61.44-57.168 112.4-57.168h37.856v184.336h103.52v-184.336h40.368c66.928 0 121.184 6.72 121.184 121.136v515.040c0.016 66.912-54.24 121.168-121.168 121.168zM669.648 466.352h-85.84v85.856h85.84v-85.856zM669.648 624.56h-85.84v85.824h85.84v-85.824zM831.2 307.328h-85.84v85.792h85.84v-85.792zM831.2 466.352h-85.84v85.856h85.84v-85.856zM831.2 624.56h-85.84v85.824h85.84v-85.824zM546.992 450.72c-26.16 100.896-107.216 140.768-107.216 140.768h-217.216c0 0-81.088-39.872-107.248-140.768-12.080-56.352-10.944-133.696-4.032-177.392 4.384-20.432 15.2-71.088 75.968-103.264v-233.696h287.792v233.696c60.752 32.176 71.6 82.864 76 103.264 6.912 43.68 8 121.024-4.048 177.392zM486.416 828.64h-12.56c-4.736 57.184-43.008 104.704-95.072 123.136v-38.128c0-3.712-4.288-6.752-9.52-6.752s-9.52 3.024-9.52 6.752v43.488c-6.32 1.28-12.784 2.064-19.36 2.496v-70.528c0-3.728-4.24-6.768-9.488-6.768s-9.504 3.008-9.504 6.768v70.528c-6.624-0.448-13.12-1.248-19.44-2.56v-43.44c0-3.712-4.256-6.752-9.504-6.752s-9.504 3.024-9.504 6.752v38.048c-51.904-18.496-90.064-65.968-94.816-123.024h-12.256c-6.64 0-12-5.36-12-12 0-6.624 5.36-12 12-12h310.512c6.624 0 12 5.376 12 12s-5.344 11.984-11.968 11.984zM190.56 789.216c-1.808-9.008-2.864-18.336-2.864-27.904 0-79.216 64.224-143.44 143.456-143.44s143.456 64.224 143.456 143.44c0 9.584-1.008 18.896-2.864 27.904h-281.184z" />
<glyph unicode="&#xe90e;" glyph-name="family" d="M526.464 808.256c0-83.718-67.866-151.584-151.584-151.584s-151.584 67.866-151.584 151.584c0 83.718 67.866 151.584 151.584 151.584s151.584-67.866 151.584-151.584zM602.944 480.048c-27.648 106.592-113.328 148.752-113.328 148.752h-229.488c0 0-85.68-42.16-113.312-148.752-12.768-59.536-11.568-141.296-4.272-187.472 4.624-21.616 16.064-75.088 80.272-109.088v-246.976h304.080v246.976c64.256 34 75.664 87.52 80.336 109.088 7.296 46.176 8.432 127.936-4.288 187.472zM838.64 423.728c0-46.816-37.952-84.768-84.768-84.768s-84.768 37.952-84.768 84.768c0 46.816 37.952 84.768 84.768 84.768s84.768-37.952 84.768-84.768zM881.472 240.16c-15.44 59.664-63.392 83.216-63.392 83.216h-128.368c0 0-47.936-23.632-63.376-83.216-7.12-33.248-6.448-79.008-2.368-104.864 2.592-12.064 9.008-41.968 44.912-61.008v-138.128h170.048v138.16c35.904 19.008 42.336 48.976 44.912 61.008 4.080 25.792 4.736 71.584-2.368 104.832z" />
<glyph unicode="&#xe90f;" glyph-name="family-with-access" d="M319.232 742.208c0-68.404-55.452-123.856-123.856-123.856s-123.856 55.452-123.856 123.856c0 68.404 55.452 123.856 123.856 123.856s123.856-55.452 123.856-123.856zM381.744 474.048c-22.576 87.104-92.608 121.536-92.608 121.536h-187.52c0 0-70.016-34.432-92.608-121.536-10.416-48.64-9.44-115.456-3.472-153.168 3.776-17.664 13.12-61.376 65.6-89.12v-201.792h248.464v201.76c52.496 27.76 61.824 71.536 65.616 89.152 5.968 37.712 6.944 104.528-3.472 153.168zM952.496 742.208c0-68.404-55.452-123.856-123.856-123.856s-123.856 55.452-123.856 123.856c0 68.404 55.452 123.856 123.856 123.856s123.856-55.452 123.856-123.856zM638.784 320.88c3.792-17.632 13.104-61.376 65.632-89.12v-201.792h248.512v201.76c52.432 27.76 61.776 71.488 65.568 89.152 5.968 37.696 6.976 104.512-3.472 153.152-22.56 87.104-92.592 121.536-92.592 121.536h-187.488c0 0-70.032-34.432-92.624-121.536-10.464-48.624-9.488-115.44-3.536-153.152zM672.528 622.944c-22.288 1.744-27.536-21.072-27.536-21.936s-1.632-30.384-1.632-30.384l-105.6 99.728c0 0-10.224 13.952-25.92 13.6-7.552-0.176-16.336-3.616-25.888-13.6l-126.528-120.128c11.072-13.696 20-32.352 28.144-52.976 63.456 60.72 124.272 118.992 124.272 118.992l124.944-118.512c16.832 42.304 44.336 71.968 63.52 86.624v10.464c0.032-0.016-0.272 26.352-27.776 28.128zM625.232 320.88c-5.984 37.712-6.928 104.528 3.472 153.168 1.136 4.416 2.48 8.608 3.872 12.784l-120.576 113.008-120.56-113.008c1.376-4.176 2.72-8.336 3.872-12.784 10.384-48.64 9.44-115.456 3.472-153.168-3.792-17.664-13.12-65.68-65.632-93.488v-87.728l122.672-0.752v155.488h112.368v-155.504l122.688 0.752v87.728c-52.544 27.792-61.872 75.84-65.648 93.504z" />
<glyph unicode="&#xe910;" glyph-name="family-with-access2" d="M317.712 740.448c0-67.988-55.116-123.104-123.104-123.104s-123.104 55.116-123.104 123.104c0 67.988 55.116 123.104 123.104 123.104s123.104-55.116 123.104-123.104zM379.84 473.888c-22.432 86.576-92.048 120.816-92.048 120.816h-186.384c0 0-69.6-34.24-92.048-120.816-10.352-48.336-9.376-114.768-3.456-152.272 3.744-17.584 13.040-61.008 65.2-88.592v-200.592h246.992v200.592c52.16 27.616 61.44 71.040 65.2 88.592 5.936 37.504 6.912 103.952-3.456 152.272zM387.712 863.568c-35.632 0-66.768-14.32-89.248-38.512 22.752-22.128 30.88-52.24 30.88-84.608s-10.608-62.48-31.024-84.448c22.48-24.192 53.76-38.656 89.392-38.656 68 0 123.12 55.104 123.12 123.104s-55.136 123.12-123.12 123.12zM572.976 473.888c-22.416 86.576-92.048 120.816-92.048 120.816h-171.072c0 0 63.344-43.824 82.912-120.816 10.352-48.336 9.392-114.768 3.456-152.272-3.76-17.552-13.040-65.84-65.2-93.472v-195.712h180.192v200.592c52.176 27.616 61.456 71.040 65.2 88.592 5.92 37.504 6.896 103.952-3.44 152.272zM702.432 598.944l-119.84-112.352c1.36-4.128 2.704-8.304 3.84-12.704 10.336-48.336 9.376-114.768 3.456-152.272-3.744-17.568-13.040-66.368-65.232-94v-86.16l121.936-0.736v154.56h108.768v-154.56h147.392c35.328 4.544 35.328 63.904 35.328 63.904v165.12l-235.648 229.2zM1008.768 404.144c-13.072 12.24-119.104 111.664-119.104 111.664v78.112c0 0-0.32 26.224-27.664 27.968-22.112 1.744-27.36-20.944-27.36-21.808s-1.616-30.192-1.616-30.192l-104.976 99.136c0 0-22.256 30.544-51.504 0l-126.224-119.856c11.008-13.616 20.336-31.728 28.4-52.208 63.056 60.352 123.568 118.272 123.568 118.272l267.136-253.408c0 0 23.392-23.76 44.336-4.992 17.696 19.168 4.608 37.744-4.992 47.312z" />
<glyph unicode="&#xe911;" glyph-name="people" d="M299.504 673.872c0-63.738-51.67-115.408-115.408-115.408s-115.408 51.67-115.408 115.408c0 63.738 51.67 115.408 115.408 115.408s115.408-51.67 115.408-115.408zM357.76 424c-21.024 81.168-86.288 113.248-86.288 113.248h-174.736c0 0-65.248-32.080-86.304-113.248-9.696-45.312-8.784-107.6-3.232-142.736 3.504-16.432 12.224-57.184 61.12-83.040v-188.032h231.536v188.032c48.896 25.856 57.6 66.608 61.104 83.040 5.584 35.136 6.512 97.424-3.2 142.736zM955.296 673.872c0-63.738-51.67-115.408-115.408-115.408s-115.408 51.67-115.408 115.408c0 63.738 51.67 115.408 115.408 115.408s115.408-51.67 115.408-115.408zM1013.568 424c-21.008 81.168-86.304 113.248-86.304 113.248h-174.736c0 0-65.248-32.080-86.288-113.248-9.712-45.312-8.832-107.6-3.248-142.736 3.52-16.432 12.24-57.184 61.104-83.040l0.016-188.032h231.52v188.032c48.896 25.856 57.616 66.608 61.088 83.040 5.616 35.136 6.544 97.424-3.152 142.736zM637.76 756.992c0-71.841-58.239-130.080-130.080-130.080s-130.080 58.239-130.080 130.080c0 71.841 58.239 130.080 130.080 130.080s130.080-58.239 130.080-130.080zM652.256 424c8.912 34.448 25.792 59.984 42.304 78.048-29.328 71.888-88.352 100.96-88.352 100.96h-197.008c0 0-56.24-27.664-86.224-95.792 17.968-18.224 37.408-45.312 47.248-83.216 9.696-45.312 8.784-107.6 3.216-142.736-2.048-9.616-5.936-27.488-18.512-45.888 6.464-5.088 13.76-10.032 22.256-14.496v-211.936h260.976l0.032 211.936c10.48 5.568 19.344 11.728 26.848 18.256-10.656 17.008-14.16 33.216-16.064 42.16-5.552 35.104-6.464 97.392 3.28 142.704z" />
<glyph unicode="&#xe912;" glyph-name="person" d="M663.584 808.080c0-83.718-67.866-151.584-151.584-151.584s-151.584 67.866-151.584 151.584c0 83.718 67.866 151.584 151.584 151.584s151.584-67.866 151.584-151.584zM740.096 479.872c-27.632 106.608-113.344 148.752-113.344 148.752h-229.504c0 0-85.696-42.144-113.328-148.752-12.752-59.536-11.552-141.296-4.256-187.472 4.624-21.6 16.064-75.088 80.272-109.088v-246.976h304.112v246.976c64.24 34 75.664 87.52 80.304 109.088 7.312 46.176 8.48 127.936-4.256 187.472z" />
<glyph unicode="&#xe913;" glyph-name="person-admin" d="M663.584 808.096c0-83.718-67.866-151.584-151.584-151.584s-151.584 67.866-151.584 151.584c0 83.718 67.866 151.584 151.584 151.584s151.584-67.866 151.584-151.584zM740.096 479.888c-27.664 106.608-113.36 148.752-113.36 148.752h-229.488c0 0-85.696-42.144-113.328-148.752-12.752-59.552-11.568-141.296-4.256-187.488 4.624-21.616 16.064-75.072 80.272-109.072v-246.992h304.096v246.976c64.256 34 75.664 87.536 80.32 109.088 7.28 46.192 8.464 127.936-4.256 187.488zM512.816 255.824l-63.472 79.984 48.224 219.36c-12.528 0-22.688 9.776-22.688 21.824s10.16 21.824 22.688 21.824h23.616c12.528 0 22.672-9.776 22.672-21.824s-10.144-21.824-22.672-21.824v0l53.488-221.152-61.856-78.192z" />
<glyph unicode="&#xe914;" glyph-name="person-employee" d="M727.84 450.704c-26.16 100.88-107.232 140.768-107.232 140.768h-217.2c0 0-81.104-39.888-107.248-140.768-12.080-56.352-10.944-133.696-4.032-177.392 4.384-20.432 15.2-71.088 75.968-103.264v-233.696h287.792v233.696c60.768 32.176 71.6 82.864 76 103.264 6.912 43.68 8 121.024-4.048 177.392zM667.264 828.624h-12.56c-4.736 57.184-43.008 104.704-95.072 123.136v-38.128c0-3.712-4.288-6.752-9.52-6.752s-9.52 3.040-9.52 6.752v43.488c-6.32 1.28-12.784 2.064-19.36 2.496v-70.528c0-3.728-4.24-6.768-9.488-6.768s-9.504 3.024-9.504 6.768v70.512c-6.608-0.448-13.104-1.248-19.424-2.56v-43.424c0-3.712-4.256-6.752-9.504-6.752s-9.504 3.040-9.504 6.752v38.032c-51.904-18.496-90.048-65.968-94.8-123.024h-12.256c-6.64 0-12-5.36-12-12 0-6.624 5.36-12 12-12h310.512c6.624 0 12 5.376 12 12s-5.376 12-12 12zM371.408 789.2c-1.824-9.024-2.864-18.336-2.864-27.904 0-79.216 64.224-143.44 143.456-143.44s143.456 64.224 143.456 143.44c0 9.568-1.008 18.88-2.864 27.904h-281.184z" />
<glyph unicode="&#xe915;" glyph-name="person-owner-group" d="M391.664 808.080c0-83.718-67.866-151.584-151.584-151.584s-151.584 67.866-151.584 151.584c0 83.718 67.866 151.584 151.584 151.584s151.584-67.866 151.584-151.584zM468.176 479.872c-27.632 106.608-113.344 148.752-113.344 148.752h-229.504c0 0-85.696-42.144-113.328-148.752-12.752-59.536-11.552-141.296-4.256-187.472 4.624-21.616 16.064-75.088 80.272-109.088v-246.976h304.112v246.976c64.24 34 75.664 87.52 80.304 109.088 7.296 46.176 8.48 127.936-4.256 187.472zM627.6 633.84l-147.568-138.32c1.68-5.088 3.328-10.224 4.736-15.648 12.72-59.536 11.568-141.296 4.256-187.472-4.624-21.6-16.064-80.4-80.32-114.4v-107.392l150.144-0.928v190.32h133.92v-190.32h181.456c43.504 5.616 43.504 78.688 43.504 78.688v203.296l-290.128 282.176zM1004.752 393.984c-16.112 15.072-146.672 137.504-146.672 137.504v96.176c0 0-0.352 32.288-34.016 34.448-27.232 2.144-33.68-25.792-33.68-26.864 0-1.056-1.968-37.168-1.968-37.168l-129.248 122.064c0 0-27.376 37.6-63.408 0l-156.928-149.008c13.552-16.768 26.544-37.632 36.512-62.848 77.664 74.32 152.112 145.616 152.112 145.616l328.96-312c0 0 28.752-29.264 54.56-6.128 21.712 23.584 5.616 46.448-6.224 58.208z" />
<glyph unicode="&#xe916;" glyph-name="authorizations" d="M618.496 259.696h70.992v355.008h-354.976v-355.008h283.984zM441.008 295.2c0 39.152 31.856 71.008 71.008 71.008s70.992-31.84 70.992-71.008h-142zM458.784 454.96c0 29.36 23.84 53.248 53.216 53.248 29.36 0 53.216-23.888 53.216-53.248 0-29.344-23.856-53.216-53.216-53.216-29.376-0.016-53.216 23.872-53.216 53.216zM370.016 295.2v284h283.984v-284h-35.504c0 38.464-20.56 72.16-51.248 90.912 20.256 16.256 33.488 40.912 33.488 68.848 0 48.944-39.808 88.736-88.736 88.736s-88.752-39.792-88.752-88.736c0-27.936 13.232-52.592 33.488-68.848-30.656-18.752-51.232-52.432-51.232-90.912h-35.488zM852.464 91.424v748.128c0 28.16-22.912 51.056-51.072 51.056h-204.288l30.656 40.88c5.648 7.504 4.096 18.16-3.424 23.808-7.52 5.632-18.192 4.112-23.824-3.408l-45.984-61.28h-83.088l-29.36 58.688c-4.224 8.4-14.416 11.776-22.848 7.632-8.384-4.224-11.824-14.448-7.616-22.864l21.712-43.456h-210.752c-28.144 0-51.040-22.912-51.040-51.056v-748.128c0-0.032-0.016-0.064-0.016-0.096s0.016-0.064 0.016-0.096v-102.88c0-28.16 22.912-51.056 51.040-51.056h578.816c28.176 0 51.072 22.912 51.072 51.056v102.88c0 0.032 0.016 0.064 0.016 0.096s-0.016 0.064-0.016 0.096zM512 808.208c21.2 0 38.384-17.2 38.384-38.4s-17.184-38.4-38.384-38.4c-21.216 0-38.4 17.2-38.4 38.4s17.184 38.4 38.4 38.4zM808.752-1.952c0-9.408-7.648-17.024-17.024-17.024h-559.456c-9.392 0-17.008 7.632-17.008 17.024v76.288h593.504v-76.288zM808.752 108.384h-593.504v28.592h593.504v-28.592zM808.752 171.040h-593.504v658.576c0 9.392 7.632 17.024 17.008 17.024h223.056l12.080-24.128c-14.304-12.496-23.52-30.624-23.52-51.056 0-37.568 30.544-68.096 68.112-68.096 37.552 0 68.080 30.528 68.080 68.096 0 37.552-30.528 68.096-68.080 68.096-4.88 0-9.632-0.56-14.256-1.568l-4.080 8.656h298.048c9.392 0 17.024-7.648 17.024-17.024v-658.576z" />
<glyph unicode="&#xe917;" glyph-name="batch" d="M613.248 439.728v-84.816c0-10.944 8.912-19.84 19.872-19.84h94c10.992 0 19.872 8.912 19.872 19.84v84.816c0 10.944-8.896 19.84-19.872 19.84h-94c-10.96 0-19.872-8.896-19.872-19.84zM712.896 425.472l0.048-56.288h-65.632l-0.048 56.288h65.632zM276.432 439.728v-84.816c0-10.944 8.912-19.84 19.872-19.84h94c10.992 0 19.872 8.912 19.872 19.84v84.816c0 10.944-8.896 19.84-19.872 19.84h-93.984c-10.976 0-19.888-8.896-19.888-19.84zM376.080 425.472l0.048-56.288h-65.632l-0.048 56.288h65.632zM1012.368 435.888l-231.376 211.712v127.904c0 15.024-5.136 27.904-21.664 27.904-15.472 0-21.936-10.928-21.936-25.952v-91.392l-205.376 189.44c-5.824 5.408-12.784 8.304-19.728 8.304-7.984 0-14.912-3.008-20.784-8.304l-479.264-436.736c-11.504-10.496-12.272-27.28 0-36.896 10.672-11.216 29.008-10.496 40.512 0l89.6 81.44v-445.296c0-14.128 12.752-25.84 28.224-25.84h252.48c15.456 0 28.24 11.712 28.24 25.84v149.088h120.208v-149.088c0-14.128 12.8-25.84 29.312-25.84h252.16c15.472 0 28.256 11.712 28.256 25.84v442.336l89.584-82.416c4.768-4.336 11.712-6.88 20.8-6.88 7.952 0 14.912 2.528 20.8 6.88 10.624 9.744 11.408 27.376-0.048 37.952zM837.264 55.904h-221.536v148.256c0 14.032-12.8 26.224-28.256 26.224h-150.336c-16.528 0-29.856-12.192-29.856-26.224v-148.256h-221.296v479.76l326.304 304.4 324.992-306.784v-477.376z" />
<glyph unicode="&#xe918;" glyph-name="communications" d="M996.752 938.688c-13.808 13.52-30.88 20.8-50.496 20.8h-659.44c-40.384 0-73.040-30.912-73.040-71.28v-139.008h44v141.712c0.064 24.256 22.64 24.576 26.816 24.576h666c4.176 0 22.496-0.336 22.496-23.328l1.072-480c0-21.504-22.656-26.496-26.832-26.496h-90.8v-44h89.712c19.632 0 36.688 7.248 50.496 20.816 14.128 13.776 21.408 30.88 21.408 51.056v474.672c0.016 20.208-7.264 36.672-21.392 50.48zM737.152 679.68h-659.456c-20.192 0-37.44-7.104-51.056-21.392-13.696-14.256-20.8-31.488-20.8-51.68v-474.064c0-19.632 6.992-36.944 20.8-51.056 13.504-13.808 30.88-20.816 51.056-20.816h298.224l223.376-124.16v124.16h137.808c20.24 0 37.6 7.008 51.104 20.816 13.808 14.128 20.8 31.44 20.8 51.056v474.064c0 20.224-7.136 37.44-20.8 51.68-13.664 14.288-30.864 21.392-51.056 21.392zM765.008 129.056c-1.568-9.472-1.76-26.656-24.416-24.816h-141.296l-43.504 0.192v-92.688l-147.152 85.856-14.896 7.744h-319.168c-7.136 0.976-24.736 1.744-24.736 21.904v482.16c0.992 19.248 21.072 26.272 25.232 26.272h670.496c4.16 0 22-6.272 19.44-23.264v-483.36zM610.592 329.744h-237.040c-18.368 0-33.232-2.688-33.232-21.088 0-18.432 14.864-22.56 33.232-22.56h237.040c18.4 0 32.672 3.568 32.672 22 0 18.4-14.256 21.648-32.672 21.648zM610.592 475.312h-406.32c-18.432 0-32.672-2.928-32.672-21.328 0-18.432 14.24-22.672 32.672-22.672h406.336c18.4 0 32.672 4.224 32.672 22.672-0.016 18.4-14.272 21.328-32.688 21.328z" />
<glyph unicode="&#xe919;" glyph-name="config" d="M971.12 561.728h-95.744c-15.424 0-28.096 8.464-34 22.688-5.888 14.224-2.896 29.184 7.952 40.096l67.728 67.664c9.952 9.952 15.424 23.2 15.424 37.264 0 14.096-5.472 27.328-15.424 37.296l-86.304 86.32c-19.904 19.904-54.64 19.952-74.544 0l-67.696-67.696c-10.912-10.864-25.904-13.904-40.096-7.968-14.24 5.888-22.704 18.592-22.704 33.968v95.776c0 29.040-23.648 52.688-52.688 52.688h-122.096c-29.040 0-52.704-23.648-52.704-52.688v-95.776c0-15.376-8.464-28.080-22.688-33.968-14.16-5.936-29.184-2.896-40.064 7.968l-67.68 67.696c-19.952 19.952-54.656 19.904-74.56 0l-86.288-86.32c-9.968-9.936-15.472-23.2-15.472-37.296 0-14.064 5.504-27.28 15.472-37.264l67.68-67.664c10.88-10.912 13.84-25.872 7.968-40.096s-18.592-22.688-33.984-22.688h-95.744c-29.024 0-52.688-23.632-52.688-52.704v-122.048c0-29.088 23.664-52.752 52.688-52.752h95.76c15.392 0 28.112-8.464 33.984-22.656 5.904-14.224 2.912-29.184-7.968-40.096l-67.68-67.68c-9.968-9.968-15.472-23.184-15.472-37.28 0-14.064 5.504-27.312 15.472-37.28l86.288-86.32c19.904-19.904 54.608-19.936 74.56 0l67.68 67.712c10.88 10.88 25.84 13.872 40.064 7.968s22.688-18.592 22.688-33.968v-95.744c0-29.088 23.664-52.72 52.704-52.72h122.096c29.040 0 52.688 23.632 52.688 52.72v95.76c0 15.376 8.464 28.064 22.704 33.968 14.224 5.904 29.184 2.912 40.064-7.968l67.68-67.712c19.952-19.936 54.64-19.904 74.544 0l86.304 86.32c10 9.968 15.472 23.216 15.472 37.28 0 14.096-5.472 27.312-15.472 37.28l-67.68 67.68c-10.88 10.912-13.84 25.872-7.952 40.096 5.856 14.192 18.576 22.656 34 22.656h95.744c29.056 0 52.704 23.664 52.704 52.72v122.080c-0.016 29.072-23.648 52.688-52.72 52.688zM985.92 386.96c0-8.16-6.64-14.784-14.8-14.784h-95.744c-30.816 0-57.248-17.664-69.040-46.128-11.776-28.4-5.584-59.6 16.208-81.376l67.696-67.68c5.776-5.776 5.776-15.152 0-20.944l-86.304-86.32c-5.744-5.744-15.136-5.776-20.944 0l-67.664 67.712c-21.808 21.776-52.992 27.936-81.44 16.192-28.432-11.776-46.096-38.224-46.096-69.008v-95.744c0-8.16-6.624-14.816-14.784-14.816h-122.096c-8.112 0-14.752 6.656-14.752 14.816v95.76c0 30.784-17.68 57.216-46.144 69.008-9.536 3.968-19.344 5.904-29.040 5.904-19.232 0-37.856-7.6-52.336-22.064l-67.68-67.728c-5.776-5.808-15.168-5.776-20.928 0l-86.304 86.32c-5.776 5.776-5.776 15.184 0 20.944l67.728 67.664c21.728 21.776 27.952 52.976 16.176 81.44-11.76 28.4-38.24 46.064-69.008 46.064h-95.76c-8.144 0-14.784 6.624-14.784 14.784v122.080c0 8.16 6.64 14.8 14.784 14.8h95.76c30.784 0 57.248 17.68 69.008 46.096 11.776 28.432 5.6 59.664-16.176 81.392l-67.728 67.696c-5.776 5.776-5.776 15.168 0 20.944l86.304 86.32c5.792 5.76 15.168 5.76 20.928 0l67.696-67.68c21.728-21.744 52.96-28 81.392-16.208 28.448 11.76 46.144 38.208 46.144 68.992v95.728c0 8.16 6.64 14.784 14.752 14.784h122.096c8.16 0 14.784-6.624 14.784-14.784v-95.776c0-30.784 17.664-57.216 46.096-69.008 28.48-11.808 59.664-5.584 81.44 16.192l67.664 67.68c5.824 5.792 15.184 5.792 20.944 0l86.304-86.32c5.776-5.76 5.776-15.152 0-20.912l-67.696-67.696c-21.728-21.76-27.984-52.992-16.208-81.392 11.792-28.448 38.24-46.128 69.040-46.128h95.744c8.16 0.032 14.8-6.608 14.8-14.768v-122.048zM512 618.608c-94.112 0-170.624-76.528-170.624-170.592 0-94.096 76.512-170.624 170.624-170.624 94.064 0 170.576 76.528 170.576 170.624 0 94.064-76.512 170.592-170.576 170.592zM512 315.296c-73.168 0-132.704 59.536-132.704 132.72 0 73.12 59.536 132.672 132.704 132.672s132.672-59.552 132.672-132.672c0-73.184-59.504-132.72-132.672-132.72z" />
<glyph unicode="&#xe91a;" glyph-name="department" d="M92.96-20.032c-12.112 0-21.904-9.808-21.904-21.936 0-12.064 9.792-21.872 21.904-21.872h838.896c12.096 0 21.872 9.808 21.872 21.872 0 12.128-9.776 21.936-21.872 21.936h-1.248v771.36c0 12.080-9.776 21.872-21.872 21.872h-125.472c-12.864 27.84-41.136 46.656-72.848 46.656s-59.968-18.816-72.848-46.656h-103.616v142.896h1.472c12.096 0 21.856 9.776 21.856 21.856s-9.76 21.872-21.856 21.872h-443.248c-12.096 0-21.904-9.792-21.904-21.872s9.808-21.856 21.904-21.856h1.456v-329.568l-0.672-606.56zM653.28 729.424c10.384 0 19.36 7.344 21.424 17.552 3.456 16.864 18.432 29.12 35.712 29.12 17.264 0 32.304-12.272 35.696-29.12 2.096-10.208 11.040-17.552 21.456-17.552h119.28v-749.456h-352.88v749.456h119.312zM137.36-20.032v936.128h352.88v-936.128h-352.88zM561.904 195.44v-84.816c0-10.944 8.912-19.84 19.872-19.84h94c10.992 0 19.872 8.912 19.872 19.84v84.816c0 10.944-8.896 19.84-19.872 19.84h-94c-10.96 0-19.872-8.912-19.872-19.84zM661.552 181.152l0.048-56.288h-65.632l-0.048 56.288h65.632zM725.216 195.44v-84.816c0-10.944 8.912-19.84 19.872-19.84h94c10.992 0 19.872 8.912 19.872 19.84v84.816c0 10.944-8.896 19.84-19.872 19.84h-94c-10.96 0-19.872-8.912-19.872-19.84zM824.864 181.152l0.048-56.288h-65.632l-0.048 56.288h65.632zM725.216 404.368v-84.816c0-10.944 8.912-19.84 19.872-19.84h94c10.992 0 19.872 8.912 19.872 19.84v84.816c0 10.944-8.896 19.84-19.872 19.84h-94c-10.96 0.016-19.872-8.896-19.872-19.84zM824.864 390.096l0.048-56.288h-65.632l-0.048 56.288h65.632zM326.432 608.016v-84.816c0-10.944 8.912-19.84 19.872-19.84h94c10.992 0 19.872 8.912 19.872 19.84v84.816c0 10.944-8.896 19.84-19.872 19.84h-94c-10.96 0.016-19.872-8.896-19.872-19.84zM426.080 593.76l0.048-56.288h-65.632l-0.048 56.288h65.632zM326.432 814.32v-84.816c0-10.944 8.912-19.84 19.872-19.84h94c10.992 0 19.872 8.912 19.872 19.84v84.816c0 10.944-8.896 19.84-19.872 19.84h-94c-10.96 0-19.872-8.896-19.872-19.84zM426.080 800.032l0.048-56.288h-65.632l-0.048 56.288h65.632zM163.152 814.32v-84.816c0-10.944 8.912-19.84 19.872-19.84h94c10.992 0 19.872 8.912 19.872 19.84v84.816c0 10.944-8.896 19.84-19.872 19.84h-94c-10.96 0-19.872-8.896-19.872-19.84zM262.8 800.032l0.048-56.288h-65.632l-0.048 56.288h65.632zM163.152 608.016v-84.816c0-10.944 8.912-19.84 19.872-19.84h94c10.992 0 19.872 8.912 19.872 19.84v84.816c0 10.944-8.896 19.84-19.872 19.84h-94c-10.96 0.016-19.872-8.896-19.872-19.84zM262.8 593.76l0.048-56.288h-65.632l-0.048 56.288h65.632zM163.152 401.712v-84.816c0-10.944 8.912-19.84 19.872-19.84h94c10.992 0 19.872 8.912 19.872 19.84v84.816c0 10.944-8.896 19.84-19.872 19.84h-94c-10.96 0.016-19.872-8.896-19.872-19.84zM262.8 387.44l0.048-56.288h-65.632l-0.048 56.288h65.632zM326.432 401.712v-84.816c0-10.944 8.912-19.84 19.872-19.84h94c10.992 0 19.872 8.912 19.872 19.84v84.816c0 10.944-8.896 19.84-19.872 19.84h-94c-10.96 0.016-19.872-8.896-19.872-19.84zM426.080 387.44l0.048-56.288h-65.632l-0.048 56.288h65.632zM326.432 195.44v-84.816c0-10.944 8.912-19.84 19.872-19.84h94c10.992 0 19.872 8.912 19.872 19.84v84.816c0 10.944-8.896 19.84-19.872 19.84h-94c-10.96 0-19.872-8.912-19.872-19.84zM426.080 181.152l0.048-56.288h-65.632l-0.048 56.288h65.632zM163.152 195.44v-84.816c0-10.944 8.912-19.84 19.872-19.84h94c10.992 0 19.872 8.912 19.872 19.84v84.816c0 10.944-8.896 19.84-19.872 19.84h-94c-10.96 0-19.872-8.912-19.872-19.84zM262.8 181.152l0.048-56.288h-65.632l-0.048 56.288h65.632zM725.216 613.344v-84.816c0-10.944 8.912-19.84 19.872-19.84h94c10.992 0 19.872 8.912 19.872 19.84v84.816c0 10.944-8.896 19.84-19.872 19.84h-94c-10.96 0.016-19.872-8.896-19.872-19.84zM824.864 599.072l0.048-56.288h-65.632l-0.048 56.288h65.632zM561.904 613.344v-84.816c0-10.944 8.912-19.84 19.872-19.84h94c10.992 0 19.872 8.912 19.872 19.84v84.816c0 10.944-8.896 19.84-19.872 19.84h-94c-10.96 0.016-19.872-8.896-19.872-19.84zM661.552 599.072l0.048-56.288h-65.632l-0.048 56.288h65.632zM561.904 404.368v-84.816c0-10.944 8.912-19.84 19.872-19.84h94c10.992 0 19.872 8.912 19.872 19.84v84.816c0 10.944-8.896 19.84-19.872 19.84h-94c-10.96 0.016-19.872-8.896-19.872-19.84zM661.552 390.096l0.048-56.288h-65.632l-0.048 56.288h65.632z" />
<glyph unicode="&#xe91b;" glyph-name="events" d="M169.696 425.456v-84.816c0-10.944 8.912-19.84 19.872-19.84h94c10.992 0 19.872 8.912 19.872 19.84v84.816c0 10.944-8.896 19.84-19.872 19.84h-94c-10.96 0-19.872-8.912-19.872-19.84zM269.344 411.184l0.048-56.288h-65.632l-0.048 56.288h65.632zM377.008 425.456v-84.816c0-10.944 8.912-19.84 19.872-19.84h94c10.992 0 19.872 8.912 19.872 19.84v84.816c0 10.944-8.896 19.84-19.872 19.84h-94c-10.96 0-19.872-8.912-19.872-19.84zM476.656 411.184l0.048-56.288h-65.632l-0.048 56.288h65.632zM169.696 218.144v-84.816c0-10.944 8.912-19.84 19.872-19.84h94c10.992 0 19.872 8.912 19.872 19.84v84.816c0 10.944-8.896 19.84-19.872 19.84h-94c-10.96 0-19.872-8.912-19.872-19.84zM269.344 203.872l0.048-56.288h-65.632l-0.048 56.288h65.632zM571.552 3.152h43.744v-43.728h-43.744v43.728zM1001.504 837.664c-14.448 14.752-31.68 22.368-52.864 22.368h-222.048v42.304c0 19.296-14.928 34.24-34.224 34.24-19.264 0-34.208-14.944-34.208-34.24v-42.304h-291.696v42.304c0 19.296-15.568 34.24-34.832 34.24-19.296 0-34.24-14.944-34.24-34.24v-42.304h-221.424c-21.104 0-39.024-7.632-53.472-22.368-14.16-14.464-21.792-32.336-21.792-52.864v-750.128c0-20.528 7.296-38.72 21.792-53.488 14.144-14.448 32.352-21.76 53.472-21.76h872.672c21.168 0 38.72 7.312 52.864 21.76 14.464 14.768 21.792 32.96 21.792 53.488v750.128c0 20.528-7.632 38.4-21.792 52.864zM979.552 43.984c0-34-20.88-40.832-32.88-40.832h-874.672c-20 0-27.552 15.824-27.552 25.824v536.272h935.088v-521.264zM979.552 608.784h-935.104v187.856c-0.112 7.344 9.552 19.68 21.552 19.856h231.408v-14.944c0-19.28 14.944-34.816 34.24-34.816 19.264 0 34.832 15.536 34.832 34.816v14.944h291.696v-14.944c0-19.28 14.944-34.816 34.208-34.816 19.296 0 34.224 15.536 34.224 34.816v14.944h222.4c4.352 0 27.504 0.24 30.544-25.52v-182.192z" />
<glyph unicode="&#xe91c;" glyph-name="person-add" d="M485.648 808.080c0-83.718-67.866-151.584-151.584-151.584s-151.584 67.866-151.584 151.584c0 83.718 67.866 151.584 151.584 151.584s151.584-67.866 151.584-151.584zM534.432 314.672h-185.648c-48.592 7.504-67.056 51.76-67.056 83.664s20.224 76.16 68.384 83.664h184.336l-0.016 63.28c-35.904 58.784-85.6 83.344-85.6 83.344h-229.504c0 0-85.696-42.144-113.328-148.752-12.752-59.536-11.552-141.296-4.256-187.472 4.624-21.616 16.064-75.088 80.272-109.088v-246.976h304.112v246.976c21.456 11.36 36.928 24.912 48.304 38.688v92.672zM869.904 456.288h-194.896v194.928c0 31.936-25.888 57.792-57.792 57.792s-57.792-25.872-57.792-57.792v-194.928h-194.88c-31.936 0-57.808-25.888-57.808-57.792s25.872-57.792 57.808-57.792h194.88v-194.912c0-31.904 25.888-57.792 57.792-57.792s57.792 25.888 57.792 57.792v194.912h194.912c31.92 0 57.792 25.888 57.792 57.792s-25.888 57.792-57.808 57.792z" />
<glyph unicode="&#xe91d;" glyph-name="expenses" d="M928.336 365.312l-69.76 69.792c-9.52 9.504-19.936 14.032-32.176 14.032-10.4 0-19.856-4.16-28.096-12.256l-55.696-54.816-222.448-222.432c-4.080-4.976-6.176-9.088-6.8-11.312l-37.152-131.84c-0.784-2.752-1.344-5.44-1.344-8.128 0-11.344 10.864-23.12 24.912-23.12 3.184 0 5.456 0.368 7.264 0.912l130.944 38.064c4.416 1.28 8.144 2.72 10.864 5.44l278.592 278.16c7.248 7.248 11.328 16.32 12.704 27.184-0.016 12.192-4.096 22.64-11.808 30.32zM618.448 69.504l-82.416-23.12 23.984 82.464 200.24 200.224 59.344-58.432-201.152-201.136zM854.96 305.968l-59.344 58.464 31.712 31.68 58.432-58.432-30.8-31.712zM585.84 474.944h-389.6c-14.064 0-24.928-10.864-24.928-24.912s10.864-25.344 24.928-25.344h389.6c14.064 0 24.928 11.312 24.928 25.344s-10.864 24.912-24.928 24.912zM610.768 337.68c0 14.032-10.864 24.912-24.928 24.912h-389.6c-14.064 0-24.928-10.88-24.928-24.912 0-14.064 10.864-25.376 24.928-25.376h389.6c14.064 0.016 24.928 11.328 24.928 25.376zM377.008 251.152h-180.752c-14.064 0-24.928-10.88-24.928-24.944 0-14.032 10.864-24.912 24.928-24.912h180.752c14.048 0 25.36 10.88 25.36 24.912-0.016 14.080-11.328 24.944-25.36 24.944zM377.008 138.816h-180.752c-14.064 0-24.928-10.912-24.928-24.944s10.864-24.912 24.928-24.912h180.752c14.048 0 25.36 10.88 25.36 24.912s-11.328 24.944-25.36 24.944zM134.176 39.6v816.816c0 3.152 1.36 4.528 4.528 4.528h185.744v-269.12c0-30.8 23.552-55.712 54.352-55.712h269.088v-152.224h50.32v202.512h-0.928l-323.904 324.384h-234.672c-15.408 0-28.544-5.44-38.96-15.856-10.448-10.4-15.872-23.568-15.872-38.496v-816.816c0-30.816 24.032-54.368 54.832-54.368h295.824v49.84h-295.824c-3.168-0.032-4.528 1.312-4.528 4.512zM374.272 838.736l252.368-252.336h-247.824c-3.184 0-4.544 1.792-4.544 5.408v246.928z" />
<glyph unicode="&#xe91e;" glyph-name="guard" d="M936 788.064c-0.32 13.536-10.032 25.216-23.568 27.072-63.136 8.656-125.376 23.744-186.432 46.112-60.752 22.24-127.952 53.296-200.448 94.208-9.216 5.216-17.84 5.216-27.040 0-71.984-40.88-138.752-71.872-199.984-94.208-61.056-22.288-123.28-37.472-185.904-46.112-13.552-1.872-23.072-13.536-24.592-27.072-6.016-257.088 50.32-467.424 168.384-630.96 64.336-89.056 144.848-161.376 242.080-216.464 7.488-5.536 19.296-5.12 28.048 0 96.464 56.032 176.896 127.808 241.072 216.464 118.224 163.44 174.080 373.856 168.384 630.96zM732.944 183.296c-55.776-77.040-136.24-148.384-220.944-200-84.704 51.648-171.6 126.72-227.056 204-107.44 149.728-157.968 351.152-156 584.656 59.152 9.568 135.376 29.776 194 51.344 58.624 21.536 119.888 50.4 189.056 88 69.152-37.6 136.32-68.464 194.944-90 58.624-21.568 124.608-43.2 183.744-52.752 2.016-235.040-50.672-437.296-157.744-585.248z" />
<glyph unicode="&#xe91f;" glyph-name="help" d="M512 925.888c-263.536 0-477.904-214.368-477.904-477.888s214.368-477.888 477.904-477.888 477.904 214.368 477.904 477.888-214.368 477.888-477.904 477.888zM512 6.864c-243.248 0-441.152 197.904-441.152 441.136 0 243.216 197.904 441.12 441.152 441.12 243.216 0 441.12-197.904 441.12-441.12 0-243.232-197.904-441.136-441.12-441.136zM512 245.824c-10.16 0-18.4-8.224-18.4-18.4v-36.752c0-10.16 8.256-18.368 18.4-18.368s18.368 8.224 18.368 18.368v36.752c0 10.192-8.208 18.4-18.368 18.4zM514.064 760.432c-0.688 0-1.408 0.032-2.096 0.032-38.912 0-75.504-14.976-103.216-42.336-28.256-27.84-43.808-65.024-43.808-104.688 0-10.192 8.224-18.384 18.368-18.384 10.192 0 18.368 8.208 18.368 18.384 0 29.712 11.68 57.632 32.88 78.512s49.408 32.448 79.008 31.744c58.128-0.816 107.872-50.608 108.688-108.704 0.528-38.304-18.336-73.568-50.56-94.336-48.88-31.536-78.096-87.248-78.096-149.072v-52.256c0-10.16 8.256-18.368 18.4-18.368s18.368 8.224 18.368 18.368v52.256c0 48.56 23.472 93.824 61.248 118.208 42.912 27.68 68.128 74.688 67.408 125.744-1.12 78.784-66.112 143.808-144.96 144.896z" />
<glyph unicode="&#xe920;" glyph-name="registration_codes" d="M693.808 768.064c0 105.856-75.888 191.936-181.808 191.936-105.856 0-191.984-86.080-191.984-191.92v-32.032c0-17.728 3.232-32.016 20.928-32.016 17.664 0 21.872 14.288 21.872 32.016v32.032c0 92.72 66.192 148.192 149.184 148.192 88 0 138.064-77.648 138.064-148.192v-224.080h-490.064v-608h704v608h-170.192v224.064zM820.272-20.288h-616.528v521.296h616.512v-521.296zM512 416.032c-70.608 0-128-57.376-128-128 0-69.248 51.088-111.408 106.16-125.712v-68.56c0-17.664 4.192-29.712 21.84-29.712 17.664 0 21.872 12.064 21.872 29.712v68.56c55.056 14.32 103.472 48.464 106.16 125.712 0 70.624-57.488 128-128.032 128zM566.176 222.128c-14.784-12.224-33.504-19.872-54.176-19.872-47.184 0-85.44 38.256-85.44 85.44s38.256 85.44 85.44 85.44 85.44-38.256 85.44-85.44c0-8.496-1.632-16.528-3.92-24.256-4.192-17.504-13.104-31.728-27.344-41.312z" />
<glyph unicode="&#xe921;" glyph-name="social-fb" d="M512.064 959.392c-282.032 0-511.456-229.408-511.456-511.328 0-282.016 229.424-511.456 511.456-511.456 281.904 0 511.344 229.44 511.344 511.456 0 281.92-229.44 511.328-511.344 511.328zM639.088 430h-83.12c0-132.88 0-296.544 0-296.544h-123.2c0 0 0 162.048 0 296.544h-58.672v104.736h58.672v67.92c0 48.512 23.008 124.224 124.304 124.224l91.44-0.24v-101.728c0 0-55.6 0-66.288 0-10.88 0-26.272-5.392-26.272-28.464v-61.712h94.032l-10.896-104.736z" />
<glyph unicode="&#xe922;" glyph-name="social-instagram" d="M512.048 958.848c-282.144 0-510.88-228.704-510.88-510.768 0-282.16 228.72-510.96 510.88-510.96 282.144 0 510.752 228.8 510.752 510.96 0.016 282.064-228.608 510.768-510.752 510.768zM814.608 510.080v-247.712c0-64.464-52.64-116.928-116.96-116.928h-371.296c-64.464 0-116.864 52.432-116.864 116.928v371.312c0 64.464 52.384 116.912 116.864 116.912h371.312c64.32 0 116.96-52.432 116.96-116.912v-123.6zM671.12 493.008c4.112-14.256 6.336-29.44 6.336-44.928 0-91.296-74.192-165.52-165.408-165.52-91.28 0-165.584 74.24-165.584 165.52 0 15.472 2.304 30.672 6.368 44.928 1.664 5.872 3.568 11.584 5.856 17.072h-90.336v-247.68c0-32 26-58.032 58-58.032h371.296c31.968 0 57.968 26.032 57.968 58.032v247.68h-90.336c2.32-5.408 4.208-11.2 5.84-17.072zM744.464 578.368v102.448h-13.312l-89.168-0.24 0.304-102.624zM512.048 341.536c58.608 0 106.544 47.824 106.544 106.56 0 18.8-5.024 36.448-13.776 51.936-1.936 3.44-4.064 6.896-6.4 10.064-19.376 26.752-50.88 44.464-86.336 44.464-35.6 0-66.944-17.696-86.368-44.464-2.304-3.184-4.384-6.64-6.32-10.064-8.768-15.488-13.808-33.12-13.808-51.936-0.032-58.736 47.696-106.56 106.464-106.56z" />
<glyph unicode="&#xe923;" glyph-name="social-lk" d="M511.984 955.728c-280.352 0-507.648-227.36-507.648-507.664 0-280.4 227.296-507.776 507.648-507.776 280.336 0 507.696 227.376 507.696 507.776-0.016 280.288-227.36 507.664-507.696 507.664zM364.592 491.312v-318.256h-140.272v400.96h140.272v-82.704zM294.432 634.144c-38.736 0-70.128 31.408-70.128 70.224 0 38.752 31.376 70.096 70.128 70.096s70.144-31.344 70.144-70.096c0.016-38.816-31.392-70.224-70.144-70.224zM825.6 393.424v-220.352h-120.304v195.408c0 46.512-5.040 106.416-69.008 106.416-64.752 0-74.72-50.72-74.72-103.072v-198.768h-116.816v400.96h111.808v-54.080h1.68c16.656 31.664 57.312 54.080 117.936 54.080 102.192 0 136.816-47.552 146.368-123.104 2.192-17.696 3.088-36.896 3.088-57.488h-0.032z" />
<glyph unicode="&#xe924;" glyph-name="social-youtube" d="M512 955.664c-280.432 0-507.664-227.376-507.664-507.664 0-280.368 227.216-507.664 507.664-507.664s507.664 227.296 507.664 507.664c0 280.288-227.232 507.664-507.664 507.664zM812.704 461.68v-38.752c0-50.784-6.048-101.552-6.048-101.552s-5.856-43.248-23.856-62.208c-22.912-24.96-48.496-25.136-60.288-26.576-84.16-6.32-210.512-6.576-210.512-6.576s-156.336 1.504-204.432 6.336c-13.392 2.656-43.456 1.888-66.368 26.848-17.984 18.96-23.904 62.208-23.904 62.208s-6 50.768-6 101.552v47.536c0 50.704 6 101.488 6 101.488s5.92 43.248 23.904 62.176c22.912 24.96 48.592 25.136 60.208 26.592 84.224 6.288 210.384 6.288 210.384 6.288h0.4c0 0 126.16 0 210.32-6.288 11.776-1.44 37.376-1.632 60.288-26.592 18-18.928 23.856-62.176 23.856-62.176s6.048-50.784 6.048-101.488v-8.816zM449.984 541.328v-176.064l162.448 87.728-89.312 48.576z" />
<glyph unicode="&#xe925;" glyph-name="key_bold" d="M1016.048 150.752l-68.352 88.192c-6.16 7.888-17.568 9.344-25.504 3.2l-53.248-41.312-45.344 58.464c-6.144 7.888-17.584 9.344-25.504 3.216l-58.848-45.648-243.024 313.376 36 27.92c97.472 75.584 115.264 216.4 39.664 313.84-75.584 97.472-216.368 115.264-313.856 39.664l-167.392-129.808c-97.456-75.584-115.264-216.4-39.664-313.856 75.584-97.44 216.368-115.232 313.84-39.68l36.016 27.952 396.896-511.696c6.144-7.936 17.552-9.408 25.504-3.248l66.64 51.68c7.92 6.176 9.392 17.6 3.2 25.536l-6.688 8.624 126.464 98.096c7.936 6.128 9.376 17.568 3.2 25.488zM445.008 670.608l-167.392-129.824c-35.488-27.536-86.672-21.040-114.192 14.432-27.488 35.44-21.056 86.656 14.432 114.176l167.408 129.824c35.456 27.52 86.688 21.024 114.176-14.416 27.536-35.488 21.024-86.704-14.432-114.192zM482.976 900.176c1.616-0.848 3.248-1.632 4.848-2.528-1.632 0.848-3.232 1.68-4.848 2.528zM546.448 624.688c1.424 2.048 2.832 4.048 4.336 6.24-1.392-2.096-2.848-4.176-4.336-6.24z" />
<glyph unicode="&#xe926;" glyph-name="keys_bold" d="M855.424 17.84l-18.352 71.936c-1.632 6.528-8.304 10.336-14.784 8.72l-43.504-11.056-12.256 47.664c-1.632 6.592-8.128 10.368-14.608 8.976l-48.064-12.336-65.312 256.032 29.424 7.504c79.6 20.24 127.872 101.52 107.664 181.104-9.664 37.856-33.184 68.496-63.712 88.176 5.056 13.968 8.944 28.56 11.056 43.856 16.864 120.432-67.312 231.84-187.888 248.624-120.704 16.784-231.968-67.376-248.8-187.92-3.568-25.712-2.512-50.992 2.48-75.008-53.184-10.432-98.832-49.44-114.736-104.944-22.736-79.008 23.184-161.664 102.080-184.4l29.216-8.336-118.896-414.656c-1.824-6.384 1.728-13.040 8.208-14.992l54.032-15.424c6.48-1.952 13.136 1.888 14.944 8.288l2.096 6.944 102.496-29.296c6.32-1.824 12.992 1.824 14.768 8.336l20.56 71.312c1.92 6.512-1.76 13.168-8.24 14.976l-43.12 12.4 13.456 47.408c1.936 6.384-1.888 13.008-8.224 14.976l-47.712 13.664 72.88 253.968 29.104-8.336c15.536-4.432 31.2-6.16 46.528-5.6 23.264-5.936 48.224-6.368 73.072-0.064l29.408 7.472 106.608-417.904c1.616-6.544 8.112-10.448 14.608-8.848l54.4 14.032c6.48 1.616 10.528 8.256 8.784 14.624l-1.696 7.056 103.248 26.336c6.448 1.616 10.384 8.128 8.784 14.736zM598.56 539.776c23.312 11.152 44.528 26.192 62.672 44.576 10.688-7.168 19.008-17.968 22.448-31.36 7.408-28.992-10.064-58.64-39.056-65.952l-46.848-11.92c5.2 21.888 5.232 43.872 0.784 64.656zM582.064 583.008l35.712 9.104c2.256 0.56 4.464 0.704 6.688 0.992-10.992-8.992-23.184-16.352-35.904-22.72-1.952 4.32-4.16 8.512-6.496 12.624zM468.688 457.312c-12.832 6.88-22.88 18.784-26.688 34-3.152 12.288-1.616 24.56 3.184 35.328 9.456-2.656 19.104-4.896 29.104-6.288 10.688-1.488 21.248-1.856 31.712-1.76 1.408-7.904 1.296-16.176-1.072-24.368-5.2-18.336-19.296-31.696-36.24-36.912zM470.208 553.12c2.784 1.392 5.776 2.48 8.848 3.392 3.008-1.68 5.856-3.584 8.448-5.744-2.992 0.272-5.952 0.272-8.96 0.688-2.848 0.416-5.536 1.152-8.336 1.664zM333.792 599.728c8.384-10.32 17.712-19.888 27.856-28.576-13.312-26.624-18.656-57.216-14.048-88.208l-45.264 12.992c-28.8 8.24-45.392 38.336-37.184 67.104 8.208 28.656 38.32 45.408 66.928 37.184l1.712-0.496zM317.456 764.768c14.368 103.344 109.824 175.504 213.232 161.12 103.408-14.416 175.568-109.872 161.056-213.184-1.648-11.76-4.624-22.96-8.288-33.808-27.6 10.384-58.464 12.816-89.184 5.008l-111.36-28.352-124.64 35.68c-12.544 3.6-25.168 5.28-37.632 5.568-4.992 21.696-6.448 44.576-3.184 67.968z" />
</font>
</defs>
</svg>
